<svg xmlns="http://www.w3.org/2000/svg" xmlns:svg="http://www.w3.org/2000/svg" id="svg2" width="48" height="48" version="1.0" viewBox="0 0 48 48" xml:space="preserve"><metadata id="metadata32"/><rect style="fill:none;fill-opacity:.47478991999999998;stroke:none;stroke-width:8;stroke-linejoin:round;stroke-miterlimit:4;stroke-dasharray:none;stroke-opacity:1" id="rect2400" width="48" height="48" x="0" y="0"/><rect id="rect3174" width="32" height="40" x="7" y="4" ry="3.453" style="fill:#fff;fill-opacity:1;stroke:#fff;stroke-width:8;stroke-linejoin:round;stroke-miterlimit:4;stroke-dasharray:none;stroke-opacity:1"/><rect style="fill:#000;fill-opacity:1;stroke:none;stroke-width:8;stroke-linejoin:round;stroke-miterlimit:4;stroke-dasharray:none;stroke-opacity:1" id="rect3172" width="32" height="40" x="7" y="4" ry="3.453"/><path id="path13" d="M 36,7 L 10,7 L 10,41 L 36,41 L 36,7 z" style="fill:#fff;fill-rule:nonzero;stroke:none;stroke-miterlimit:4"/><g id="g3176" transform="matrix(0.9946524,0,0,0.973822,0.1410826,0.9038053)"><path style="fill:none;fill-rule:nonzero;stroke:#fff;stroke-width:12.76490021;stroke-linejoin:round;stroke-miterlimit:4" id="path7" d="M 38.7,30.4 L 25,16.7 L 17.3,13.7 L 20,22.4 L 33.3,35.8 L 38.7,30.4 L 38.7,30.4 z"/><g style="fill-rule:nonzero;stroke:#000;stroke-miterlimit:4" id="Layer_x0020_4"><path id="path16" d="M 38.7,30.4 L 25,16.7 L 17.3,13.7 L 20,22.4 L 33.3,35.8 L 38.7,30.4 L 38.7,30.4 z" style="fill:none;stroke-width:4.97149992;stroke-linejoin:round"/><path id="path18" d="M 38.7,30.4 L 25,16.7 L 17.3,13.7 L 20,22.4 L 33.3,35.8 L 38.7,30.4 L 38.7,30.4 z" style="stroke:none"/><path id="path20" d="M 20.6,14.7 L 18.1,17.2 L 17,13.4 L 20.6,14.7 L 20.6,14.7 z" style="stroke:none"/><path id="path22" d="M 19.6,22.2 L 22.6,21.9 L 25,19.5 L 25.4,16.7" style="fill:none;stroke-width:1.24290001"/><path id="path24" d="M 20.4,14.9 L 18.3,17 L 19.9,22.2 L 22.6,21.9 L 25,19.5 L 25.3,17.1 L 20.3,14.9 L 20.4,14.9 z" style="fill:#fff;stroke:none"/></g></g><g id="crop" style="fill-rule:nonzero;stroke:#000;stroke-miterlimit:4"><path style="fill:none;stroke:none" id="path27" d="M 48,48 L 0,48 L 0,0 L 48,0 L 48,48 z"/></g></svg>