<svg xmlns="http://www.w3.org/2000/svg" xmlns:cc="http://web.resource.org/cc/" xmlns:svg="http://www.w3.org/2000/svg" xmlns:xlink="http://www.w3.org/1999/xlink" id="svg4974" width="48" height="48"><defs id="defs4976"><linearGradient id="linearGradient7066" x1="15" x2="11.681" y1="28.438" y2="16.052" gradientUnits="userSpaceOnUse" xlink:href="#linearGradient7060"/><linearGradient id="linearGradient7038" x1="5.25" x2="15.5" y1="15.188" y2="30.375" gradientTransform="matrix(0.9265726,0,0,0.9265726,30.22823,2.7826929)" gradientUnits="userSpaceOnUse" xlink:href="#linearGradient7024"/><linearGradient id="linearGradient7030" x1="11.875" x2="19.625" y1="2.313" y2="26.813" gradientTransform="matrix(0.9265726,0,0,0.9265726,30.22823,2.7826929)" gradientUnits="userSpaceOnUse" xlink:href="#linearGradient7024"/><linearGradient id="linearGradient7024"><stop id="stop7026" offset="0" style="stop-color:#729fcf;stop-opacity:1"/><stop id="stop7028" offset="1" style="stop-color:#3465a4;stop-opacity:1"/></linearGradient><linearGradient id="linearGradient7060"><stop id="stop7062" offset="0" style="stop-color:#729fcf;stop-opacity:1"/><stop id="stop7064" offset="1" style="stop-color:#729fcf;stop-opacity:0"/></linearGradient><linearGradient id="linearGradient6190" x1="11.875" x2="19.625" y1="2.313" y2="26.813" gradientTransform="matrix(1.4141871,0,0,1.4141871,46.636157,2.8672925)" gradientUnits="userSpaceOnUse" xlink:href="#linearGradient7024"/><linearGradient id="linearGradient6193" x1="5.25" x2="15.5" y1="15.188" y2="30.375" gradientTransform="matrix(1.4141871,0,0,1.4141871,46.636157,2.8672925)" gradientUnits="userSpaceOnUse" xlink:href="#linearGradient7024"/></defs><metadata id="metadata4979"/><g id="layer1"><path style="fill:#fff;fill-opacity:1;stroke:#fff;stroke-width:3.99999952;stroke-linecap:round;stroke-linejoin:miter;stroke-miterlimit:4;stroke-dasharray:none;stroke-dashoffset:0;stroke-opacity:1" id="path6164" d="M 13.96875 18.46875 C 9.2547857 20.826801 5.9999999 25.777724 6 31.5 C 6 39.504 12.355998 45.999998 20.1875 46 C 27.560718 46 33.627884 40.22838 34.3125 32.875 L 14.875 32.875 C 14.376147 32.875 13.96875 32.498853 13.96875 32 L 13.96875 18.46875 z"/><path style="fill:#fff;fill-opacity:1;stroke:#000;stroke-width:4.09172106;stroke-linecap:round;stroke-linejoin:miter;stroke-miterlimit:4;stroke-dasharray:none;stroke-dashoffset:0;stroke-opacity:1" id="path6174" d="M 20.375 21.03125 C 14.53113 21.03125 9.7812496 25.729316 9.78125 31.5 C 9.78125 37.270685 14.53113 41.96875 20.375 41.96875 C 26.21887 41.96875 30.968749 37.270685 30.96875 31.5 C 30.96875 31.489429 30.968782 31.479314 30.96875 31.46875 L 22.03125 31.46875 C 21.532396 31.46875 21.125 31.061353 21.125 30.5625 L 21.125 21.0625 C 20.872031 21.044613 20.632559 21.03125 20.375 21.03125 z"/><path id="path6162" d="M 36.120558,39.982677 L 27.110912,32.098795 L 15.987883,32.098795 L 16.039844,11.149048 L 24.022525,11 L 24.022525,24.071067 L 31.050253,24.035719 L 42,33.150756 L 36.120558,39.982677 z" style="fill:#000;fill-opacity:1;fill-rule:evenodd;stroke:#fff;stroke-width:3.99999976;stroke-linecap:butt;stroke-linejoin:miter;stroke-miterlimit:4;stroke-dasharray:none;stroke-opacity:1"/><path id="path6178" d="M 25.544233 6.3690882 A 5.6568542 5.6568542 0 1 1 14.230525,6.3690882 A 5.6568542 5.6568542 0 1 1 25.544233 6.3690882 z" transform="matrix(1.1490485,0,0,1.1490485,-0.3446497,1.1816084)" style="fill:#fff;fill-opacity:1;stroke:#fff;stroke-width:3.48114157;stroke-linecap:round;stroke-linejoin:miter;stroke-miterlimit:4;stroke-dasharray:none;stroke-dashoffset:0;stroke-opacity:1"/><path id="path6180" d="M 25.544233 6.3690882 A 5.6568542 5.6568542 0 1 1 14.230525,6.3690882 A 5.6568542 5.6568542 0 1 1 25.544233 6.3690882 z" transform="matrix(0.7954256,0,0,0.7954952,6.6875881,3.4334213)" style="fill:#000;fill-opacity:1;stroke:none;stroke-width:4.55310249;stroke-linecap:round;stroke-linejoin:miter;stroke-miterlimit:4;stroke-dasharray:none;stroke-dashoffset:0;stroke-opacity:1"/><rect style="opacity:1;fill:#000;fill-opacity:1;stroke:none;stroke-width:4;stroke-linecap:round;stroke-linejoin:miter;stroke-miterlimit:4;stroke-dasharray:none;stroke-dashoffset:0;stroke-opacity:1" id="rect6182" width="4" height="12.776" x="18.007" y="8" rx=".9" ry=".9"/><rect style="opacity:.6;fill:none;fill-opacity:.8093385;stroke:none;stroke-width:1;stroke-linecap:round;stroke-linejoin:round;stroke-miterlimit:4;stroke-dasharray:none;stroke-opacity:.70588235" id="rect2170" width="48" height="48" x="0" y="0" rx="0" ry="0"/></g></svg>