<svg xmlns="http://www.w3.org/2000/svg" xmlns:svg="http://www.w3.org/2000/svg" id="svg3304" width="48" height="48"><metadata id="metadata3309"/><g id="layer1"><rect style="fill:none;fill-opacity:.75;fill-rule:evenodd;stroke:none;stroke-width:1px;stroke-linecap:butt;stroke-linejoin:miter;stroke-opacity:1" id="rect5087" width="48" height="48" x="0" y="0"/><rect style="fill:none;fill-opacity:.75;fill-rule:evenodd;stroke:none;stroke-width:1px;stroke-linecap:butt;stroke-linejoin:miter;stroke-opacity:1" id="rect4784" width="48" height="48" x="0" y="0"/><path style="fill:#fff;fill-opacity:1;fill-rule:evenodd;stroke:#fff;stroke-width:3.1061153;stroke-linecap:round;stroke-linejoin:round;stroke-miterlimit:4;stroke-dasharray:none;stroke-opacity:1" id="rect5040" d="M 4.8886262,2.6477059 L 43.017460,2.6477059 C 45.042579,2.6477059 46.518438,4.1781440 46.518438,6.5349096 L 46.530314,37.000000 L 1.4964810,36.979702 L 1.5128113,6.3336485 C 1.5128113,4.4321166 3.0522187,2.6477059 4.8886262,2.6477059 z"/><path id="path6541" d="M 18.000000,34.000000 C 18.000000,34.000000 19.000000,40.000000 10.992358,40.000000 C 8.4866814,40.000000 9.0000000,44.035151 9.0000000,44.035151 L 39.000000,44.000000 C 39.000000,44.000000 39.431748,40.077717 36.915122,40.058968 C 29.000000,40.000000 30.000000,34.000000 30.000000,34.000000 L 18.000000,34.000000 z" style="fill:#fff;fill-opacity:1;fill-rule:evenodd;stroke:#fff;stroke-width:8;stroke-linecap:round;stroke-linejoin:round;stroke-miterlimit:4;stroke-dasharray:none;stroke-opacity:1"/><path style="fill:#000;fill-opacity:1;fill-rule:evenodd;stroke:none;stroke-width:1px;stroke-linecap:butt;stroke-linejoin:miter;stroke-opacity:1" id="path9222" d="M 18,33.343365 C 18,33.343365 19.19699,39.080711 11.189348,39.04556 C 8.683696,39.034561 9,44 9,44 L 39.084878,44 C 39.084878,44 39.3853,39.092566 36.868673,39.074016 C 28.868673,39.015048 30,33.409029 30,33.409029 L 18,33.343365 z"/><path id="path2175" d="M 7.3758149,5.5616037 L 40.499022,5.3738592 C 42.524141,5.3738592 44.000000,6.8015137 44.000000,9.0000000 L 44.000000,34.000000 L 4.0000000,34.000000 L 4.0000000,9.0000000 C 4.0000000,7.2261741 5.5394074,5.5616037 7.3758149,5.5616037 z" style="fill:#000;fill-opacity:1;fill-rule:evenodd;stroke:none;stroke-width:3;stroke-linecap:round;stroke-linejoin:round;stroke-miterlimit:4;stroke-dasharray:none;stroke-opacity:1"/><path style="opacity:1;fill:#fff;fill-opacity:1;fill-rule:nonzero;stroke:#fff;stroke-width:1.88508356;stroke-linecap:butt;stroke-linejoin:round;stroke-miterlimit:4;stroke-dasharray:none;stroke-dashoffset:0;stroke-opacity:1" id="path23408" d="M 33.807458,12.494958 C 34.196842,13.415058 34.401208,14.433526 34.401208,15.494958 C 34.401207,19.740685 30.959435,23.182458 26.713708,23.182458 C 25.473736,23.182458 24.313813,22.891863 23.276208,22.369958 C 24.44436,25.130257 27.185664,27.057458 30.369958,27.057458 C 34.615685,27.057458 38.057458,23.615684 38.057458,19.369958 C 38.057458,16.364203 36.322665,13.760082 33.807458,12.494958 z"/><path style="fill:#fff;fill-opacity:1;fill-rule:evenodd;stroke:none;stroke-width:1px;stroke-linecap:butt;stroke-linejoin:miter;stroke-opacity:1" id="path1906" d="M 17.876881 27.119015 A 2.9384403 3.0205197 0 1 1 12,27.119015 A 2.9384403 3.0205197 0 1 1 17.876881 27.119015 z" transform="translate(1,-2.139534)"/><path id="path2795" d="M 17.876881 27.119015 A 2.9384403 3.0205197 0 1 1 12,27.119015 A 2.9384403 3.0205197 0 1 1 17.876881 27.119015 z" transform="translate(-1,-13.13953)" style="fill:#fff;fill-opacity:1;fill-rule:evenodd;stroke:none;stroke-width:1px;stroke-linecap:butt;stroke-linejoin:miter;stroke-opacity:1"/><path style="fill:#fff;fill-opacity:1;fill-rule:evenodd;stroke:none;stroke-width:1px;stroke-linecap:butt;stroke-linejoin:miter;stroke-opacity:1" id="path2797" d="M 17.876881 27.119015 A 2.9384403 3.0205197 0 1 1 12,27.119015 A 2.9384403 3.0205197 0 1 1 17.876881 27.119015 z" transform="translate(11,-15.13953)"/></g></svg>