<svg xmlns="http://www.w3.org/2000/svg" xmlns:cc="http://web.resource.org/cc/" xmlns:svg="http://www.w3.org/2000/svg" id="svg4932" width="48" height="48"><metadata id="metadata4937"/><g id="layer1"><rect style="opacity:1;fill:#fff;fill-opacity:1;stroke:none;stroke-width:4;stroke-linecap:round;stroke-linejoin:round;stroke-miterlimit:4;stroke-dasharray:none;stroke-dashoffset:0;stroke-opacity:1" id="rect5941" width="12" height="48" x="2" y="0" rx="0" ry="0"/><path style="fill:#000;fill-opacity:1;stroke:#fff;stroke-width:4;stroke-linecap:round;stroke-linejoin:round;stroke-miterlimit:4;stroke-dashoffset:0;stroke-opacity:1" id="rect5911" d="M 9.9999999,32.0716 C 9.9999999,32.0716 12.920698,29.351168 18.547646,29.351168 C 24.081006,29.351168 27.516456,32.093697 34.379544,32.0716 C 41.242632,32.049503 45.999998,29.215445 45.999998,29.215445 L 45.999998,2.0405082 C 45.999998,2.0405082 41.10225,4.9667462 34.379544,5.0109402 C 27.655534,5.0551432 24.73612,1.8713142 18.36047,2.0038962 C 12.078409,2.1364782 9.9999999,6.0716002 9.9999999,6.0716002 L 9.9999999,32.0716 z"/><rect style="opacity:1;fill:#000;fill-opacity:1;stroke:none;stroke-width:4;stroke-linecap:round;stroke-linejoin:round;stroke-miterlimit:4;stroke-dasharray:none;stroke-dashoffset:0;stroke-opacity:1" id="rect5939" width="4.253" height="40" x="6" y="4" rx="0" ry="0"/><rect style="opacity:.6;fill:none;fill-opacity:.8093385;stroke:none;stroke-width:1;stroke-linecap:round;stroke-linejoin:round;stroke-miterlimit:4;stroke-dasharray:none;stroke-opacity:.70588235" id="rect2170" width="48" height="48" x="0" y="0" rx="0" ry="0"/></g></svg>