<svg xmlns="http://www.w3.org/2000/svg" xmlns:svg="http://www.w3.org/2000/svg" id="svg2" width="48" height="48" version="1.0" viewBox="0 0 48 48" xml:space="preserve"><metadata id="metadata27"/><g style="fill-rule:nonzero;stroke:#000;stroke-miterlimit:4" id="g17"><path id="path2214" d="M 18,31 L 15,38 L 6,38 L 18,10 L 30,10 L 42,38 L 32,38 L 29,31 L 18,30.9 L 18,31 z M 28,26 C 28,26 24.6,16.6 24,15 L 23,15 C 22.5,16.7 19,26 19,26 L 28,26 z" style="stroke-width:12;stroke-linejoin:round;stroke-miterlimit:4;stroke-dasharray:none;stroke:#fff;stroke-opacity:1"/><path style="stroke-width:4;stroke-linejoin:round;stroke-miterlimit:4;stroke-dasharray:none" id="path19" d="M 18,31 L 15,38 L 6,38 L 18,10 L 30,10 L 42,38 L 32,38 L 29,31 L 18,30.9 L 18,31 z M 28,26 C 28,26 24.6,16.6 24,15 L 23,15 C 22.5,16.7 19,26 19,26 L 28,26 z"/></g><g id="crop_x0020_marks" style="fill-rule:nonzero;stroke:#000;stroke-miterlimit:4"><path style="fill:none;stroke:none" id="path22" d="M 48,48 L 0,48 L 0,0 L 48,0 L 48,48 z"/></g></svg>