<svg xmlns="http://www.w3.org/2000/svg" xmlns:cc="http://web.resource.org/cc/" xmlns:svg="http://www.w3.org/2000/svg" id="svg5931" width="48" height="48"><metadata id="metadata5936"/><g id="layer1"><rect style="fill:none;fill-opacity:1;fill-rule:evenodd;stroke:none;stroke-width:1px;stroke-linecap:butt;stroke-linejoin:miter;stroke-opacity:1" id="rect7394" width="48" height="48" x="0" y="0"/><path style="opacity:1;color:#000;fill:#fff;fill-opacity:1;fill-rule:nonzero;stroke:#fff;stroke-width:8;stroke-linecap:round;stroke-linejoin:round;marker:none;marker-start:none;marker-mid:none;marker-end:none;stroke-miterlimit:10;stroke-dasharray:none;stroke-dashoffset:0;stroke-opacity:1;visibility:visible;display:block;overflow:visible" id="path6666" d="M 4.0000000,34.000000 C 4.6814107,16.457299 21.000000,5.0000000 37.000000,20.000000 L 44.000000,12.000000 C 44.000000,12.000000 44.000000,35.000000 44.000000,35.000000 L 21.000000,35.000000 C 21.000000,35.000000 29.000000,28.000000 29.000000,28.000000 C 16.000000,15.000000 6.7719186,24.398539 4.0000000,34.000000 z"/><path id="path2177" d="M 4.0000000,34.000000 C 4.6814107,16.457299 21.000000,5.0000000 37.000000,20.000000 L 44.000000,12.000000 C 44.000000,12.000000 44.000000,35.000000 44.000000,35.000000 L 21.000000,35.000000 C 21.000000,35.000000 29.000000,28.000000 29.000000,28.000000 C 16.000000,15.000000 6.7719186,24.398539 4.0000000,34.000000 z" style="opacity:1;color:#000;fill:#000;fill-opacity:1;fill-rule:nonzero;stroke:none;stroke-width:.9999997;stroke-linecap:butt;stroke-linejoin:miter;marker:none;marker-start:none;marker-mid:none;marker-end:none;stroke-miterlimit:10;stroke-dasharray:none;stroke-dashoffset:0;stroke-opacity:1;visibility:visible;display:block;overflow:visible"/></g></svg>