<svg xmlns="http://www.w3.org/2000/svg" xmlns:cc="http://web.resource.org/cc/" xmlns:svg="http://www.w3.org/2000/svg" id="svg3465" width="48" height="48"><metadata id="metadata3470"/><g id="layer1"><rect style="fill:none;fill-opacity:.75;fill-rule:evenodd;stroke:none;stroke-width:1px;stroke-linecap:butt;stroke-linejoin:miter;stroke-opacity:1" id="rect4928" width="48" height="48" x="0" y="0"/><path id="path4200" d="M 24.000000,4.0000000 C 17.000000,4.0000000 12.000000,8.1739046 12.000000,15.000000 L 12.000000,21.000000 L 10.000000,21.000000 C 8.0000000,21.000000 7.0000000,22.000000 7.0000000,24.000000 L 7.0000000,41.000000 C 7.0000000,41.980326 8.0000000,44.000000 10.000000,44.000000 L 39.384016,44.000000 C 41.000000,43.990546 42.000000,41.980324 42.000000,41.000000 L 42.000000,24.000000 C 42.000000,22.000000 41.000000,20.990546 39.000000,20.990546 L 37.000000,21.000000 L 37.000000,15.000000 C 37.000000,8.0000000 32.000000,4.0000000 25.000000,4.0000000 L 24.000000,4.0000000 z M 24.000000,9.0000000 L 25.000000,9.0000000 C 32.000000,9.0000000 32.000000,15.000000 32.000000,17.000000 L 32.000000,21.000000 L 17.000000,21.000000 L 17.000000,17.000000 C 17.000000,15.000000 17.000000,9.0000000 24.000000,9.0000000 z" style="opacity:1;color:#000;fill:#fff;fill-opacity:1;fill-rule:nonzero;stroke:#fff;stroke-width:8;stroke-linecap:butt;stroke-linejoin:miter;marker:none;marker-start:none;marker-mid:none;marker-end:none;stroke-miterlimit:10;stroke-dasharray:none;stroke-dashoffset:0;stroke-opacity:1;visibility:visible;display:block;overflow:visible"/><path style="opacity:1;color:#000;fill:#000;fill-opacity:1;fill-rule:nonzero;stroke:none;stroke-width:.9999997;stroke-linecap:butt;stroke-linejoin:miter;marker:none;marker-start:none;marker-mid:none;marker-end:none;stroke-miterlimit:10;stroke-dasharray:none;stroke-dashoffset:0;stroke-opacity:1;visibility:visible;display:block;overflow:visible" id="path2086" d="M 24.000000,4.0000000 C 17.000000,4.0000000 12.000000,8.1739046 12.000000,15.000000 L 12.000000,21.000000 L 10.000000,21.000000 C 8.0000000,21.000000 7.0000000,22.000000 7.0000000,24.000000 L 7.0000000,41.000000 C 7.0000000,41.980326 8.0000000,44.000000 10.000000,44.000000 L 39.384016,44.000000 C 41.000000,43.990546 42.000000,41.980324 42.000000,41.000000 L 42.000000,24.000000 C 42.000000,22.000000 41.000000,20.990546 39.000000,20.990546 L 37.000000,21.000000 L 37.000000,15.000000 C 37.000000,8.0000000 32.000000,4.0000000 25.000000,4.0000000 L 24.000000,4.0000000 z M 24.000000,9.0000000 L 25.000000,9.0000000 C 32.000000,9.0000000 32.000000,15.000000 32.000000,17.000000 L 32.000000,21.000000 L 17.000000,21.000000 L 17.000000,17.000000 C 17.000000,15.000000 17.000000,9.0000000 24.000000,9.0000000 z"/></g></svg>