<svg xmlns="http://www.w3.org/2000/svg" xmlns:cc="http://web.resource.org/cc/" xmlns:svg="http://www.w3.org/2000/svg" id="svg2" width="48" height="48" version="1.0" viewBox="0 0 48 48" xml:space="preserve"><metadata id="metadata19"/><path id="path7662" d="M 6,33.008264 L 29,33.008264 L 29,6.0082645 L 13.064301,6.063595 L 6.030643,11.973734 L 6,33.008264 z" style="fill:#fff;fill-opacity:1;fill-rule:nonzero;stroke:#fff;stroke-width:12;stroke-linejoin:round;stroke-miterlimit:4;stroke-dasharray:none;stroke-opacity:1"/><g id="crop_x0020_marks" style="fill-rule:nonzero;stroke:#000;stroke-miterlimit:4"><path style="fill:none;stroke:none" id="path14" d="M 48,48 L 0,48 L 0,0 L 48,0 L 48,48 z"/></g><path style="fill:#fff;fill-rule:nonzero;stroke:#fff;stroke-width:12;stroke-linejoin:round;stroke-miterlimit:4;stroke-dasharray:none;fill-opacity:1;stroke-opacity:1" id="path6771" d="M 42,42 L 19,42 L 19,15 L 33.018393,15.041044 L 42,21 L 42,42 z"/><path id="path7" d="M 42,42 L 19,42 L 19,15 L 35,15 L 42,21.090909 L 42,42 z" style="fill:#000;fill-rule:nonzero;stroke:#000;stroke-width:4;stroke-linejoin:round;stroke-miterlimit:4;stroke-dasharray:none;fill-opacity:1"/><path id="path9" d="M 39.975823,21.984889 L 40,40 L 20.999986,39.992223 L 21,17 L 33.983471,17 L 39.975823,21.984889 z" style="fill:#fff;fill-rule:nonzero;stroke:none;stroke-miterlimit:4"/><path style="fill:#000;fill-opacity:1;fill-rule:nonzero;stroke:#000;stroke-width:4;stroke-linejoin:round;stroke-miterlimit:4;stroke-dasharray:none" id="path7658" d="M 6,33 L 29,33 L 29,6 L 12.978645,6.0183044 L 6,12 L 6,33 z"/><path style="fill:#fff;fill-rule:nonzero;stroke:none;stroke-miterlimit:4" id="path7660" d="M 7.946196,13.096082 L 8,31 L 27.000014,30.992223 L 27,8 L 14,8 L 7.946196,13.096082 z"/></svg>