<svg xmlns="http://www.w3.org/2000/svg" xmlns:svg="http://www.w3.org/2000/svg" id="svg10115" width="48" height="48" version="1.0"><metadata id="metadata10120"/><g id="layer1"><path style="fill:#000;fill-opacity:1;fill-rule:evenodd;stroke:#fff;stroke-width:4;stroke-linecap:butt;stroke-linejoin:miter;stroke-miterlimit:4;stroke-dasharray:none;stroke-opacity:1" id="path10123" d="M 46 24 A 22 21.992188 0 1 1 2,24 A 22 21.992188 0 1 1 46 24 z"/><path style="fill:#fff;fill-opacity:1;fill-rule:evenodd;stroke:none;stroke-width:1px;stroke-linecap:butt;stroke-linejoin:miter;stroke-opacity:1" id="path10998" d="M 40 24 A 16 16 0 1 1 8,24 A 16 16 0 1 1 40 24 z"/><path style="fill:#000;fill-opacity:1;fill-rule:evenodd;stroke:none;stroke-width:1px;stroke-linecap:butt;stroke-linejoin:miter;stroke-opacity:1" id="path11873" d="M 27 36 A 3 3 0 1 1 21,36 A 3 3 0 1 1 27 36 z" transform="translate(0,-2)"/><path style="fill:#000;fill-opacity:1;fill-rule:evenodd;stroke:none;stroke-width:1px;stroke-linecap:butt;stroke-linejoin:miter;stroke-opacity:1" id="path12748" d="M 28.46875,15 C 28.46875,19 26.46875,30 24.46875,30 C 22.46875,30 20.46875,19 20.46875,15 C 20.46875,10.032 23.46875,10 24.46875,10 C 25.46875,10 28.46875,10.032 28.46875,15 z" transform="translate(-0.46875,0)"/></g></svg>