<svg xmlns="http://www.w3.org/2000/svg" xmlns:cc="http://web.resource.org/cc/" xmlns:svg="http://www.w3.org/2000/svg" id="svg1872" width="48" height="48"><metadata id="metadata1877"/><g id="layer1"><rect id="rect2768" width="36" height="22" x="6" y="20" rx="2.96" ry="2.959" style="fill:#fff;fill-opacity:1;fill-rule:evenodd;stroke:#fff;stroke-width:11.99999905;stroke-linecap:butt;stroke-linejoin:miter;stroke-miterlimit:4;stroke-dasharray:none;stroke-opacity:1"/><rect style="fill:#fff;fill-opacity:1;fill-rule:evenodd;stroke:#000;stroke-width:3.99999976;stroke-linecap:butt;stroke-linejoin:miter;stroke-miterlimit:4;stroke-dasharray:none;stroke-opacity:1" id="rect1880" width="35" height="21" x="6" y="21" rx="2.96" ry="2.959"/><rect style="opacity:1;fill:#fff;fill-opacity:1;stroke:none;stroke-width:4;stroke-linecap:butt;stroke-linejoin:round;stroke-miterlimit:4;stroke-dasharray:none;stroke-dashoffset:0;stroke-opacity:1" id="rect5907" width="10" height="8" x="27" y="11"/><path style="opacity:1;fill:none;fill-opacity:1;stroke:#fff;stroke-width:1.48869908;stroke-linecap:butt;stroke-linejoin:round;stroke-miterlimit:4;stroke-dasharray:none;stroke-dashoffset:0;stroke-opacity:1" id="path5909" d="M 38 4.7148743 A 2.5 2.7148743 0 1 1 33,4.7148743 A 2.5 2.7148743 0 1 1 38 4.7148743 z" transform="matrix(2.7999997,0,0,2.5783882,-67.399989,-3.1567761)"/><path style="opacity:1;fill:#fff;fill-opacity:1;stroke:#000;stroke-width:2.60522294;stroke-linecap:butt;stroke-linejoin:round;stroke-miterlimit:4;stroke-dasharray:none;stroke-dashoffset:0;stroke-opacity:1" id="path4932" d="M 38 4.7148743 A 2.5 2.7148743 0 1 1 33,4.7148743 A 2.5 2.7148743 0 1 1 38 4.7148743 z" transform="matrix(1.6,0,0,1.4733647,-24.8,2.0532709)"/><rect style="opacity:1;fill:#000;fill-opacity:1;stroke:none;stroke-width:4;stroke-linecap:butt;stroke-linejoin:round;stroke-miterlimit:4;stroke-dasharray:none;stroke-dashoffset:0;stroke-opacity:1" id="rect5905" width="4" height="7" x="30" y="12"/><path style="fill:none;fill-rule:evenodd;stroke:#000;stroke-width:3;stroke-linecap:butt;stroke-linejoin:miter;stroke-miterlimit:4;stroke-dasharray:none;stroke-opacity:1" id="path5915" d="M 23.571068,20.545048 L 41.423728,36.567573"/><path style="fill:none;fill-rule:evenodd;stroke:#000;stroke-width:3;stroke-linecap:butt;stroke-linejoin:miter;stroke-miterlimit:4;stroke-dasharray:none;stroke-opacity:1" id="path5917" d="M 12.64734,21.999999 L 35,42"/><path style="fill:none;fill-rule:evenodd;stroke:#000;stroke-width:3;stroke-linecap:butt;stroke-linejoin:miter;stroke-miterlimit:4;stroke-dasharray:none;stroke-opacity:1" id="path5919" d="M 5.5,26.477475 L 23.35266,42.5"/></g></svg>