<svg xmlns="http://www.w3.org/2000/svg" xmlns:cc="http://web.resource.org/cc/" xmlns:svg="http://www.w3.org/2000/svg" id="svg5541" width="48" height="48"><metadata id="metadata5546"/><g id="layer1"><path style="opacity:1;fill:#000;fill-opacity:1;stroke:#fff;stroke-width:1.03040127999999997;stroke-linecap:butt;stroke-linejoin:miter;stroke-miterlimit:4;stroke-dasharray:none;stroke-dashoffset:0;stroke-opacity:1" id="path5553" d="M 29.762532,24.158312 A 5.6675463,5.6675463 0 1 1 18.42744,24.158312 A 5.6675463,5.6675463 0 1 1 29.762532,24.158312 z" transform="matrix(3.8940688,0,0,3.8699342,-69.864911,-69.454358)"/><path style="opacity:1;fill:#000;fill-opacity:1;stroke:#fff;stroke-width:1.62301720999999999;stroke-linecap:butt;stroke-linejoin:miter;stroke-miterlimit:4;stroke-dasharray:none;stroke-dashoffset:0;stroke-opacity:1" id="path5539" d="M 29.762532,24.158312 A 5.6675463,5.6675463 0 1 1 18.42744,24.158312 A 5.6675463,5.6675463 0 1 1 29.762532,24.158312 z" transform="matrix(2.4726096,0,0,2.456508,-35.59963,-35.45887)"/><path style="opacity:1;fill:#000;fill-opacity:1;stroke:#fff;stroke-width:3.80656894000000001;stroke-linecap:butt;stroke-linejoin:miter;stroke-miterlimit:4;stroke-dasharray:none;stroke-dashoffset:0;stroke-opacity:1" id="path5537" d="M 29.762532,24.158312 A 5.6675463,5.6675463 0 1 1 18.42744,24.158312 A 5.6675463,5.6675463 0 1 1 29.762532,24.158312 z" transform="matrix(1.0526115,0,0,1.0490217,-1.393386,-1.2798122)"/></g></svg>