<svg xmlns="http://www.w3.org/2000/svg" xmlns:cc="http://web.resource.org/cc/" xmlns:svg="http://www.w3.org/2000/svg" id="svg5541" width="48" height="48"><metadata id="metadata5546"/><g id="layer1"><rect style="opacity:1;fill:#000;fill-opacity:1;stroke:#fff;stroke-width:4.00000048;stroke-linecap:butt;stroke-linejoin:miter;stroke-miterlimit:4;stroke-dasharray:none;stroke-dashoffset:0;stroke-opacity:1" id="rect5956" width="44.118" height="44.017" x="1.955" y="2.126" rx="5.063" ry="5.063"/><rect style="opacity:1;fill:#fff;fill-opacity:1;stroke:none;stroke-width:4;stroke-linecap:butt;stroke-linejoin:miter;stroke-miterlimit:4;stroke-dasharray:none;stroke-dashoffset:0;stroke-opacity:1" id="rect5958" width="31.82" height="31.82" x="8.132" y="8.048"/><path style="opacity:1;fill:#000;fill-opacity:1;stroke:none;stroke-width:2.22066212;stroke-linecap:butt;stroke-linejoin:miter;stroke-miterlimit:4;stroke-dasharray:none;stroke-dashoffset:0;stroke-opacity:1" id="path6353" d="M 28.726213,30.852661 A 6.3639612,4.7729707 0 1 1 15.99829,30.852661 A 6.3639612,4.7729707 0 1 1 28.726213,30.852661 z" transform="matrix(1.421547,0,0,1.8988064,-7.8725564,-34.624857)"/><path style="fill:none;fill-rule:evenodd;stroke:#000;stroke-width:4;stroke-linecap:butt;stroke-linejoin:miter;stroke-miterlimit:4;stroke-dasharray:none;stroke-opacity:1" id="path6758" d="M 11.004349,24.046758 L 37.06066,24.046758"/><path style="fill:none;fill-rule:evenodd;stroke:#000;stroke-width:4;stroke-linecap:butt;stroke-linejoin:miter;stroke-miterlimit:4;stroke-dasharray:none;stroke-opacity:1" id="path6760" d="M 23.90035,11.080544 L 23.90035,37.136855"/><path style="fill:none;fill-rule:evenodd;stroke:#000;stroke-width:4;stroke-linecap:butt;stroke-linejoin:miter;stroke-miterlimit:4;stroke-dasharray:none;stroke-opacity:1" id="path6762" d="M 15.971314,33.009542 L 32.989658,15.991198"/><path style="fill:none;fill-rule:evenodd;stroke:#000;stroke-width:4;stroke-linecap:butt;stroke-linejoin:miter;stroke-miterlimit:4;stroke-dasharray:none;stroke-opacity:1" id="path6764" d="M 15.952916,16.065945 L 32.97126,33.084289"/><path style="opacity:1;fill:#fff;fill-opacity:1;stroke:none;stroke-width:4;stroke-linecap:butt;stroke-linejoin:miter;stroke-miterlimit:4;stroke-dasharray:none;stroke-dashoffset:0;stroke-opacity:1" id="path6851" d="M 27.5,23.5625 A 3.1875,3.125 0 1 1 21.125,23.5625 A 3.1875,3.125 0 1 1 27.5,23.5625 z" transform="matrix(1.5325472,0,0,1.5952691,-13.386163,-13.544335)"/></g></svg>