<svg xmlns="http://www.w3.org/2000/svg" xmlns:svg="http://www.w3.org/2000/svg" id="svg2" width="48" height="48" version="1.0" viewBox="0 0 48 48" xml:space="preserve"><metadata id="metadata21"/><g id="Layer_x0020_4" style="fill-rule:nonzero;stroke:#000;stroke-miterlimit:4"><g id="g5"><g id="g7"><path style="stroke:#fff;stroke-width:7.09089994;stroke-linejoin:round" id="path9" d="M 19.2,30.3 L 19.1,28.9 C 19,26.2 19.8,23.4 22.2,20.6 C 23.9,18.6 25.3,16.8 25.3,15 C 25.3,13.2 24.1,11.9 21.5,11.9 C 19.7,11.9 17.6,12.5 16.2,13.4 L 14.4,7.7 C 16.3,6.6 19.5,5.5 23.3,5.5 C 30.3,5.5 33.5,9.4 33.5,13.7 C 33.5,17.8 30.9,20.4 28.9,22.7 C 27,24.8 26.1,26.9 26.2,29.3 L 26.2,30.3 L 19.2,30.3 L 19.2,30.3 z M 22.5,42.5 C 19.7,42.5 17.8,40.4 17.8,37.7 C 17.8,34.8 19.8,32.9 22.5,32.9 C 25.4,32.9 27.2,34.9 27.3,37.7 C 27.3,40.5 25.4,42.5 22.6,42.5 L 22.5,42.5 z"/></g><g id="g11"><path style="stroke:none" id="path13" d="M 19.2,30.3 L 19.1,28.9 C 19,26.2 19.8,23.4 22.2,20.6 C 23.9,18.6 25.3,16.8 25.3,15 C 25.3,13.2 24.1,11.9 21.5,11.9 C 19.7,11.9 17.6,12.5 16.2,13.4 L 14.4,7.7 C 16.3,6.6 19.5,5.5 23.3,5.5 C 30.3,5.5 33.5,9.4 33.5,13.7 C 33.5,17.8 30.9,20.4 28.9,22.7 C 27,24.8 26.1,26.9 26.2,29.3 L 26.2,30.3 L 19.2,30.3 L 19.2,30.3 z M 22.5,42.5 C 19.7,42.5 17.8,40.4 17.8,37.7 C 17.8,34.8 19.8,32.9 22.5,32.9 C 25.4,32.9 27.2,34.9 27.3,37.7 C 27.3,40.5 25.4,42.5 22.6,42.5 L 22.5,42.5 z"/></g></g></g><g id="crop_x0020_marks" style="fill-rule:nonzero;stroke:#000;stroke-miterlimit:4"><path style="fill:none;stroke:none" id="path16" d="M 48,48 L 0,48 L 0,0 L 48,0 L 48,48 z"/></g></svg>