<svg xmlns="http://www.w3.org/2000/svg" xmlns:cc="http://web.resource.org/cc/" xmlns:svg="http://www.w3.org/2000/svg" id="svg2" width="48" height="48" viewBox="0 0 48 48" xml:space="preserve"><metadata id="metadata19"/><path style="fill-rule:nonzero;stroke:#fff;stroke-width:6;stroke-miterlimit:4;stroke-dasharray:none" id="path7" d="M 43.000000,24.000000 C 43.000000,34.500000 34.500000,43.000000 24.000000,43.000000 C 13.500000,43.000000 5.0000000,34.500000 5.0000000,24.000000 C 5.0000000,13.500000 13.500000,5.0000000 24.000000,5.0000000 C 34.500000,5.0000000 43.000000,13.500000 43.000000,24.000000 z"/><path style="fill-rule:nonzero;stroke:none;stroke-miterlimit:4" id="path9" d="M 43.000000,24.000000 C 43.000000,34.500000 34.500000,43.000000 24.000000,43.000000 C 13.500000,43.000000 5.0000000,34.500000 5.0000000,24.000000 C 5.0000000,13.500000 13.500000,5.0000000 24.000000,5.0000000 C 34.500000,5.0000000 43.000000,13.500000 43.000000,24.000000 z"/><path style="fill:#fff;fill-rule:nonzero;stroke:none;stroke-miterlimit:4" id="path11" d="M 37.000000,28.000000 L 11.000000,28.000000 L 11.000000,20.000000 L 37.000000,20.000000 L 37.000000,28.000000 L 37.000000,28.000000 z"/><g id="crop_x0020_marks" style="fill-rule:nonzero;clip-rule:nonzero;stroke:#000;stroke-miterlimit:4"><path style="fill:none;stroke:none" id="path14" d="M48,48H0V0h48v48z"/></g></svg>