<svg xmlns="http://www.w3.org/2000/svg" xmlns:cc="http://web.resource.org/cc/" xmlns:svg="http://www.w3.org/2000/svg" id="svg2" width="48" height="48" viewBox="0 0 48 48" xml:space="preserve"><metadata id="metadata23"/><rect style="fill:none;fill-opacity:.75;fill-rule:evenodd;stroke:none;stroke-width:1px;stroke-linecap:butt;stroke-linejoin:miter;stroke-opacity:1" id="rect6236" width="48" height="48" x="0" y="0" rx="0" ry="0"/><path id="path5508" d="M 24.000000,9.0000000 L 7.0000000,39.000000 L 41.000000,39.000000 L 24.000000,9.0000000 z" style="fill:#fff;fill-rule:nonzero;stroke:#fff;stroke-width:12;stroke-linecap:round;stroke-linejoin:round;stroke-miterlimit:4;stroke-dasharray:none;stroke-opacity:1"/><path style="fill:#fff;fill-rule:nonzero;stroke:#000;stroke-width:6;stroke-linecap:round;stroke-linejoin:round;stroke-miterlimit:4;stroke-dasharray:none" id="path9" d="M 24.000000,9.0000000 L 7.0000000,39.000000 L 41.000000,39.000000 L 24.000000,9.0000000 z"/><path style="fill:#fff;fill-rule:nonzero;stroke:none;stroke-miterlimit:4" id="path11" d="M 24.000000,10.000000 L 8.0000000,38.000000 L 40.000000,38.000000 L 24.000000,10.000000 z"/><path id="path15" d="M 22.000000,29.000000 L 21.000000,18.000000 L 27.000000,18.000000 L 26.000000,29.000000 L 22.000000,29.000000 z" style="fill-rule:nonzero;stroke:none;stroke-miterlimit:4"/><path style="fill:#000;fill-opacity:1;fill-rule:evenodd;stroke:none;stroke-width:1px;stroke-linecap:butt;stroke-linejoin:miter;stroke-opacity:1" id="path6965" d="M 26.968750 32.000000 A 2.9687500 3.0156250 0 1 1 21.031250,32.000000 A 2.9687500 3.0156250 0 1 1 26.968750 32.000000 z" transform="translate(-3.125000e-2,1.984375)"/></svg>