<svg xmlns="http://www.w3.org/2000/svg" xmlns:svg="http://www.w3.org/2000/svg" id="svg2" width="48" height="48" version="1.0" viewBox="0 0 48 48" xml:space="preserve" style="display:inline"><metadata id="metadata37"/><g id="layer1" style="display:inline"><rect style="fill:none;fill-opacity:.33196722000000001;stroke:none;stroke-width:3;stroke-linecap:round;stroke-linejoin:round;stroke-miterlimit:4;stroke-dasharray:none;stroke-opacity:1" id="rect2415" width="48" height="48" x="0" y="0"/><g id="g3215" transform="translate(0,2)" style="stroke:#fff;stroke-opacity:1;stroke-width:10;stroke-miterlimit:4;stroke-dasharray:none;fill:none"><path style="fill:none;fill-rule:evenodd;stroke:#fff;stroke-width:10;stroke-linecap:round;stroke-linejoin:miter;stroke-miterlimit:4;stroke-dasharray:none;stroke-opacity:1" id="path3217" d="M 20,33 L 28,32"/><path id="path3219" d="M 20,36 L 28,35" style="fill:none;fill-rule:evenodd;stroke:#fff;stroke-width:10;stroke-linecap:round;stroke-linejoin:miter;stroke-miterlimit:4;stroke-dasharray:none;stroke-opacity:1"/><path style="fill:none;fill-rule:evenodd;stroke:#fff;stroke-width:10;stroke-linecap:round;stroke-linejoin:miter;stroke-miterlimit:4;stroke-dasharray:none;stroke-opacity:1" id="path3221" d="M 20,39 L 28,38"/><path id="path3223" d="M 24,36 L 24,40" style="fill:none;fill-rule:evenodd;stroke:#fff;stroke-width:10;stroke-linecap:round;stroke-linejoin:miter;stroke-miterlimit:4;stroke-dasharray:none;stroke-opacity:1"/></g><path id="path3213" d="M 36,18.5 A 12.5,12.5 0 1 1 11,18.5 A 12.5,12.5 0 1 1 36,18.5 z" transform="matrix(1.0796614,0,0,1.0802571,-1.8608262,-0.5049721)" style="fill:none;fill-opacity:1;stroke:#fff;stroke-width:11.11153079;stroke-linecap:round;stroke-linejoin:round;stroke-miterlimit:4;stroke-dasharray:none;stroke-opacity:1"/><path style="fill:#fff;fill-opacity:1;stroke:#000;stroke-width:3.7038436;stroke-linecap:round;stroke-linejoin:round;stroke-miterlimit:4;stroke-dasharray:none;stroke-opacity:1" id="path3189" d="M 36,18.5 A 12.5,12.5 0 1 1 11,18.5 A 12.5,12.5 0 1 1 36,18.5 z" transform="matrix(1.0796614,0,0,1.0802571,-1.8608262,-0.5049721)"/><path style="fill:none;fill-rule:evenodd;stroke:#000;stroke-width:2;stroke-linecap:round;stroke-linejoin:round;stroke-miterlimit:4;stroke-dasharray:none;stroke-opacity:1" id="path3193" d="M 23,27 L 18,18 C 22,21 25,22 28,19"/><g id="g3207" transform="translate(0,2)"><path id="path3195" d="M 20,33 L 28,32" style="fill:none;fill-rule:evenodd;stroke:#000;stroke-width:4;stroke-linecap:round;stroke-linejoin:miter;stroke-miterlimit:4;stroke-dasharray:none;stroke-opacity:1"/><path style="fill:none;fill-rule:evenodd;stroke:#000;stroke-width:4;stroke-linecap:round;stroke-linejoin:miter;stroke-miterlimit:4;stroke-dasharray:none;stroke-opacity:1" id="path3197" d="M 20,36 L 28,35"/><path id="path3199" d="M 20,39 L 28,38" style="fill:none;fill-rule:evenodd;stroke:#000;stroke-width:4;stroke-linecap:round;stroke-linejoin:miter;stroke-miterlimit:4;stroke-dasharray:none;stroke-opacity:1"/><path style="fill:none;fill-rule:evenodd;stroke:#000;stroke-width:6;stroke-linecap:round;stroke-linejoin:miter;stroke-miterlimit:4;stroke-dasharray:none;stroke-opacity:1" id="path3203" d="M 24,36 L 24,40"/></g></g></svg>