<svg xmlns="http://www.w3.org/2000/svg" xmlns:svg="http://www.w3.org/2000/svg" id="svg23" width="48" height="48" version="1.0" viewBox="0 0 48 48" xml:space="preserve"><metadata id="metadata40"/><g id="Layer_x0020_4" style="fill-rule:nonzero;stroke:#000;stroke-miterlimit:4"><g id="g26"><path style="fill:none;stroke:#fff;stroke-width:6.70900011" id="path28" d="M 7.1,10.6 C 5.8,10.6 4.8,11.6 4.8,12.9 L 4.9,35.2 C 4.9,36.6 5.8,37.5 7.2,37.5 C 7.2,37.5 7.3,37.5 7.3,37.5 L 7.3,37.5 L 34.8,37.5 C 35.9,37.5 36.9,36.9 37.7,35.9 C 38.3,35 39.9,31.4 40.8,29.1 C 42.4,25 43.3,22.4 43.3,21.2 C 43.3,20.9 43.3,20 42.6,19.5 C 42,19 41.2,18.9 40.4,18.9 C 40.4,18.9 38,18.9 36.4,18.9 C 36.4,18.1 36.4,17.2 36.4,17.2 C 36.4,15.9 35.5,15 34.2,15 C 34.2,15 22.6,15 20.2,15 C 20.2,13.9 20.2,12.8 20.2,12.8 C 20.2,11.6 19.2,10.6 17.9,10.6 L 7.1,10.6 L 7.1,10.6 z"/><path style="stroke:none" id="path30" d="M 7.1,10.6 C 5.8,10.6 4.8,11.6 4.8,12.9 L 4.9,35.2 C 4.9,36.6 5.8,37.5 7.2,37.5 C 7.2,37.5 7.3,37.5 7.3,37.5 L 7.3,37.5 L 34.8,37.5 C 35.9,37.5 36.9,36.9 37.7,35.9 C 38.3,35 39.9,31.4 40.8,29.1 C 42.4,25 43.3,22.4 43.3,21.2 C 43.3,20.9 43.3,20 42.6,19.5 C 42,19 41.2,18.9 40.4,18.9 C 40.4,18.9 38,18.9 36.4,18.9 C 36.4,18.1 36.4,17.2 36.4,17.2 C 36.4,15.9 35.5,15 34.2,15 C 34.2,15 22.6,15 20.2,15 C 20.2,13.9 20.2,12.8 20.2,12.8 C 20.2,11.6 19.2,10.6 17.9,10.6 L 7.1,10.6 L 7.1,10.6 z"/><path style="fill:#fff;stroke:none" id="path32" d="M 8.9,35.3 L 34,35.3 C 34.6,35.3 35.2,34.9 35.5,34.4 C 36.2,33.4 40.3,23.8 40.3,21.9 C 40.3,21.5 40.3,21.2 39,21.2 L 14.9,21.2 C 14.5,21.2 14.1,21.3 14,21.9 C 13.9,23.4 10.8,33.7 9.7,35 C 9.4,35.4 8.8,35.4 8.8,35.4 L 8.9,35.3 z"/></g></g><g id="crop_x0020_marks" style="fill-rule:nonzero;stroke:#000;stroke-miterlimit:4"><path style="fill:none;stroke:none" id="path35" d="M 48,48 L 0,48 L 0,0 L 48,0 L 48,48 z"/></g></svg>