<svg xmlns="http://www.w3.org/2000/svg" xmlns:cc="http://web.resource.org/cc/" xmlns:svg="http://www.w3.org/2000/svg" id="svg1358" width="48" height="48" viewBox="0 0 48 48" xml:space="preserve"><metadata id="metadata1375"/><rect style="fill:none;fill-opacity:.75;fill-rule:evenodd;stroke:none;stroke-width:1px;stroke-linecap:butt;stroke-linejoin:miter;stroke-opacity:1" id="rect4762" width="48" height="48" x="0" y="0"/><path id="path9126" d="M 7.0000000,6.0000000 C 5.0000000,6.0000000 4.0000000,7.0000000 4.0000000,9.0000000 L 4.0000000,34.000000 C 4.0000000,36.000000 6.0000000,38.000000 8.0000000,38.000000 L 40.000000,38.000000 C 42.000000,38.000000 44.000000,36.000000 44.000000,34.000000 L 44.000000,16.000000 C 44.000000,14.000000 42.000000,12.000000 40.000000,12.000000 L 22.000000,12.000000 L 22.000000,9.0000000 C 22.000000,7.0000000 21.000000,6.0000000 19.000000,6.0000000 L 7.0000000,6.0000000 z" style="fill-rule:nonzero;stroke:#fff;stroke-width:8;stroke-miterlimit:4;stroke-dasharray:none;fill:#fff;fill-opacity:1;stroke-opacity:1;stroke-linejoin:round;stroke-linecap:round"/><path style="fill-rule:nonzero;stroke:none;stroke-width:7;stroke-miterlimit:4;stroke-dasharray:none;fill:#000;fill-opacity:1" id="path1365" d="M 7.0000000,6.0000000 C 5.0000000,6.0000000 4.0000000,7.0000000 4.0000000,9.0000000 L 4.0000000,34.000000 C 4.0000000,36.000000 6.0000000,38.000000 8.0000000,38.000000 L 40.000000,38.000000 C 42.000000,38.000000 44.000000,36.000000 44.000000,34.000000 L 44.000000,16.000000 C 44.000000,14.000000 42.000000,12.000000 40.000000,12.000000 L 22.000000,12.000000 L 22.000000,9.0000000 C 22.000000,7.0000000 21.000000,6.0000000 19.000000,6.0000000 L 7.0000000,6.0000000 z"/><path id="path3303" d="M 10.000000,10.000000 C 9.0000000,10.000000 8.0000000,11.000000 8.0000000,12.000000 L 8.0000000,32.000000 C 8.0000000,33.000000 9.0000000,34.000000 10.000000,34.000000 L 38.000000,34.000000 C 39.000000,34.000000 40.000000,33.000000 40.000000,32.000000 L 40.000000,18.000000 C 40.000000,17.000000 39.000000,16.000000 38.000000,16.000000 L 19.000000,16.000000 L 19.000000,12.000000 C 19.000000,11.000000 18.000000,10.000000 17.000000,10.000000 L 10.000000,10.000000 z" style="fill-rule:nonzero;stroke:none;stroke-width:7;stroke-miterlimit:4;stroke-dasharray:none;fill:#fff;fill-opacity:1"/></svg>