<svg xmlns="http://www.w3.org/2000/svg" xmlns:svg="http://www.w3.org/2000/svg" id="svg2" width="48" height="48" version="1.0"><metadata id="metadata7"/><rect style="fill:none;fill-opacity:.48780488999999999;stroke:#fff;stroke-width:0;stroke-linecap:round;stroke-linejoin:round;stroke-miterlimit:4;stroke-dasharray:none;stroke-opacity:1" id="rect2382" width="48" height="48" x="0" y="0"/><g id="layer1"><path id="path3157" d="M 7,34.90983 C 7,34.90983 5,34.90983 5,32.90983 L 5,7.9098301 C 5,5.9098301 7,5.9098301 7,5.9098301 L 41,5.9098301 C 41,5.9098301 43,5.9098301 43,7.9098301 L 43,32.90983 C 43,34.90983 41,34.90983 41,34.90983 L 30,34.90983 L 30,40.90983 C 29,42.90983 28,41.90983 27,39.90983 L 22,31.90983 L 27,23.90983 C 28,21.90983 29,20.90983 30,22.90983 L 30,28.90983 L 37,28.90983 L 37,11.90983 L 11,11.90983 L 11,28.90983 L 17,28.90983 L 14,31.90983 L 17,34.90983 L 7,34.90983 z" style="fill:#fff;fill-opacity:1;fill-rule:evenodd;stroke:#fff;stroke-width:10;stroke-linecap:round;stroke-linejoin:round;stroke-miterlimit:4;stroke-dasharray:none;stroke-opacity:1"/><path style="fill:#000;fill-opacity:1;fill-rule:evenodd;stroke:#000;stroke-width:2;stroke-linecap:round;stroke-linejoin:round;stroke-miterlimit:4;stroke-dasharray:none;stroke-opacity:1" id="path2385" d="M 7,34.90983 C 7,34.90983 5,34.90983 5,32.90983 L 5,7.9098301 C 5,5.9098301 7,5.9098301 7,5.9098301 L 41,5.9098301 C 41,5.9098301 43,5.9098301 43,7.9098301 L 43,32.90983 C 43,34.90983 41,34.90983 41,34.90983 L 30,34.90983 L 30,40.90983 C 29,42.90983 28,41.90983 27,39.90983 L 22,31.90983 L 27,23.90983 C 28,21.90983 29,20.90983 30,22.90983 L 30,28.90983 L 37,28.90983 L 37,11.90983 L 11,11.90983 L 11,28.90983 L 17,28.90983 L 14,31.90983 L 17,34.90983 L 7,34.90983 z"/></g></svg>