<svg xmlns="http://www.w3.org/2000/svg" xmlns:svg="http://www.w3.org/2000/svg" id="svg2" width="48" height="48" version="1.0"><metadata id="metadata7"/><rect style="fill:none;fill-opacity:.48780488999999999;stroke:#fff;stroke-width:0;stroke-linecap:round;stroke-linejoin:round;stroke-miterlimit:4;stroke-dasharray:none;stroke-opacity:1" id="rect2382" width="48" height="48" x="0" y="0"/><g id="layer1"><path style="fill:#fff;fill-opacity:1;fill-rule:evenodd;stroke:#fff;stroke-width:10;stroke-linecap:round;stroke-linejoin:round;stroke-miterlimit:4;stroke-dasharray:none;stroke-opacity:1" id="path3199" d="M 5,11 L 5,15 L 14,15 L 25,37 L 35,37 L 35,42 C 36,44 37,43 38,41 L 43,35 L 38,29 C 37,27 36,26 35,28 L 35,33 L 27,33 L 16,11 L 5,11 z"/><g id="g3193"><path style="fill:#fff;fill-opacity:1;fill-rule:evenodd;stroke:#fff;stroke-width:10;stroke-linecap:round;stroke-linejoin:round;stroke-miterlimit:4;stroke-dasharray:none;stroke-opacity:1" id="path3191" d="M 5,37 L 5,33 L 14,33 L 25,11 L 35,11 L 35,6 C 36,4 37,5 38,7 L 43,13 L 38,19 C 37,21 36,22 35,20 L 35,15 L 27,15 L 16,37 L 5,37 z"/><path id="path2385" d="M 5,37 L 5,33 L 14,33 L 25,11 L 35,11 L 35,6 C 36,4 37,5 38,7 L 43,13 L 38,19 C 37,21 36,22 35,20 L 35,15 L 27,15 L 16,37 L 5,37 z" style="fill:#000;fill-opacity:1;fill-rule:evenodd;stroke:#000;stroke-width:2;stroke-linecap:round;stroke-linejoin:round;stroke-miterlimit:4;stroke-dasharray:none;stroke-opacity:1"/></g><path style="fill:#fff;fill-opacity:1;fill-rule:evenodd;stroke:#fff;stroke-width:6;stroke-linecap:round;stroke-linejoin:round;stroke-miterlimit:4;stroke-dasharray:none;stroke-opacity:1" id="path3205" d="M 5,11 L 5,15 L 14,15 L 25,37 L 35,37 L 35,42 C 36,44 37,43 38,41 L 43,35 L 38,29 C 37,27 36,26 35,28 L 35,33 L 27,33 L 16,11 L 5,11 z"/><path id="path3201" d="M 5,11 L 5,15 L 14,15 L 25,37 L 35,37 L 35,42 C 36,44 37,43 38,41 L 43,35 L 38,29 C 37,27 36,26 35,28 L 35,33 L 27,33 L 16,11 L 5,11 z" style="fill:#000;fill-opacity:1;fill-rule:evenodd;stroke:#000;stroke-width:2;stroke-linecap:round;stroke-linejoin:round;stroke-miterlimit:4;stroke-dasharray:none;stroke-opacity:1"/></g></svg>