<svg xmlns="http://www.w3.org/2000/svg" xmlns:cc="http://web.resource.org/cc/" xmlns:svg="http://www.w3.org/2000/svg" id="svg2" width="48" height="48" version="1.0" viewBox="0 0 48 48" xml:space="preserve"><metadata id="metadata33"/><rect style="opacity:1;fill:none;fill-opacity:1;stroke:none;stroke-width:8;stroke-linecap:round;stroke-linejoin:round;stroke-miterlimit:4;stroke-dasharray:none;stroke-opacity:1" id="rect6087" width="48" height="48" x="0" y="0"/><g style="fill:#fff;fill-opacity:1;stroke:none;stroke-opacity:1;stroke-width:8;stroke-miterlimit:4;stroke-dasharray:none;stroke-linejoin:round;stroke-linecap:round" id="g4143"><path style="fill:#fff;fill-rule:evenodd;stroke:none;stroke-width:8;stroke-linecap:round;stroke-linejoin:round;stroke-opacity:1;fill-opacity:1;stroke-miterlimit:4;stroke-dasharray:none" id="path4145" d="M 5,26 L 5,22 L 11,22 C 11,18 13,12 17,11 L 22,11 L 22,37 L 17,37 C 13,36 11,30 11,26 L 5,26 z"/><path id="path4147" d="M 43,26 L 43,22 L 37,22 C 37,18 35,12 31,11 L 26,11 L 26,37 L 31,37 C 35,36 37,30 37,26 L 43,26 z" style="fill:#fff;fill-rule:evenodd;stroke:none;stroke-width:8;stroke-linecap:round;stroke-linejoin:round;stroke-opacity:1;fill-opacity:1;stroke-miterlimit:4;stroke-dasharray:none"/></g><g style="fill:#fff;fill-opacity:1;stroke:#fff;stroke-opacity:1;stroke-linejoin:round;stroke-linecap:round;stroke-width:8;stroke-miterlimit:4;stroke-dasharray:none" id="g7058"><path style="fill:#fff;fill-rule:evenodd;stroke:#fff;stroke-width:8;stroke-linecap:round;stroke-linejoin:round;stroke-opacity:1;fill-opacity:1;stroke-miterlimit:4;stroke-dasharray:none" id="path7060" d="M 5,26 L 5,22 L 11,22 C 11,18 13,12 17,11 L 22,11 L 22,37 L 17,37 C 13,36 11,30 11,26 L 5,26 z"/><path id="path7062" d="M 43,26 L 43,22 L 37,22 C 37,18 35,12 31,11 L 26,11 L 26,37 L 31,37 C 35,36 37,30 37,26 L 43,26 z" style="fill:#fff;fill-rule:evenodd;stroke:#fff;stroke-width:8;stroke-linecap:round;stroke-linejoin:round;stroke-opacity:1;fill-opacity:1;stroke-miterlimit:4;stroke-dasharray:none"/></g><g id="g3170" style="fill:#000;fill-opacity:1"><path id="path2186" d="M 5,26 L 5,22 L 11,22 C 11,18 13,12 17,11 L 22,11 L 22,37 L 17,37 C 13,36 11,30 11,26 L 5,26 z" style="fill:#000;fill-rule:evenodd;stroke:none;stroke-width:1px;stroke-linecap:butt;stroke-linejoin:miter;stroke-opacity:1;fill-opacity:1"/><path style="fill:#000;fill-rule:evenodd;stroke:none;stroke-width:1px;stroke-linecap:butt;stroke-linejoin:miter;stroke-opacity:1;fill-opacity:1" id="path3159" d="M 43,26 L 43,22 L 37,22 C 37,18 35,12 31,11 L 26,11 L 26,37 L 31,37 C 35,36 37,30 37,26 L 43,26 z"/></g></svg>