<svg xmlns="http://www.w3.org/2000/svg" xmlns:cc="http://web.resource.org/cc/" xmlns:svg="http://www.w3.org/2000/svg" id="svg2" width="48" height="48" version="1.0" viewBox="0 0 48 48" xml:space="preserve"><metadata id="metadata29"/><g id="layer1" style="display:inline"><rect style="opacity:1;fill:none;fill-opacity:1;stroke:none;stroke-width:8;stroke-linecap:round;stroke-linejoin:round;stroke-miterlimit:4;stroke-dasharray:none;stroke-opacity:1" id="rect5113" width="48" height="48" x="0" y="0"/><path id="path4142" d="M 5,21 L 13,21 C 14,17 15,10 22,9 L 32,9 L 32,14 L 41,14 C 44,14 44,19 41,19 L 32,19 L 32,28 L 41,28 C 44,28 44,33 41,33 L 32,33 L 32,38 L 22,38 C 15,37 14,31 13,27 L 5,27 L 5,21 z" style="fill:#fff;fill-opacity:1;fill-rule:evenodd;stroke:#fff;stroke-width:8;stroke-linecap:round;stroke-linejoin:round;stroke-opacity:1;stroke-miterlimit:4;stroke-dasharray:none"/><path style="fill:#000;fill-opacity:1;fill-rule:evenodd;stroke:none;stroke-width:1px;stroke-linecap:butt;stroke-linejoin:miter;stroke-opacity:1" id="path2182" d="M 5,21 L 13,21 C 14,17 15,10 22,9 L 32,9 L 32,14 L 41,14 C 44,14 44,19 41,19 L 32,19 L 32,28 L 41,28 C 44,28 44,33 41,33 L 32,33 L 32,38 L 22,38 C 15,37 14,31 13,27 L 5,27 L 5,21 z"/></g></svg>