<svg xmlns="http://www.w3.org/2000/svg" xmlns:svg="http://www.w3.org/2000/svg" id="svg2" width="48" height="48" version="1.0" viewBox="0 0 48 48" xml:space="preserve"><metadata id="metadata31"/><rect id="rect2393" width="48" height="48" x="0" y="0" rx="0" ry="0" style="fill:none;fill-opacity:.75;fill-rule:evenodd;stroke:none;stroke-width:1px;stroke-linecap:butt;stroke-linejoin:miter;stroke-opacity:1"/><g style="fill:#fff;fill-opacity:1;stroke:#fff;stroke-width:8;stroke-miterlimit:4;stroke-dasharray:none;stroke-opacity:1" id="g2395" transform="translate(0, -6)"><path id="path2397" d="M 40.000001,49 C 40.000001,49.4 39.435295,50 39.058825,50 L 8.9411765,50 C 8.5647059,50 8,49.4 8,49 L 8,37 C 8,36.6 8.4705883,36.3 8.8470589,36.3 L 38.870589,36.3 C 39.24706,36.3 40.000001,36.6 40.000001,37 L 40.000001,49 z" style="fill:#fff;fill-opacity:1;fill-rule:nonzero;stroke:#fff;stroke-width:8;stroke-linejoin:round;stroke-miterlimit:4;stroke-dasharray:none;stroke-opacity:1"/><path id="path2399" d="M 44,35 C 44,35.4 43.4,36 43,36 L 5,36 C 4.6,36 4,35.4 4,35 L 4,21 C 4,20.6 4.6,20 5,20 L 43,20 C 43.4,20 44,20.6 44,21 L 44,35 z" style="fill:#fff;fill-opacity:1;fill-rule:nonzero;stroke:#fff;stroke-width:8;stroke-linejoin:round;stroke-miterlimit:4;stroke-dasharray:none;stroke-opacity:1"/><path id="path2401" d="M 12,10 C 9,10 8,12 8,14 L 8,26 L 40,26 L 40,14 C 40,12 39,10 36,10 L 12,10 z" style="fill:#fff;fill-opacity:1;fill-rule:nonzero;stroke:#fff;stroke-width:8;stroke-linejoin:round;stroke-miterlimit:4;stroke-dasharray:none;stroke-opacity:1"/></g><g id="g2403" transform="translate(0, -10)"><path style="fill:#000;fill-rule:nonzero;stroke:none;stroke-width:7.4329;stroke-linejoin:round;stroke-miterlimit:4" id="path2405" d="M 41,42 C 41,42.4 40.4,43 40,43 L 8,43 C 7.6,43 7,42.4 7,42 L 7,40 C 7,39.6 7.5,39.3 7.9,39.3 L 39.8,39.3 C 40.2,39.3 41,39.6 41,40 L 41,42 z"/><path style="fill:#000;fill-rule:nonzero;stroke:none;stroke-width:7.4329;stroke-linejoin:round;stroke-miterlimit:4" id="path2407" d="M 44,39 C 44,39.4 43.4,40 43,40 L 5,40 C 4.6,40 4,39.4 4,39 L 4,25 C 4,24.6 4.6,24 5,24 L 43,24 C 43.4,24 44,24.6 44,25 L 44,39 z"/><path style="fill:#000;fill-rule:nonzero;stroke:none;stroke-width:7.4329;stroke-linejoin:round;stroke-miterlimit:4" id="path2409" d="M 12,14 C 9,14 8,16 8,18 L 8,36 L 40,36 L 40,18 C 40,16 39,14 36,14 L 12,14 z"/><path id="path3187" d="M 12,54 C 9,54 8,52 8,50 L 8,32 L 40,32 L 40,50 C 40,52 39,54 36,54 L 12,54 z" style="fill:#000;fill-rule:nonzero;stroke:none;stroke-width:7.4329;stroke-linejoin:round;stroke-miterlimit:4"/></g><path id="path2411" d="M 36,15 L 12,15 L 12,9 C 12,9 12,8 13,8 L 35,8 C 36,8 36,9 36,9 L 36,15 z" style="fill:#fff;fill-rule:nonzero;stroke:none;stroke-width:7.4329;stroke-linejoin:round;stroke-miterlimit:4"/><path style="fill:#fff;fill-rule:nonzero;stroke:none;stroke-width:7.4329;stroke-linejoin:round;stroke-miterlimit:4" id="path3189" d="M 36,30 L 12,30 L 12,39 C 12,39 12,40 13,40 L 35,40 C 36,40 36,39 36,39 L 36,30 z"/><path id="path2413" d="M 16.6,35 L 31,35" style="fill:none;fill-rule:nonzero;stroke:#000;stroke-width:4;stroke-linejoin:miter;stroke-miterlimit:4;stroke-dasharray:none"/></svg>