<svg xmlns="http://www.w3.org/2000/svg" xmlns:cc="http://web.resource.org/cc/" xmlns:svg="http://www.w3.org/2000/svg" id="svg2160" width="48" height="48"><metadata id="metadata2165"/><g id="layer1"><path style="opacity:1;fill:#000;fill-opacity:1;stroke:#fff;stroke-width:4.52460814;stroke-linecap:round;stroke-linejoin:round;stroke-miterlimit:4;stroke-dasharray:none;stroke-opacity:1" id="path2178" d="M 15.410138,1.0322575 C 15.179956,1.1222272 25.028284,9.0915606 24.781185,9.0870465 C 24.53493,9.0825478 34.610883,1.4777138 34.385276,1.3789075 C 34.158894,1.2797622 35.487544,13.878751 35.31601,13.700834 C 35.145063,13.523525 47.647268,15.27087 47.557605,15.041474 C 47.467636,14.811292 39.498302,24.65962 39.502816,24.412521 C 39.507315,24.166266 47.112149,34.24222 47.210955,34.016612 C 47.310101,33.79023 34.711111,35.11888 34.889029,34.947346 C 35.066338,34.776399 33.318993,47.278604 33.548388,47.188942 C 33.778571,47.098972 23.930243,39.129638 24.177342,39.134153 C 24.423597,39.138651 14.347643,46.743485 14.573251,46.842292 C 14.799633,46.941437 13.470983,34.342448 13.642516,34.520365 C 13.813464,34.697675 1.3112591,32.950329 1.4009213,33.179725 C 1.490891,33.409907 9.4602244,23.561579 9.4557103,23.808678 C 9.4512116,24.054933 1.8463776,13.978979 1.7475712,14.204587 C 1.648426,14.430969 14.247415,13.102319 14.069498,13.273853 C 13.892188,13.4448 15.639534,0.94259532 15.410138,1.0322575 z" transform="matrix(0.820487,0.3319062,-0.3289678,0.8210527,11.846697,-3.8811857)"/><path style="opacity:1;fill:#fff;fill-opacity:1;stroke:#fff;stroke-width:9.92049942;stroke-linecap:round;stroke-linejoin:round;stroke-miterlimit:4;stroke-dasharray:none;stroke-opacity:1" id="path3137" d="M 15.410138,1.0322575 C 17.347379,0.27506185 22.75139,6.5699207 24.831007,6.6079118 C 26.900062,6.64571 32.489697,0.54872687 34.385276,1.3789075 C 36.29053,2.2133257 35.660605,10.485676 37.104253,11.98305 C 38.540568,13.472821 46.804255,13.114072 47.557605,15.041474 C 48.314801,16.978716 42.019942,22.382726 41.981951,24.462343 C 41.944153,26.531398 48.041136,32.121033 47.210955,34.016612 C 46.376537,35.921866 38.104187,35.291942 36.606812,36.735589 C 35.117042,38.171904 35.475791,46.435591 33.548388,47.188942 C 31.611147,47.946137 26.207137,41.651278 24.12752,41.613287 C 22.058465,41.575489 16.46883,47.672472 14.573251,46.842292 C 12.667997,46.007873 13.297921,37.735523 11.854274,36.238149 C 10.417958,34.748378 2.1542715,35.107128 1.4009213,33.179725 C 0.64372564,31.242484 6.9385845,25.838473 6.9765756,23.758856 C 7.0143738,21.689801 0.91739066,16.100166 1.7475712,14.204587 C 2.5819895,12.299333 10.854339,12.929258 12.351714,11.48561 C 13.841485,10.049295 13.482735,1.7856077 15.410138,1.0322575 z" transform="matrix(0.7476211,0.3025799,-0.2997528,0.7485069,12.898357,-1.4538832)"/><path id="path2163" d="M 15.410138,1.0322575 C 17.347379,0.27506185 22.75139,6.5699207 24.831007,6.6079118 C 26.900062,6.64571 32.489697,0.54872687 34.385276,1.3789075 C 36.29053,2.2133257 35.660605,10.485676 37.104253,11.98305 C 38.540568,13.472821 46.804255,13.114072 47.557605,15.041474 C 48.314801,16.978716 42.019942,22.382726 41.981951,24.462343 C 41.944153,26.531398 48.041136,32.121033 47.210955,34.016612 C 46.376537,35.921866 38.104187,35.291942 36.606812,36.735589 C 35.117042,38.171904 35.475791,46.435591 33.548388,47.188942 C 31.611147,47.946137 26.207137,41.651278 24.12752,41.613287 C 22.058465,41.575489 16.46883,47.672472 14.573251,46.842292 C 12.667997,46.007873 13.297921,37.735523 11.854274,36.238149 C 10.417958,34.748378 2.1542715,35.107128 1.4009213,33.179725 C 0.64372564,31.242484 6.9385845,25.838473 6.9765756,23.758856 C 7.0143738,21.689801 0.91739066,16.100166 1.7475712,14.204587 C 2.5819895,12.299333 10.854339,12.929258 12.351714,11.48561 C 13.841485,10.049295 13.482735,1.7856077 15.410138,1.0322575 z" transform="matrix(0.7476211,0.3025799,-0.2997528,0.7485069,12.898357,-1.4538832)" style="opacity:1;fill:#000;fill-opacity:1;stroke:none;stroke-width:4.52460814;stroke-linecap:round;stroke-linejoin:round;stroke-miterlimit:4;stroke-dasharray:none;stroke-opacity:1"/></g></svg>