<svg xmlns="http://www.w3.org/2000/svg" xmlns:svg="http://www.w3.org/2000/svg" id="svg2" width="48" height="48" version="1.0" viewBox="0 0 48 48" xml:space="preserve"><metadata id="metadata23"/><rect style="fill:none;fill-opacity:.24590167;fill-rule:evenodd;stroke:none;stroke-width:1px;stroke-linecap:butt;stroke-linejoin:miter;stroke-opacity:1" id="rect2391" width="48" height="48" x="0" y="0"/><path style="fill-rule:nonzero;stroke:#fff;stroke-width:7.94417095;stroke-linejoin:round;stroke-miterlimit:4;stroke-dasharray:none" id="path7" d="M 23.966759,6.2720857 C 16.216613,6.2720857 9.9380137,9.0865289 9.9380137,12.504067 L 9.9380137,36.828897 C 9.9380137,40.246436 16.216613,43.060879 23.966759,43.060879 C 31.716905,43.060879 37.995505,40.246436 37.995505,36.828897 L 37.995505,12.604583 C 37.995505,9.1870447 31.716905,6.3726016 23.966759,6.3726016 L 23.966759,6.2720857 z"/><path style="fill-rule:nonzero;stroke:#fff;stroke-width:8;stroke-linejoin:round;stroke-miterlimit:4;stroke-dasharray:none" id="path9" d="M 24,4.9 C 15.2,4.9 8,8 8,11.9 L 8,17.7 C 8,21.6 15.2,24.7 24,24.7 C 32.8,24.7 40,21.6 40,17.7 L 40,11.9 C 40,8 32.8,4.9 24,4.9 L 24,4.9 z"/><path style="fill:#000;fill-rule:nonzero;stroke:none;stroke-width:6.48140001;stroke-linejoin:round;stroke-miterlimit:4" id="path11" d="M 24,6.4 C 16.246912,6.4 9.965928,9.2 9.965928,12.6 L 9.965928,36.8 C 9.965928,40.2 16.246912,43 24,43 C 31.753088,43 38.034072,40.2 38.034072,36.8 L 38.034072,12.7 C 38.034072,9.3 31.753088,6.5 24,6.5 L 24,6.4 z"/><path style="fill:#000;fill-rule:nonzero;stroke:none;stroke-width:6.48140001;stroke-linejoin:round;stroke-miterlimit:4" id="path13" d="M 24,5 C 15.2,5 8,8.1 8,12 L 8,17.8 C 8,21.7 15.2,24.8 24,24.8 C 32.8,24.8 40,21.7 40,17.8 L 40,12 C 40,8.1 32.8,5 24,5 z"/><path style="fill:#fff;fill-rule:nonzero;stroke:none;stroke-width:6.48140001;stroke-linejoin:round;stroke-miterlimit:4" id="path15" d="M 35.8,12.1 C 35.8,14.4 30.6,16.2 24.2,16.2 C 17.8,16.2 12.6,14.3 12.6,12.1 C 12.6,9.8 17.8,8 24.2,8 C 30.6,8 35.8,9.9 35.8,12.1 z"/><path style="fill:#000;fill-opacity:1;fill-rule:nonzero;stroke:#fff;stroke-width:3.04136515;stroke-linecap:round;stroke-linejoin:round;stroke-miterlimit:4;stroke-dasharray:none;stroke-dashoffset:0;stroke-opacity:1" id="rect4045" d="M 14.761776,11.774827 L 28.502851,2.3524564 L 34.227075,12.682921 C 29.653959,14.783468 21.250923,16.115826 14.761776,11.774827 z"/></svg>