<svg xmlns="http://www.w3.org/2000/svg" xmlns:svg="http://www.w3.org/2000/svg" id="svg2383" width="48" height="48"><metadata id="metadata2388"/><g id="layer1"><rect style="fill:none;fill-opacity:.52822577999999998;stroke:none;stroke-width:8;stroke-linecap:round;stroke-linejoin:round;stroke-miterlimit:4;stroke-dasharray:none;stroke-opacity:1" id="rect2493" width="48" height="48" x="0" y="0"/><path id="path3849" d="M 17.574597,44 L 44,44 L 44,23.497698 C 39.934553,14.271661 17.574597,17.347007 18.590959,27.598158 C 7.2776288,23.477262 2.3291713,44 17.574597,44 z" style="fill:#fff;fill-opacity:1;fill-rule:evenodd;stroke:#fff;stroke-width:8;stroke-linecap:butt;stroke-linejoin:miter;stroke-opacity:1;stroke-miterlimit:4;stroke-dasharray:none"/><g id="g3785"><path style="opacity:1;fill:#fff;fill-opacity:1;fill-rule:nonzero;stroke:#fff;stroke-width:17.04613686;stroke-linecap:butt;stroke-linejoin:round;stroke-miterlimit:4;stroke-dasharray:none;stroke-dashoffset:0;stroke-opacity:1" id="path3275" d="M 17.114204,9.5545413 C 16.601229,11.460482 15.913969,13.404708 15.913969,15.512804 C 15.91397,23.945186 22.87132,30.780846 31.453817,30.780846 C 33.960349,30.780846 36.326215,29.820468 38.40253,29.167151 C 37.364373,34.92046 30.499785,38.476932 24.062917,38.476932 C 15.480416,38.476932 8.523068,31.64127 8.523068,23.20889 C 8.523068,17.239196 11.410444,10.440485 17.114204,9.5545413 z"/><path style="opacity:1;fill:#000;fill-opacity:1;fill-rule:nonzero;stroke:#000;stroke-width:9;stroke-linecap:round;stroke-linejoin:round;stroke-miterlimit:4;stroke-dasharray:none;stroke-dashoffset:0;stroke-opacity:1" id="path3273" d="M 17.14773,9.551622 C 16.634458,11.458325 15.946801,13.403328 15.946801,15.512267 C 15.946802,23.948022 22.90818,30.786416 31.495644,30.786416 C 34.003627,30.786416 36.370863,29.825654 38.448378,29.172075 C 37.409621,34.927685 30.54106,38.485579 24.100466,38.485579 C 15.512997,38.485579 8.5516221,31.647183 8.5516221,23.211431 C 8.5516221,17.23935 11.440669,10.43792 17.14773,9.551622 z"/><path id="path23408" d="M 17.155081,9.5437498 C 16.6409,11.451491 15.952025,13.397552 15.952025,15.507638 C 15.952026,23.947983 22.925733,30.790099 31.528403,30.790099 C 34.040828,30.790099 36.412257,29.828813 38.493452,29.174879 C 37.452854,34.933622 30.572129,38.493452 24.120129,38.493452 C 15.517453,38.493452 8.5437499,31.651334 8.5437499,23.210991 C 8.5437499,17.235662 11.437913,10.43053 17.155081,9.5437498 z" style="opacity:1;fill:#fff;fill-opacity:1;fill-rule:nonzero;stroke:#fff;stroke-width:3.01309681;stroke-linecap:butt;stroke-linejoin:round;stroke-miterlimit:4;stroke-dasharray:none;stroke-dashoffset:0;stroke-opacity:1"/></g><g id="g3781"><path style="fill:none;fill-opacity:.52822577;stroke:#fff;stroke-width:11.01093483;stroke-linecap:round;stroke-linejoin:round;stroke-miterlimit:4;stroke-dasharray:none;stroke-opacity:1" id="path3279" d="M 12.500534,10.251904 C 11.828542,11.121235 8.938524,8.7151308 7.8838911,9.0234479 C 6.8292582,9.3317649 5.690398,12.915693 4.6559579,12.545229 C 3.6215177,12.174765 5.016794,8.6826674 4.3976676,7.7749272 C 3.7785411,6.8671869 0.018095967,6.8915612 0.050768479,5.7932704 C 0.083440989,4.6949798 3.8357873,4.9428488 4.507779,4.0735174 C 5.1797707,3.204186 3.994548,-0.36467778 5.0491809,-0.67299487 C 6.1038137,-0.98131195 7.027615,2.6639772 8.0620551,3.0344411 C 9.0964953,3.4049051 12.124433,1.1748517 12.743559,2.0825919 C 13.362685,2.9903322 10.18128,4.9953757 10.148607,6.0936664 C 10.115935,7.1919571 13.172526,9.3825721 12.500534,10.251904 z" transform="matrix(1.0180133,0,0,0.9803554,28.445553,6.1778971)"/><path id="path3277" d="M 12.500534,10.251904 C 11.828542,11.121235 8.938524,8.7151308 7.8838911,9.0234479 C 6.8292582,9.3317649 5.690398,12.915693 4.6559579,12.545229 C 3.6215177,12.174765 5.016794,8.6826674 4.3976676,7.7749272 C 3.7785411,6.8671869 0.018095967,6.8915612 0.050768479,5.7932704 C 0.083440989,4.6949798 3.8357873,4.9428488 4.507779,4.0735174 C 5.1797707,3.204186 3.994548,-0.36467778 5.0491809,-0.67299487 C 6.1038137,-0.98131195 7.027615,2.6639772 8.0620551,3.0344411 C 9.0964953,3.4049051 12.124433,1.1748517 12.743559,2.0825919 C 13.362685,2.9903322 10.18128,4.9953757 10.148607,6.0936664 C 10.115935,7.1919571 13.172526,9.3825721 12.500534,10.251904 z" transform="matrix(1.0180133,0,0,0.9803554,28.447043,6.1764074)" style="fill:#000;fill-opacity:1;stroke:#000;stroke-width:3;stroke-linecap:round;stroke-linejoin:round;stroke-miterlimit:4;stroke-dasharray:none;stroke-opacity:1"/></g><path style="fill:#000;fill-opacity:1;fill-rule:evenodd;stroke:none;stroke-width:1px;stroke-linecap:butt;stroke-linejoin:miter;stroke-opacity:1" id="path3247" d="M 17.574597,44 L 44,44 L 44,23.497698 C 39.934553,14.271661 17.574597,17.347007 18.590959,27.598158 C 7.2776288,23.477262 2.3291713,44 17.574597,44 z"/></g></svg>