<svg xmlns="http://www.w3.org/2000/svg" xmlns:svg="http://www.w3.org/2000/svg" id="svg2383" width="48" height="48"><metadata id="metadata2388"/><g id="layer1"><rect style="fill:none;fill-opacity:.47389557999999998;stroke:none;stroke-width:1;stroke-linecap:round;stroke-linejoin:round;stroke-miterlimit:4;stroke-dasharray:none;stroke-opacity:1" id="rect2393" width="48" height="48" x="0" y="0"/><path id="path3183" d="M 24.000001,4 C 25.882368,4.0000001 27.235805,11.269216 28.974885,11.989566 C 30.713966,12.709917 36.811102,8.5268302 38.142136,9.8578648 C 39.47317,11.188899 35.290083,17.286035 36.010434,19.025116 C 36.730785,20.764196 44,22.117634 44,24.000001 C 44,25.882368 36.730784,27.235805 36.010434,28.974885 C 35.290083,30.713966 39.47317,36.811102 38.142135,38.142136 C 36.811101,39.47317 30.713965,35.290083 28.974884,36.010434 C 27.235804,36.730785 25.882366,44 23.999999,44 C 22.117632,44 20.764195,36.730784 19.025115,36.010434 C 17.286034,35.290083 11.188898,39.47317 9.857864,38.142135 C 8.5268295,36.811101 12.709917,30.713965 11.989566,28.974884 C 11.269215,27.235804 3.9999999,25.882366 4,23.999999 C 4.0000001,22.117632 11.269216,20.764195 11.989566,19.025115 C 12.709917,17.286034 8.5268302,11.188898 9.8578648,9.857864 C 11.188899,8.5268295 17.286035,12.709917 19.025116,11.989566 C 20.764196,11.269215 22.117634,3.9999999 24.000001,4 z" style="fill:#fff;fill-opacity:1;stroke:#fff;stroke-width:8;stroke-linecap:round;stroke-linejoin:round;stroke-miterlimit:4;stroke-dasharray:none;stroke-opacity:1"/><path style="fill:#000;fill-opacity:1;stroke:none;stroke-width:1;stroke-linecap:round;stroke-linejoin:round;stroke-miterlimit:4;stroke-dasharray:none;stroke-opacity:1" id="path3175" d="M 38.192772,24 A 14.096386,14 0 1 1 10,24 A 14.096386,14 0 1 1 38.192772,24 z"/><path id="path2387" d="M 18,44 L 44,44 L 44,24 C 40,15 18,18 19,28 C 7.868796,23.980065 3,44 18,44 z" style="fill:#fff;fill-opacity:1;fill-rule:evenodd;stroke:#fff;stroke-width:8;stroke-linecap:round;stroke-linejoin:round;stroke-opacity:1;stroke-miterlimit:4;stroke-dasharray:none"/><path style="fill:#000;fill-opacity:1;stroke:none;stroke-width:1;stroke-linecap:round;stroke-linejoin:round;stroke-miterlimit:4;stroke-dasharray:none;stroke-opacity:1" id="path3181" d="M 24.000001,4 C 25.882368,4.0000001 27.235805,11.269216 28.974885,11.989566 C 30.713966,12.709917 36.811102,8.5268302 38.142136,9.8578648 C 39.47317,11.188899 35.290083,17.286035 36.010434,19.025116 C 36.730785,20.764196 44,22.117634 44,24.000001 C 44,25.882368 36.730784,27.235805 36.010434,28.974885 C 35.290083,30.713966 39.47317,36.811102 38.142135,38.142136 C 36.811101,39.47317 30.713965,35.290083 28.974884,36.010434 C 27.235804,36.730785 25.882366,44 23.999999,44 C 22.117632,44 20.764195,36.730784 19.025115,36.010434 C 17.286034,35.290083 11.188898,39.47317 9.857864,38.142135 C 8.5268295,36.811101 12.709917,30.713965 11.989566,28.974884 C 11.269215,27.235804 3.9999999,25.882366 4,23.999999 C 4.0000001,22.117632 11.269216,20.764195 11.989566,19.025115 C 12.709917,17.286034 8.5268302,11.188898 9.8578648,9.857864 C 11.188899,8.5268295 17.286035,12.709917 19.025116,11.989566 C 20.764196,11.269215 22.117634,3.9999999 24.000001,4 z"/><path style="fill:#fff;fill-opacity:1;stroke:none;stroke-width:8;stroke-linecap:round;stroke-linejoin:round;stroke-miterlimit:4;stroke-dasharray:none;stroke-opacity:1" id="path3187" d="M 35,24 A 11,11 0 1 1 13,24 A 11,11 0 1 1 35,24 z"/><path style="fill:#000;fill-opacity:1;fill-rule:evenodd;stroke:none;stroke-width:1px;stroke-linecap:butt;stroke-linejoin:miter;stroke-opacity:1" id="path3247" d="M 18,44 L 44,44 L 44,24 C 40,15 18,18 19,28 C 7.868796,23.980065 3,44 18,44 z"/></g></svg>