<svg xmlns="http://www.w3.org/2000/svg" xmlns:svg="http://www.w3.org/2000/svg" id="svg2383" width="48" height="48"><metadata id="metadata2388"/><g id="layer1"><rect style="fill:none;fill-opacity:.60805863000000004" id="rect2395" width="48" height="48" x="0" y="0"/><path id="path3253" d="M 11.194548,35 C 16,35 19,35 24,34 C 27,35 33,35 36.285198,35 C 45.694191,35 47.785079,18.454545 35.239753,22 C 38.376085,13.727272 27.921648,8.999999 21.648986,17.272727 C 18.512654,13.727272 10.657589,13.639149 11.703033,21.911877 C 1.2485953,18.366422 1.7855546,35 11.194548,35 z" style="fill:#fff;fill-opacity:1;fill-rule:evenodd;stroke:#fff;stroke-width:8;stroke-linecap:butt;stroke-linejoin:miter;stroke-opacity:1;stroke-miterlimit:4;stroke-dasharray:none"/><path style="fill:#000;fill-opacity:1;fill-rule:evenodd;stroke:none;stroke-width:1px;stroke-linecap:butt;stroke-linejoin:miter;stroke-opacity:1" id="path3247" d="M 11.194548,35 C 16,35 19,35 24,34 C 27,35 33,35 36.285198,35 C 45.694191,35 47.785079,18.454545 35.239753,22 C 38.376085,13.727272 27.921648,8.999999 21.648986,17.272727 C 18.512654,13.727272 10.657589,13.639149 11.703033,21.911877 C 1.2485953,18.366422 1.7855546,35 11.194548,35 z"/><path style="fill:none;fill-rule:evenodd;stroke:#fff;stroke-width:3;stroke-linecap:round;stroke-linejoin:miter;stroke-opacity:1;stroke-miterlimit:4;stroke-dasharray:none" id="path3257" d="M 21,36 C 26,35 29.333333,32.666667 33,31"/></g></svg>