<svg xmlns="http://www.w3.org/2000/svg" xmlns:svg="http://www.w3.org/2000/svg" xmlns:xlink="http://www.w3.org/1999/xlink" id="svg2383" width="48" height="48"><metadata id="metadata2388"/><g id="layer1"><rect style="fill:none;fill-opacity:.48846151999999998" id="rect2395" width="48" height="48" x="0" y="0"/><use id="use3989" width="48" height="48" x="0" y="0" transform="translate(10,0)" xlink:href="#path3987"/><use id="use3991" width="48" height="48" x="0" y="0" transform="translate(20,0)" xlink:href="#path3987"/><use id="use3993" width="48" height="48" x="0" y="0" transform="translate(30,0)" xlink:href="#path3987"/><path id="path3987" d="M 6,40 L 11,28" style="fill:none;fill-rule:evenodd;stroke:#fff;stroke-width:12;stroke-linecap:round;stroke-linejoin:round;stroke-miterlimit:4;stroke-dasharray:none;stroke-opacity:1"/><path id="path3253" d="M 11.194548,26 C 16,26 19,26 24,25 C 27,26 33,26 36.285198,26 C 45.694191,26 47.785079,9.4545448 35.239753,13 C 38.376085,4.7272718 27.921648,-1.1500478e-06 21.648985,8.2727268 C 18.512654,4.7272718 10.657589,4.6391488 11.703033,12.911877 C 1.2485953,9.3664218 1.7855546,26 11.194548,26 z" style="fill:#fff;fill-opacity:1;fill-rule:evenodd;stroke:#fff;stroke-width:8;stroke-linecap:butt;stroke-linejoin:miter;stroke-miterlimit:4;stroke-dasharray:none;stroke-opacity:1"/><path style="fill:#000;fill-opacity:1;fill-rule:evenodd;stroke:none;stroke-width:1px;stroke-linecap:butt;stroke-linejoin:miter;stroke-opacity:1" id="path3247" d="M 11.318905,26 C 16.106141,26 19.094769,26 24.075815,25 C 27.064443,26 33.041698,26 36.314443,26 C 45.687769,26 47.77073,9.4545448 35.272961,13 C 38.397404,4.7272718 27.982597,-1.15e-06 21.733713,8.2727268 C 18.60927,4.7272718 10.783983,4.6391488 11.825463,12.911877 C 1.4106556,9.3664218 1.9455794,26 11.318905,26 z"/><path style="fill:none;fill-rule:evenodd;stroke:#fff;stroke-width:3;stroke-linecap:round;stroke-linejoin:miter;stroke-miterlimit:4;stroke-dasharray:none;stroke-opacity:1" id="path3257" d="M 20.805452,27 C 25.805452,26 29.138785,23.666667 32.805452,22"/><path style="fill:none;fill-rule:evenodd;stroke:#000;stroke-width:4;stroke-linecap:round;stroke-linejoin:round;stroke-miterlimit:4;stroke-dasharray:none;stroke-opacity:1" id="path3979" d="M 6,40 L 12,27"/><use id="use3981" width="48" height="48" x="0" y="0" transform="translate(10,0)" xlink:href="#path3979"/><use id="use3983" width="48" height="48" x="0" y="0" transform="translate(10,0)" xlink:href="#use3981"/><use id="use3985" width="48" height="48" x="0" y="0" transform="translate(10,0)" xlink:href="#use3983"/></g></svg>