<svg xmlns="http://www.w3.org/2000/svg" xmlns:svg="http://www.w3.org/2000/svg" id="svg2383" width="48" height="48"><metadata id="metadata2388"/><g id="layer1"><rect style="fill:none;fill-opacity:.47389557999999998;stroke:none;stroke-width:1;stroke-linecap:round;stroke-linejoin:round;stroke-miterlimit:4;stroke-dasharray:none;stroke-opacity:1" id="rect2393" width="48" height="48" x="0" y="0"/><g id="g3244" transform="translate(-1.0075344,-9.128692e-2)"><path style="fill:#fff;fill-opacity:1;stroke:#fff;stroke-width:7.99999952;stroke-linecap:round;stroke-linejoin:round;stroke-miterlimit:4;stroke-dasharray:none;stroke-opacity:1" id="path3216" d="M 28.06215,28.120174 C 29.85981,26.532481 35.7958,30.265095 38.063599,31.030977 C 40.331398,31.796858 47.368865,32.130262 47.885046,34.476545 C 48.401227,36.822828 41.831219,40.062359 40.031746,41.65577 C 38.232274,43.249182 34.507791,49.142955 32.247313,48.374543 C 29.986834,47.60613 30.459749,40.707726 30.007691,38.357663 C 29.555633,36.0076 26.264491,29.707866 28.06215,28.120174 z" transform="matrix(0.7575988,0.6527206,-0.6527206,0.7575988,13.094765,-35.620553)"/><path style="fill:#fff;fill-opacity:1;stroke:#fff;stroke-width:8;stroke-linecap:round;stroke-linejoin:round;stroke-miterlimit:4;stroke-dasharray:none;stroke-opacity:1" id="path3218" d="M 22.977207,19.5 A 10.477207,11.5 0 1 1 2.0227928,19.5 A 10.477207,11.5 0 1 1 22.977207,19.5 z" transform="matrix(3.3674943e-2,-0.9994328,0.9994328,3.3674943e-2,-3.4033536,36.448987)"/></g><g id="g3240" transform="translate(-1.0075343,-9.1287073e-2)"><path id="path3208" d="M 22.977207,19.5 A 10.477207,11.5 0 1 1 2.0227928,19.5 A 10.477207,11.5 0 1 1 22.977207,19.5 z" transform="matrix(3.3674943e-2,-0.9994328,0.9994328,3.3674943e-2,-3.4033536,36.448987)" style="fill:#000;fill-opacity:1;stroke:none;stroke-width:1;stroke-linecap:round;stroke-linejoin:round;stroke-miterlimit:4;stroke-dasharray:none;stroke-opacity:1"/><path id="path3210" d="M 28.06215,28.120174 C 29.85981,26.532481 35.7958,30.265095 38.063599,31.030977 C 40.331398,31.796858 47.368865,32.130262 47.885046,34.476545 C 48.401227,36.822828 41.831219,40.062359 40.031746,41.65577 C 38.232274,43.249182 34.507791,49.142955 32.247313,48.374543 C 29.986834,47.60613 30.459749,40.707726 30.007691,38.357663 C 29.555633,36.0076 26.264491,29.707866 28.06215,28.120174 z" transform="matrix(0.7575988,0.6527206,-0.6527206,0.7575988,13.094765,-35.620553)" style="fill:#000;fill-opacity:1;stroke:none;stroke-width:1;stroke-linecap:round;stroke-linejoin:round;stroke-miterlimit:4;stroke-dasharray:none;stroke-opacity:1"/></g><g id="g3232" transform="translate(1.1656776e-6,1)"><path id="path3220" d="M 22.977207,19.5 A 10.477207,11.5 0 1 1 2.0227928,19.5 A 10.477207,11.5 0 1 1 22.977207,19.5 z" transform="matrix(2.9292208e-2,-0.8679152,0.8693583,2.9243582e-2,16.683774,44.179037)" style="fill:#fff;fill-opacity:1;stroke:#fff;stroke-width:9.20461369;stroke-linecap:round;stroke-linejoin:round;stroke-miterlimit:4;stroke-dasharray:none;stroke-opacity:1"/><path id="path3230" d="M 28.06215,28.120174 C 29.85981,26.532481 35.7958,30.265095 38.063599,31.030977 C 40.331398,31.796858 47.368865,32.130262 47.885046,34.476545 C 48.401227,36.822828 41.831219,40.062359 40.031746,41.65577 C 38.232274,43.249182 34.507791,49.142955 32.247313,48.374543 C 29.986834,47.60613 30.459749,40.707726 30.007691,38.357663 C 29.555633,36.0076 26.264491,29.707866 28.06215,28.120174 z" transform="matrix(0.6589986,0.5668277,-0.5677702,0.6579046,31.034693,-18.406711)" style="fill:#fff;fill-opacity:1;stroke:#fff;stroke-width:9.20461178;stroke-linecap:round;stroke-linejoin:round;stroke-miterlimit:4;stroke-dasharray:none;stroke-opacity:1"/></g><g id="g3236" transform="translate(-4.8279391e-3,1.0000002)"><path style="fill:#000;fill-opacity:1;stroke:none;stroke-width:1;stroke-linecap:round;stroke-linejoin:round;stroke-miterlimit:4;stroke-dasharray:none;stroke-opacity:1" id="path3212" d="M 22.977207,19.5 A 10.477207,11.5 0 1 1 2.0227928,19.5 A 10.477207,11.5 0 1 1 22.977207,19.5 z" transform="matrix(2.9292208e-2,-0.8679152,0.8693583,2.9243582e-2,16.683774,44.179037)"/><path style="fill:#000;fill-opacity:1;stroke:none;stroke-width:1;stroke-linecap:round;stroke-linejoin:round;stroke-miterlimit:4;stroke-dasharray:none;stroke-opacity:1" id="path3214" d="M 28.06215,28.120174 C 29.85981,26.532481 35.7958,30.265095 38.063599,31.030977 C 40.331398,31.796858 47.368865,32.130262 47.885046,34.476545 C 48.401227,36.822828 41.831219,40.062359 40.031746,41.65577 C 38.232274,43.249182 34.507791,49.142955 32.247313,48.374543 C 29.986834,47.60613 30.459749,40.707726 30.007691,38.357663 C 29.555633,36.0076 26.264491,29.707866 28.06215,28.120174 z" transform="matrix(0.6589986,0.5668277,-0.5677702,0.6579046,31.034693,-18.406711)"/></g><path style="fill:none;fill-rule:evenodd;stroke:#fff;stroke-width:3;stroke-linecap:round;stroke-linejoin:round;stroke-miterlimit:4;stroke-dasharray:none;stroke-opacity:1" id="path3250" d="M 9.5,24.5 C 9.5,24.5 9.5,29.5 14.5,29.5"/><path id="path3252" d="M 28.5,33.5 C 28.5,33.5 28.5,39.5 35.5,39.5" style="fill:none;fill-rule:evenodd;stroke:#fff;stroke-width:3;stroke-linecap:round;stroke-linejoin:round;stroke-miterlimit:4;stroke-dasharray:none;stroke-opacity:1"/></g></svg>