<svg xmlns="http://www.w3.org/2000/svg" xmlns:cc="http://web.resource.org/cc/" xmlns:svg="http://www.w3.org/2000/svg" id="svg1358" width="48" height="48" viewBox="0 0 48 48" xml:space="preserve"><metadata id="metadata1375"/><rect style="fill:none;fill-opacity:.64571428;fill-rule:evenodd;stroke:none;stroke-width:1px;stroke-linecap:butt;stroke-linejoin:miter;stroke-opacity:1" id="rect4762" width="48" height="48" x="0" y="0"/><path id="path5481" d="M 9.0000000,4.0000000 C 7.0000000,4.0000000 6.0000000,5.0000000 6.0000000,7.0000000 L 6.0000000,28.000000 C 6.0000000,30.000000 8.0000000,32.000000 10.000000,32.000000 L 21.000000,32.000000 L 21.000000,39.000000 L 12.000000,39.000000 C 10.000000,41.000000 10.000000,42.000000 12.000000,44.000000 L 34.000000,44.000000 C 36.000000,42.000000 36.000000,41.000000 34.000000,39.000000 L 25.000000,39.000000 L 25.000000,32.000000 L 38.000000,32.000000 C 40.000000,32.000000 42.000000,30.000000 42.000000,28.000000 L 42.000000,14.000000 C 42.000000,12.000000 40.000000,10.000000 38.000000,10.000000 L 24.000000,10.000000 L 24.000000,7.0000000 C 24.000000,5.0000000 23.000000,4.0000000 21.000000,4.0000000 L 9.0000000,4.0000000 z" style="fill:#fff;fill-opacity:1;fill-rule:nonzero;stroke:#fff;stroke-width:8;stroke-miterlimit:4;stroke-dasharray:none;stroke-opacity:1"/><path style="fill:#000;fill-opacity:1;fill-rule:nonzero;stroke:none;stroke-width:7;stroke-miterlimit:4;stroke-dasharray:none" id="path1365" d="M 9,4 C 7,4 6,5 6,7 L 6,28 C 6,30 8,32 10,32 L 21,32 L 21,39 L 12,39 C 10,41 10,42 12,44 L 34,44 C 36,42 36,41 34,39 L 25,39 L 25,32 L 38,32 C 40,32 42,30 42,28 L 42,14 C 42,12 40,10 38,10 L 24,10 L 24,7 C 24,5 23,4 21,4 L 9,4 z"/><path style="fill:none;fill-opacity:.75;fill-rule:evenodd;stroke:#fff;stroke-width:4;stroke-linecap:round;stroke-linejoin:round;stroke-miterlimit:4;stroke-dasharray:none;stroke-opacity:1" id="path1306" d="M 11,12 L 19,12 L 19,16 L 37,16"/></svg>