<svg xmlns="http://www.w3.org/2000/svg" xmlns:cc="http://web.resource.org/cc/" xmlns:svg="http://www.w3.org/2000/svg" id="svg2" width="48" height="48" version="1.0" viewBox="0 0 48 48" xml:space="preserve"><metadata id="metadata23"/><rect style="fill:none;fill-opacity:.44401544;stroke:none;stroke-width:6;stroke-linecap:round;stroke-linejoin:round;stroke-miterlimit:4;stroke-dasharray:none;stroke-opacity:1" id="rect1333" width="48" height="48" x="0" y="0" rx="0" ry=".047"/><path id="path2208" d="M 23,6.5258192 C 15.1,6.5258192 9,9.6 9,13 L 9,37 C 9,40.4 16.1,44 24,44 C 31.9,44 39,41.4 39,38 L 39,13 C 39,9.6 31.9,6.5 24,6.5 L 23,6.5258192 z" style="fill:#fff;fill-rule:nonzero;stroke:#fff;stroke-width:8;stroke-linejoin:round;stroke-miterlimit:4;fill-opacity:1;stroke-opacity:1;stroke-dasharray:none"/><path id="path3083" d="M 24,5 C 15.2,5 7,8.1 7,12 L 7,18 C 7,21.9 15.2,24.8 24,24.8 C 32.8,24.8 41,21.9 41,18 L 41,12 C 41,8.1 32.8,5 24,5 z" style="fill:#fff;fill-rule:nonzero;stroke:#fff;stroke-width:8;stroke-linejoin:round;stroke-miterlimit:4;fill-opacity:1;stroke-opacity:1;stroke-dasharray:none"/><path style="fill:#000;fill-rule:nonzero;stroke:none;stroke-width:6.48140001;stroke-linejoin:round;stroke-miterlimit:4" id="path11" d="M 23,6.5258192 C 15.1,6.5258192 9,9.6 9,13 L 9,37 C 9,40.4 16.1,44 24,44 C 31.9,44 39,41.4 39,38 L 39,13 C 39,9.6 31.9,6.5 24,6.5 L 23,6.5258192 z"/><path style="fill:#000;fill-rule:nonzero;stroke:none;stroke-width:6.48140001;stroke-linejoin:round;stroke-miterlimit:4" id="path13" d="M 24,5 C 15.2,5 7,8.1 7,12 L 7,18 C 7,21.9 15.2,24.8 24,24.8 C 32.8,24.8 41,21.9 41,18 L 41,12 C 41,8.1 32.8,5 24,5 z"/><path style="fill:#fff;fill-rule:nonzero;stroke:none;stroke-width:6.48140001;stroke-linejoin:round;stroke-miterlimit:4" id="path15" d="M 36,13 C 36,15.3 30.4,17 24,17 C 17.6,17 12,15.2 12,13 C 12,10.7 17.6,9 24,9 C 30.4,9 36,10.8 36,13 z"/><g id="crop_x0020_marks" style="fill-rule:nonzero;stroke:#000;stroke-miterlimit:4"><path style="fill:none;stroke:none" id="path18" d="M 48,48 L 0,48 L 0,0 L 48,0 L 48,48 z"/></g></svg>