<svg xmlns="http://www.w3.org/2000/svg" xmlns:cc="http://web.resource.org/cc/" xmlns:svg="http://www.w3.org/2000/svg" id="svg1358" width="48" height="48" version="1.0" viewBox="0 0 48 48" xml:space="preserve"><metadata id="metadata1375"/><g id="g7237" transform="matrix(0.835125,0,0,0.975526,3.952545,-4.537321)" style="fill:none;fill-rule:nonzero;stroke:#fff;stroke-width:8.53124809;stroke-miterlimit:4;stroke-dasharray:none;stroke-opacity:1"><path style="fill:none;stroke:#fff;stroke-width:8.53124809;stroke-miterlimit:4;stroke-dasharray:none;stroke-opacity:1" id="path7239" d="M 3.489276,9.6303633 C 2.0232151,9.6303633 1.0756011,9.9884698 1.0756011,11.69595 L 1.0756011,46.81092 C 1.1734787,47.954354 2.2863539,48.876507 3.489276,48.876507 L 44.750402,48.857955 C 45.953324,48.857955 46.935425,48.21193 46.935425,46.81092 L 46.935425,11.69595 C 46.935425,10.29494 45.724672,9.6303633 44.52175,9.6303633 L 3.489276,9.6303633 z"/></g><g style="fill-rule:nonzero;stroke:#000;stroke-width:7;stroke-miterlimit:4;stroke-dasharray:none" id="g1361" transform="matrix(0.828612,0,0,0.968248,4.108744,-4.32458)"><path id="path1365" d="M 3.489276,9.6303633 C 2.2824386,9.6303633 1.0756011,10.663157 1.0756011,11.69595 L 1.0756011,46.81092 C 1.1734787,47.954354 2.2863539,48.876507 3.489276,48.876507 L 44.750402,48.857955 C 45.953324,48.857955 46.935425,47.843714 46.935425,46.81092 L 46.935425,11.69595 C 46.935425,10.663157 45.724672,9.6303633 44.52175,9.6303633 L 3.489276,9.6303633 z" style="stroke:none;stroke-width:7;stroke-miterlimit:4;stroke-dasharray:none"/></g><g id="crop_x0020_marks" style="fill-rule:nonzero;stroke:#000;stroke-miterlimit:4"><path style="fill:none;stroke:none" id="path1370" d="M 48,48 L 0,48 L 0,0 L 48,0 L 48,48 z"/></g><rect style="fill:#fffffe;fill-opacity:1;fill-rule:nonzero;stroke:none;stroke-width:8.75;stroke-linecap:round;stroke-linejoin:round;stroke-miterlimit:4;stroke-dasharray:none;stroke-dashoffset:0;stroke-opacity:1" id="rect5771" width="20.868" height="14.202" x="9" y="24" rx="1.064" ry="1.25"/><rect style="fill:#000;fill-opacity:1;fill-rule:nonzero;stroke:none;stroke-width:8.75;stroke-linecap:round;stroke-linejoin:round;stroke-miterlimit:4;stroke-dasharray:none;stroke-dashoffset:0;stroke-opacity:1" id="rect6499" width="15" height="4" x="12" y="26" rx=".01" ry=".012"/><rect id="rect7987" width="15.868" height="11" x="23.132" y="9" rx="1.064" ry="1.25" style="fill:#fffffe;fill-opacity:1;fill-rule:nonzero;stroke:none;stroke-width:8.75;stroke-linecap:round;stroke-linejoin:round;stroke-miterlimit:4;stroke-dasharray:none;stroke-dashoffset:0;stroke-opacity:1"/><rect id="rect7989" width="10" height="3.798" x="26" y="11" rx=".01" ry=".012" style="fill:#000;fill-opacity:1;fill-rule:nonzero;stroke:none;stroke-width:8.75;stroke-linecap:round;stroke-linejoin:round;stroke-miterlimit:4;stroke-dasharray:none;stroke-dashoffset:0;stroke-opacity:1"/></svg>