<svg xmlns="http://www.w3.org/2000/svg" xmlns:svg="http://www.w3.org/2000/svg" id="svg2387" width="48" height="48"><metadata id="metadata2392"/><g id="layer1"><rect style="fill:none;fill-opacity:.44247787999999999;stroke:none;stroke-width:12;stroke-linecap:round;stroke-linejoin:round;stroke-miterlimit:4;stroke-dasharray:none;stroke-opacity:1" id="rect2387" width="48" height="48" x="0" y="0" rx="0" ry="0"/><rect id="rect2394" width="20" height="30" x="14" y="4" rx="10" ry="8.913" style="fill:#fff;fill-opacity:1;stroke:#fff;stroke-width:8;stroke-linecap:round;stroke-linejoin:round;stroke-miterlimit:4;stroke-dasharray:none;stroke-opacity:1"/><path id="path3161" d="M 9,14 L 9,23 C 9,23 7.9687805,38 24,38 C 40,38 39,23 39,23 L 39,14" style="fill:none;fill-rule:evenodd;stroke:#fff;stroke-width:12;stroke-linecap:round;stroke-linejoin:round;stroke-opacity:1;stroke-miterlimit:4;stroke-dasharray:none"/><rect style="fill:#000;fill-opacity:1;stroke:none;stroke-width:6;stroke-linecap:round;stroke-linejoin:round;stroke-miterlimit:4;stroke-dasharray:none;stroke-opacity:1" id="rect2399" width="20" height="30" x="14" y="4" rx="10" ry="8.913"/><path style="fill:#fff;fill-opacity:1;stroke:none;stroke-width:6;stroke-linecap:round;stroke-linejoin:round;stroke-miterlimit:4;stroke-opacity:1" id="rect2401" d="M 23,7 L 25,7 C 28.878,7 31.000001,10.8045 31.000001,14.288116 L 31,21 L 16.999999,21 L 17,14.288116 C 17,10.8045 19.122,7 23,7 z"/><path id="path3168" d="M 10,42 L 39,42" style="fill:none;fill-rule:evenodd;stroke:#fff;stroke-width:12;stroke-linecap:round;stroke-linejoin:miter;stroke-opacity:1;stroke-miterlimit:4;stroke-dasharray:none"/><path style="fill:none;fill-rule:evenodd;stroke:#000;stroke-width:4;stroke-linecap:round;stroke-linejoin:miter;stroke-opacity:1;stroke-miterlimit:4;stroke-dasharray:none" id="path3174" d="M 10,42 L 39,42"/><path style="fill:none;fill-rule:evenodd;stroke:#000;stroke-width:4;stroke-linecap:round;stroke-linejoin:round;stroke-opacity:1;stroke-miterlimit:4;stroke-dasharray:none" id="path3159" d="M 9,14 L 9,23 C 9,23 7.9687805,38 24,38 C 40,38 39,23 39,23 L 39,14"/><rect style="fill:#000;fill-opacity:1;stroke:none;stroke-width:12;stroke-linecap:round;stroke-linejoin:round;stroke-miterlimit:4;stroke-dasharray:none;stroke-opacity:1" id="rect3163" width="6.222" height="3.225" x="20.778" y="37.775"/></g></svg>