<svg xmlns="http://www.w3.org/2000/svg" xmlns:cc="http://web.resource.org/cc/" xmlns:svg="http://www.w3.org/2000/svg" id="svg3304" width="48" height="48"><metadata id="metadata3309"/><g id="layer1"><path style="opacity:1;fill:none;fill-opacity:1;stroke:#fff;stroke-width:4.00000048;stroke-linecap:round;stroke-linejoin:miter;stroke-miterlimit:4;stroke-dasharray:none;stroke-dashoffset:0;stroke-opacity:1" id="rect7943" d="M 20.28125,2.0000002 C 17.352748,2.0000002 15,4.3527485 15,7.2812502 L 15,8.0000002 L 13.15625,8.0000002 C 9.7507553,8.0000002 7,10.750759 7,14.15625 L 7,39.84375 C 7,43.24924 9.7507558,46 13.15625,46 L 33.84375,46 C 37.249245,46 39.999999,43.24924 40,39.84375 L 40,14.15625 C 40,10.75076 37.249243,8.0000002 33.84375,8.0000002 L 32,8.0000002 L 32,7.2812502 C 32,4.3527485 29.647252,2.0000002 26.71875,2.0000002 L 20.28125,2.0000002 z"/><rect style="opacity:1;fill:#000;fill-opacity:1;stroke:#000;stroke-width:2.99999785;stroke-linecap:round;stroke-linejoin:miter;stroke-miterlimit:4;stroke-dasharray:none;stroke-dashoffset:0;stroke-opacity:1" id="rect5744" width="26" height="31" x="10.5" y="11.5" rx="1.5" ry="1.5"/><rect style="opacity:1;fill:#fff;fill-opacity:1;stroke:#000;stroke-width:3.00000095;stroke-linecap:round;stroke-linejoin:miter;stroke-miterlimit:4;stroke-dasharray:none;stroke-dashoffset:0;stroke-opacity:1" id="rect6634" width="10" height="6" x="18.5" y="5.5" rx="1.5" ry="1.5"/><rect style="fill:#fff;fill-opacity:1;fill-rule:evenodd;stroke:none;stroke-width:1px;stroke-linecap:butt;stroke-linejoin:miter;stroke-opacity:1" id="rect2758" width="21.267" height="26.209" x="13" y="14" rx="1.5" ry="1.5"/><path style="fill:#000;fill-opacity:1;fill-rule:evenodd;stroke:none;stroke-width:.99999857;stroke-linecap:round;stroke-linejoin:miter;stroke-miterlimit:4;stroke-dasharray:none;stroke-opacity:1" id="path4046" d="M 30,18.031528 L 25.579581,23.421071 L 29.370621,26.765348 L 20.096792,37 L 21.156922,28.014053 L 17,24.902844 L 20.880632,18 L 30,18.031528 z"/></g></svg>