<svg xmlns="http://www.w3.org/2000/svg" xmlns:cc="http://web.resource.org/cc/" xmlns:svg="http://www.w3.org/2000/svg" id="svg2" width="48" height="48"><metadata id="metadata7"/><rect style="fill:none;fill-opacity:.75;fill-rule:evenodd;stroke:none;stroke-width:1px;stroke-linecap:butt;stroke-linejoin:miter;stroke-opacity:1" id="rect9880" width="48" height="48" x="0" y="0" ry="0"/><path id="path9152" d="M 5.9528794,12.057592 L 15.005235,12.057592 L 17.005235,7.0575914 L 31.005235,7.0575914 L 33.005235,12.057592 L 42.057591,12.057592 C 43.136586,12.057592 44.005235,12.926241 44.005235,14.005236 L 44.109947,38.057592 C 44.109947,39.136587 43.241298,40.005236 42.162303,40.005236 L 6.0575914,40.005236 C 4.9785966,40.005236 4.1099474,39.136587 4.1099474,38.057592 L 4.0052354,14.005236 C 4.0052354,12.926241 4.8738846,12.057592 5.9528794,12.057592 z" style="fill:#fff;fill-opacity:1;fill-rule:evenodd;stroke:#fff;stroke-width:8;stroke-linecap:butt;stroke-linejoin:miter;stroke-miterlimit:4;stroke-dasharray:none;stroke-opacity:1"/><path style="fill:#000;fill-opacity:1;fill-rule:evenodd;stroke:none;stroke-width:1px;stroke-linecap:butt;stroke-linejoin:miter;stroke-opacity:1" id="rect8423" d="M 5.9528794,12.057592 L 15.005235,12.057592 L 17.005235,7.0575914 L 31.005235,7.0575914 L 33.005235,12.057592 L 42.057591,12.057592 C 43.136586,12.057592 44.005235,12.926241 44.005235,14.005236 L 44.109947,38.057592 C 44.109947,39.136587 43.241298,40.005236 42.162303,40.005236 L 6.0575914,40.005236 C 4.9785966,40.005236 4.1099474,39.136587 4.1099474,38.057592 L 4.0052354,14.005236 C 4.0052354,12.926241 4.8738846,12.057592 5.9528794,12.057592 z"/><path style="fill:#fff;fill-opacity:1;fill-rule:evenodd;stroke:none;stroke-width:4;stroke-linecap:butt;stroke-linejoin:miter;stroke-miterlimit:4;stroke-dasharray:none;stroke-opacity:1" id="path12070" d="M 24.057591,16.005236 C 18.579466,16.005236 14.114410,20.509357 14.114410,26.005236 C 14.114410,31.501115 18.579465,36.005237 24.057591,36.005236 C 29.535717,36.005235 34.000772,31.501115 34.000772,26.005236 C 34.000772,20.509357 29.535716,16.005236 24.057591,16.005236 z M 24.057591,20.914327 C 26.855032,20.914327 29.103046,23.171553 29.103046,26.005236 C 29.103045,28.838919 26.855032,31.096145 24.057591,31.096145 C 21.260151,31.096146 19.012136,28.838919 19.012136,26.005236 C 19.012136,23.171553 21.260150,20.914327 24.057591,20.914327 z"/></svg>