<svg xmlns="http://www.w3.org/2000/svg" xmlns:svg="http://www.w3.org/2000/svg" id="svg3304" width="48" height="48"><defs id="defs3306"><linearGradient id="linearGradient5833"><stop style="stop-color:#afafb2;stop-opacity:1" id="stop5835" offset="0"/><stop style="stop-color:#8e8e93;stop-opacity:1" id="stop5837" offset="1"/></linearGradient><linearGradient id="linearGradient5541"><stop style="stop-color:#3b5a7a;stop-opacity:1" id="stop5543" offset="0"/><stop style="stop-color:#4e77a1;stop-opacity:1" id="stop5545" offset="1"/></linearGradient><linearGradient id="linearGradient4807"><stop style="stop-color:#527da8;stop-opacity:1" id="stop4809" offset="0"/><stop style="stop-color:#7e9fc1;stop-opacity:1" id="stop4811" offset="1"/></linearGradient><linearGradient id="linearGradient13580"><stop style="stop-color:#fff;stop-opacity:1" id="stop13582" offset="0"/><stop style="stop-color:#fff;stop-opacity:0" id="stop13584" offset="1"/></linearGradient><linearGradient id="linearGradient7022"><stop style="stop-color:#f7f7f9;stop-opacity:1" id="stop7024" offset="0"/><stop style="stop-color:#f4f4f6;stop-opacity:1" id="stop7026" offset="1"/></linearGradient><linearGradient id="linearGradient11400"><stop style="stop-color:#000;stop-opacity:1" id="stop11402" offset="0"/><stop style="stop-color:#000;stop-opacity:0" id="stop11404" offset="1"/></linearGradient><linearGradient id="linearGradient14318"><stop style="stop-color:#000;stop-opacity:1" id="stop14320" offset="0"/><stop style="stop-color:#000;stop-opacity:0" id="stop14322" offset="1"/></linearGradient></defs><metadata id="metadata3309"/><g id="layer1"><rect style="fill:none;fill-opacity:.46902653999999999;fill-rule:evenodd;stroke:none;stroke-width:1px;stroke-linecap:butt;stroke-linejoin:miter;stroke-opacity:1" id="rect5087" width="48" height="48" x="0" y="0"/><path id="path3219" d="M 9,42 L 39,42 C 39,42 37.019634,31 24,31 C 10.980365,31 9,42 9,42 z" style="fill:#fff;fill-rule:evenodd;stroke:#fff;stroke-width:12;stroke-linecap:round;stroke-linejoin:round;stroke-miterlimit:4;stroke-dasharray:none;stroke-opacity:1;fill-opacity:1"/><rect style="fill:none;fill-opacity:.75;fill-rule:evenodd;stroke:none;stroke-width:1px;stroke-linecap:butt;stroke-linejoin:miter;stroke-opacity:1" id="rect4784" width="48" height="48" x="0" y="0"/><path style="fill:#fff;fill-opacity:1;fill-rule:evenodd;stroke:#fff;stroke-width:8;stroke-linecap:round;stroke-linejoin:round;stroke-miterlimit:4;stroke-dasharray:none;stroke-opacity:1" id="path3180" d="M 8,4 L 40,4 C 42.025119,4 44,5.8015137 44,8 L 44,30 L 4,30 L 4,8 C 4,6.2261741 6.1635925,4 8,4 z"/><path id="path2175" d="M 8,4 L 40,4 C 42.025119,4 44,5.8015137 44,8 L 44,30 L 4,30 L 4,8 C 4,6.2261741 6.1635925,4 8,4 z" style="fill:#000;fill-opacity:1;fill-rule:evenodd;stroke:none;stroke-width:3;stroke-linecap:round;stroke-linejoin:round;stroke-miterlimit:4;stroke-dasharray:none;stroke-opacity:1"/><rect style="fill:#fff;fill-opacity:1;fill-rule:evenodd;stroke:none;stroke-width:1px;stroke-linecap:butt;stroke-linejoin:miter;stroke-opacity:1" id="rect4355" width="32" height="18" x="8" y="8"/><path style="fill:none;fill-rule:evenodd;stroke:#000;stroke-width:4;stroke-linecap:round;stroke-linejoin:round;stroke-miterlimit:4;stroke-dasharray:none;stroke-opacity:1" id="path3217" d="M 9,42 L 39,42 C 39,42 37.019634,31 24,31 C 10.980365,31 9,42 9,42 z"/></g></svg>