<svg xmlns="http://www.w3.org/2000/svg" xmlns:cc="http://web.resource.org/cc/" xmlns:svg="http://www.w3.org/2000/svg" id="svg2" width="48" height="48"><metadata id="metadata7"/><g id="layer1"><rect style="fill:none;fill-opacity:.75;fill-rule:evenodd;stroke:none;stroke-width:1px;stroke-linecap:butt;stroke-linejoin:miter;stroke-opacity:1" id="rect6226" width="48" height="48" x="0" y="0" rx="0" ry="0"/><path id="path4040" d="M 9.0000000,10.000000 L 39.000000,10.000000 C 41.742927,10.000000 44.000000,12.257073 44.000000,15.000000 L 44.000000,33.000000 C 44.000000,35.742927 41.742927,38.000000 39.000000,38.000000 L 9.0000000,38.000000 C 6.2570730,38.000000 4.0000000,35.742927 4.0000000,33.000000 L 4.0000000,15.000000 C 4.0000000,12.257073 6.2570730,10.000000 9.0000000,10.000000 z" style="fill:#fff;fill-opacity:1;fill-rule:evenodd;stroke:#fff;stroke-width:8;stroke-linecap:butt;stroke-linejoin:miter;stroke-opacity:1;stroke-miterlimit:4;stroke-dasharray:none"/><path style="fill:#000;fill-opacity:1;fill-rule:evenodd;stroke:none;stroke-width:1px;stroke-linecap:butt;stroke-linejoin:miter;stroke-opacity:1" id="rect3311" d="M 9.0000000,10.000000 L 39.000000,10.000000 C 41.742927,10.000000 44.000000,12.257073 44.000000,15.000000 L 44.000000,33.000000 C 44.000000,35.742927 41.742927,38.000000 39.000000,38.000000 L 9.0000000,38.000000 C 6.2570730,38.000000 4.0000000,35.742927 4.0000000,33.000000 L 4.0000000,15.000000 C 4.0000000,12.257073 6.2570730,10.000000 9.0000000,10.000000 z"/><path id="path4768" d="M 11.000000,14.000000 L 37.000000,14.000000 C 39.000000,14.000000 40.000000,15.000000 40.000000,17.000000 L 40.000000,31.000000 C 40.000000,33.000000 39.000000,34.000000 37.000000,34.000000 L 11.000000,34.000000 C 9.0000000,34.000000 8.0000000,33.000000 8.0000000,31.000000 L 8.0000000,17.000000 C 8.0000000,15.000000 9.0000000,14.000000 11.000000,14.000000 z" style="fill:#fff;fill-opacity:1;fill-rule:evenodd;stroke:none;stroke-width:1px;stroke-linecap:butt;stroke-linejoin:miter;stroke-opacity:1"/><rect style="fill:#000;fill-opacity:1;fill-rule:evenodd;stroke:none;stroke-width:1px;stroke-linecap:butt;stroke-linejoin:miter;stroke-opacity:1" id="rect5498" width="24" height="6" x="12" y="18" rx="2" ry="2"/></g></svg>