<svg xmlns="http://www.w3.org/2000/svg" xmlns:cc="http://web.resource.org/cc/" xmlns:svg="http://www.w3.org/2000/svg" id="svg5498" width="48" height="48"><metadata id="metadata5503"/><g id="layer1" style="display:none"><path style="fill:#000;fill-opacity:1;fill-rule:evenodd;stroke:none;stroke-width:1px;stroke-linecap:butt;stroke-linejoin:miter;stroke-opacity:1" id="path5587" d="M 37.173913 21.717392 A 13.532609 11.673913 0 1 1 10.108695,21.717392 A 13.532609 11.673913 0 1 1 37.173913 21.717392 z"/><path id="path6474" d="M 37.173913 21.717392 A 13.532609 11.673913 0 1 1 10.108695,21.717392 A 13.532609 11.673913 0 1 1 37.173913 21.717392 z" transform="translate(0,11.6087)" style="fill:#000;fill-opacity:1;fill-rule:evenodd;stroke:none;stroke-width:1px;stroke-linecap:butt;stroke-linejoin:miter;stroke-opacity:1"/><rect style="fill:#000;fill-opacity:1;fill-rule:evenodd;stroke:none;stroke-width:1px;stroke-linecap:butt;stroke-linejoin:miter;stroke-opacity:1" id="rect6476" width="27.174" height="12.043" x="10" y="22" rx="0" ry="0"/><path style="fill:#fff;fill-opacity:1;fill-rule:evenodd;stroke:none;stroke-width:1px;stroke-linecap:butt;stroke-linejoin:miter;stroke-opacity:1" id="path7363" d="M 14.347826,22.043478 A 8.73913,8.73913 0 0 1 23.086956,13.304348 L 23.086956,22.043478 z" transform="translate(-1.086956,0)"/><path id="path8250" d="M 14.347826,22.043478 A 8.73913,8.73913 0 0 1 23.086956,13.304348 L 23.086956,22.043478 z" transform="matrix(-1,0,0,1,48.34783,0)" style="fill:#fff;fill-opacity:1;fill-rule:evenodd;stroke:none;stroke-width:1px;stroke-linecap:butt;stroke-linejoin:miter;stroke-opacity:1"/><path style="fill:#fff;fill-opacity:1;fill-rule:evenodd;stroke:none;stroke-width:1px;stroke-linecap:butt;stroke-linejoin:miter;stroke-opacity:1" id="path8252" d="M 13,24 L 34,24 L 34,34 C 34,34 33.863828,41 24,41 C 14.055145,41 13,34 13,34 L 13,24"/></g><g id="layer2" style="display:inline"><path id="path4555" d="M 24.043478,4.0543481 C 10.065065,4.0543481 10.043478,15.054348 10.043478,15.054348 L 10.043478,33.054348 C 10.043478,33.054348 9.8899483,44 24,44 C 37.980695,44 38.043478,33.054348 38.043478,33.054348 L 38.043478,15.054348 C 38.043478,15.054348 38.152324,4.0543481 24.043478,4.0543481 z" style="fill:#fff;fill-opacity:1;fill-rule:evenodd;stroke:#fff;stroke-width:8;stroke-linecap:butt;stroke-linejoin:miter;stroke-opacity:1;stroke-miterlimit:4;stroke-dasharray:none"/><path style="fill:#000;fill-opacity:1;fill-rule:evenodd;stroke:none;stroke-width:1px;stroke-linecap:butt;stroke-linejoin:miter;stroke-opacity:1" id="path1875" d="M 24.043478,4.0543481 C 10.065065,4.0543481 10.043478,15.054348 10.043478,15.054348 L 10.043478,33.054348 C 10.043478,33.054348 9.8899483,44 24,44 C 37.980695,44 38.043478,33.054348 38.043478,33.054348 L 38.043478,15.054348 C 38.043478,15.054348 38.152324,4.0543481 24.043478,4.0543481 z"/><path style="fill:#fff;fill-opacity:1;fill-rule:evenodd;stroke:none;stroke-width:1px;stroke-linecap:butt;stroke-linejoin:miter;stroke-opacity:1" id="path3663" d="M 14.36957,15.978261 C 14.36957,10.978261 17.36957,6.978261 22.36957,6.978261 L 22.36957,15.978261 L 14.36957,15.978261 z" transform="matrix(-1,0,0,1,48.36957,1.021739)"/><path style="fill:#fff;fill-opacity:1;fill-rule:evenodd;stroke:none;stroke-width:1px;stroke-linecap:butt;stroke-linejoin:miter;stroke-opacity:1" id="path3665" d="M 14,21 L 34,21 L 34,32 C 34,32 34.980004,40 24,40 C 13.085203,40 14,32 14,32 L 14,21 z"/><path id="path4553" d="M 14,17 C 14,12 17,8 22,8 L 22,17 L 14,17 z" style="fill:#fff;fill-opacity:1;fill-rule:evenodd;stroke:none;stroke-width:1px;stroke-linecap:butt;stroke-linejoin:miter;stroke-opacity:1"/></g></svg>