<svg xmlns="http://www.w3.org/2000/svg" xmlns:cc="http://web.resource.org/cc/" xmlns:svg="http://www.w3.org/2000/svg" id="svg2" width="48" height="48" version="1.0" viewBox="0 0 48 48" xml:space="preserve"><metadata id="metadata25"/><g id="g1311" transform="matrix(1,0,0,-1,0,47)"><path style="fill:none;fill-rule:nonzero;stroke:#fff;stroke-width:14;stroke-linecap:round;stroke-linejoin:round;stroke-miterlimit:4;stroke-dasharray:none;stroke-opacity:1" id="path4837" d="M 40,39 L 12,39 L 8,35 L 8,8 L 40,8 L 40,39 z"/><path id="path9" d="M 40,39 L 12,39 L 8,35 L 8,8 L 40,8 L 40,39 z" style="fill:none;fill-rule:nonzero;stroke:#000;stroke-width:6;stroke-linecap:round;stroke-linejoin:round;stroke-miterlimit:4;stroke-dasharray:none"/><path id="path11" d="M 39.8,38.7 L 12,38.7 L 8.2,34.9 L 8.2,8.8 L 39.8,8.8 L 39.8,38.7 z" style="fill-rule:nonzero;stroke:none;stroke-miterlimit:4"/><path id="path13" d="M 33,37 C 33,38.1 32.1,39 31,39 L 14,39 C 12.9,39 12,38.1 12,37 L 12,28 C 12,26.9 12.9,26 14,26 L 31,26 C 32.1,26 33,26.9 33,28 L 33,37 z" style="fill:#fff;fill-rule:nonzero;stroke:none;stroke-width:1.67390001;stroke-miterlimit:4"/><path id="path15" d="M 21,37 L 15,37 L 15,28 L 21,28 L 21,37 z" style="fill-rule:nonzero;stroke:none;stroke-miterlimit:4"/><path id="path17" d="M 38,22 L 10,22 L 10,9 L 38,9 L 38,22 z" style="fill:#fff;fill-rule:nonzero;stroke:none;stroke-width:1.67390001;stroke-miterlimit:4"/></g><g id="crop_x0020_marks" style="fill-rule:nonzero;stroke:#000;stroke-miterlimit:4"><path style="fill:none;stroke:none" id="path20" d="M 48,48 L 0,48 L 0,0 L 48,0 L 48,48 z"/></g></svg>