<svg xmlns="http://www.w3.org/2000/svg" xmlns:cc="http://web.resource.org/cc/" xmlns:svg="http://www.w3.org/2000/svg" id="svg3304" width="48" height="48"><metadata id="metadata3309"/><rect style="opacity:1;fill:none;fill-opacity:1;stroke:none;stroke-width:8;stroke-linecap:round;stroke-linejoin:round;stroke-miterlimit:4;stroke-dasharray:none;stroke-opacity:1" id="rect2171" width="48" height="48.4" x="0" y="0"/><g id="layer1"><g id="g4956" transform="translate(0.142857,0.1428571)"><rect style="opacity:1;fill:#fff;fill-opacity:1;stroke:none;stroke-width:2;stroke-linecap:butt;stroke-linejoin:miter;stroke-miterlimit:4;stroke-dasharray:none;stroke-dashoffset:0;stroke-opacity:1" id="rect5576" width="14.047" height="12.995" x="26.857" y="-.138" rx="2.701" ry="2.98"/><rect id="rect6226" width="48" height="48" x="0" y="0" rx="0" ry="0" style="fill:none;fill-opacity:.75;fill-rule:evenodd;stroke:none;stroke-width:1px;stroke-linecap:butt;stroke-linejoin:miter;stroke-opacity:1"/><path style="fill:#fff;fill-opacity:1;fill-rule:evenodd;stroke:none;stroke-width:1px;stroke-linecap:butt;stroke-linejoin:miter;stroke-opacity:1" id="path4768" d="M 11,14 L 37,14 C 39,14 40,15 40,17 L 40,31 C 40,33 39,34 37,34 L 11,34 C 9,34 8,33 8,31 L 8,17 C 8,15 9,14 11,14 z"/><rect style="opacity:1;fill:#fff;fill-opacity:1;stroke:none;stroke-width:1;stroke-linecap:butt;stroke-linejoin:miter;stroke-miterlimit:4;stroke-dasharray:1,4;stroke-dashoffset:0;stroke-opacity:1" id="rect4965" width="34" height="42.931" x="6.857" y="4.926" rx="3.491" ry="3.745"/><rect style="opacity:1;fill:#000;fill-opacity:1;stroke:none;stroke-width:1;stroke-linecap:butt;stroke-linejoin:miter;stroke-miterlimit:4;stroke-dasharray:1,4;stroke-dashoffset:0;stroke-opacity:1" id="rect4967" width="26" height="33.969" x="10.857" y="9.888" rx="2.708" ry="3.048"/><rect style="opacity:1;fill:#000;fill-opacity:1;stroke:none;stroke-width:1;stroke-linecap:butt;stroke-linejoin:miter;stroke-miterlimit:4;stroke-dasharray:1,4;stroke-dashoffset:0;stroke-opacity:1" id="rect5574" width="5.98" height="11.005" x="30.877" y="3.852" rx="2.041" ry="1.989"/><rect style="opacity:1;fill:#fff;fill-opacity:1;stroke:none;stroke-width:1;stroke-linecap:butt;stroke-linejoin:miter;stroke-miterlimit:4;stroke-dasharray:1,4;stroke-dashoffset:0;stroke-opacity:1" id="rect4969" width="20" height="13" x="13.857" y="12.857" rx="1.792" ry="1.897"/><rect style="opacity:1;fill:#fff;fill-opacity:1;stroke:none;stroke-width:1;stroke-linecap:butt;stroke-linejoin:miter;stroke-miterlimit:4;stroke-dasharray:1,4;stroke-dashoffset:0;stroke-opacity:1" id="rect4971" width="19.74" height="12.995" x="14.055" y="27.857" rx="0" ry="0"/><path style="fill:#000;fill-opacity:1;fill-rule:evenodd;stroke:none;stroke-width:2;stroke-linecap:butt;stroke-linejoin:miter;stroke-miterlimit:4;stroke-dasharray:none;stroke-opacity:1" id="path4973" d="M 18.9375,27.5625 L 18.9375,41.204026 L 20.9375,41.204026 L 20.9375,27.5625 L 18.9375,27.5625 z"/><path style="fill:#000;fill-opacity:1;fill-rule:evenodd;stroke:none;stroke-width:2;stroke-linecap:butt;stroke-linejoin:miter;stroke-miterlimit:4;stroke-dasharray:none;stroke-opacity:1" id="path5552" d="M 26.84375,27.795974 L 26.84375,41.4375 L 28.84375,41.4375 L 28.84375,27.795974 L 26.84375,27.795974 z"/><path style="fill:#000;fill-opacity:1;fill-rule:evenodd;stroke:none;stroke-width:2;stroke-linecap:butt;stroke-linejoin:miter;stroke-miterlimit:4;stroke-dasharray:none;stroke-opacity:1" id="path5554" d="M 12.46875,30.90625 L 12.46875,32.90625 L 35.625,32.90625 L 35.625,30.90625 L 12.46875,30.90625 z"/><path style="fill:#000;fill-opacity:1;fill-rule:evenodd;stroke:none;stroke-width:2;stroke-linecap:butt;stroke-linejoin:miter;stroke-miterlimit:4;stroke-dasharray:none;stroke-opacity:1" id="path5556" d="M 11.8125,35.857143 L 11.8125,37.96875 L 34.96875,37.96875 L 34.96875,35.857143 L 11.8125,35.857143 z"/></g></g></svg>