<svg xmlns="http://www.w3.org/2000/svg" xmlns:cc="http://web.resource.org/cc/" xmlns:svg="http://www.w3.org/2000/svg" id="svg2" width="48" height="48" version="1.0" viewBox="0 0 48 48" xml:space="preserve"><metadata id="metadata31"/><rect style="fill:none;fill-opacity:.75;fill-rule:evenodd;stroke:none;stroke-width:1px;stroke-linecap:butt;stroke-linejoin:miter;stroke-opacity:1" id="rect3981" width="48" height="48" x="0" y="0" rx="0" ry="0"/><g id="g3100" style="stroke:#fff;stroke-opacity:1;stroke-width:8;stroke-miterlimit:4;stroke-dasharray:none;fill:#fff;fill-opacity:1"><path style="fill:#fff;fill-rule:nonzero;stroke:#fff;stroke-width:8;stroke-linejoin:round;stroke-miterlimit:4;stroke-opacity:1;stroke-dasharray:none;fill-opacity:1" id="path3102" d="M 41,42 C 41,42.4 40.4,43 40,43 L 8,43 C 7.6,43 7,42.4 7,42 L 7,40 C 7,39.6 7.5,39.3 7.9,39.3 L 39.8,39.3 C 40.2,39.3 41,39.6 41,40 L 41,42 z"/><path style="fill:#fff;fill-rule:nonzero;stroke:#fff;stroke-width:8;stroke-linejoin:round;stroke-miterlimit:4;stroke-opacity:1;stroke-dasharray:none;fill-opacity:1" id="path3104" d="M 44,39 C 44,39.4 43.4,40 43,40 L 5,40 C 4.6,40 4,39.4 4,39 L 4,25 C 4,24.6 4.6,24 5,24 L 43,24 C 43.4,24 44,24.6 44,25 L 44,39 z"/><path style="fill:#fff;fill-rule:nonzero;stroke:#fff;stroke-width:8;stroke-linejoin:round;stroke-miterlimit:4;stroke-opacity:1;stroke-dasharray:none;fill-opacity:1" id="path3106" d="M 12,4 C 9,4 8,6 8,8 L 8,26 L 40,26 L 40,8 C 40,6 39,4 36,4 L 12,4 z"/></g><g id="g3095"><path id="path13" d="M 41,42 C 41,42.4 40.4,43 40,43 L 8,43 C 7.6,43 7,42.4 7,42 L 7,40 C 7,39.6 7.5,39.3 7.9,39.3 L 39.8,39.3 C 40.2,39.3 41,39.6 41,40 L 41,42 z" style="fill:#000;fill-rule:nonzero;stroke:none;stroke-width:7.43289995;stroke-linejoin:round;stroke-miterlimit:4"/><path id="path15" d="M 44,39 C 44,39.4 43.4,40 43,40 L 5,40 C 4.6,40 4,39.4 4,39 L 4,25 C 4,24.6 4.6,24 5,24 L 43,24 C 43.4,24 44,24.6 44,25 L 44,39 z" style="fill:#000;fill-rule:nonzero;stroke:none;stroke-width:7.43289995;stroke-linejoin:round;stroke-miterlimit:4"/><path id="path17" d="M 12,4 C 9,4 8,6 8,8 L 8,26 L 40,26 L 40,8 C 40,6 39,4 36,4 L 12,4 z" style="fill:#000;fill-rule:nonzero;stroke:none;stroke-width:7.43289995;stroke-linejoin:round;stroke-miterlimit:4"/></g><path style="fill:#fff;fill-rule:nonzero;stroke:none;stroke-width:7.43289995;stroke-linejoin:round;stroke-miterlimit:4" id="path19" d="M 36,24 L 12,24 L 12,9 C 12,9 12,8 13,8 L 35,8 C 36,8 36,9 36,9 L 36,24 z"/><path style="fill:#fff;fill-opacity:1;fill-rule:evenodd;stroke:#fff;stroke-width:4;stroke-linecap:butt;stroke-linejoin:miter;stroke-opacity:1;stroke-miterlimit:4;stroke-dasharray:none" id="path1315" d="M 11,37 L 37,37"/></svg>