<svg xmlns="http://www.w3.org/2000/svg" xmlns:cc="http://web.resource.org/cc/" xmlns:svg="http://www.w3.org/2000/svg" id="svg3304" width="48" height="48"><defs id="defs3306"><linearGradient id="linearGradient5833"><stop style="stop-color:#afafb2;stop-opacity:1" id="stop5835" offset="0"/><stop style="stop-color:#8e8e93;stop-opacity:1" id="stop5837" offset="1"/></linearGradient><linearGradient id="linearGradient5541"><stop style="stop-color:#3b5a7a;stop-opacity:1" id="stop5543" offset="0"/><stop style="stop-color:#4e77a1;stop-opacity:1" id="stop5545" offset="1"/></linearGradient><linearGradient id="linearGradient4807"><stop style="stop-color:#527da8;stop-opacity:1" id="stop4809" offset="0"/><stop style="stop-color:#7e9fc1;stop-opacity:1" id="stop4811" offset="1"/></linearGradient><linearGradient id="linearGradient13580"><stop style="stop-color:#fff;stop-opacity:1" id="stop13582" offset="0"/><stop style="stop-color:#fff;stop-opacity:0" id="stop13584" offset="1"/></linearGradient><linearGradient id="linearGradient7022"><stop style="stop-color:#f7f7f9;stop-opacity:1" id="stop7024" offset="0"/><stop style="stop-color:#f4f4f6;stop-opacity:1" id="stop7026" offset="1"/></linearGradient><linearGradient id="linearGradient11400"><stop style="stop-color:#000;stop-opacity:1" id="stop11402" offset="0"/><stop style="stop-color:#000;stop-opacity:0" id="stop11404" offset="1"/></linearGradient><linearGradient id="linearGradient14318"><stop style="stop-color:#000;stop-opacity:1" id="stop14320" offset="0"/><stop style="stop-color:#000;stop-opacity:0" id="stop14322" offset="1"/></linearGradient></defs><metadata id="metadata3309"/><g id="layer1"><rect style="fill:none;fill-opacity:.75;fill-rule:evenodd;stroke:none;stroke-width:1px;stroke-linecap:butt;stroke-linejoin:miter;stroke-opacity:1" id="rect5087" width="48" height="48" x="0" y="0"/><rect style="fill:none;fill-opacity:.75;fill-rule:evenodd;stroke:none;stroke-width:1px;stroke-linecap:butt;stroke-linejoin:miter;stroke-opacity:1" id="rect4784" width="48" height="48" x="0" y="0"/><path style="fill:#fff;fill-opacity:1;fill-rule:evenodd;stroke:#fff;stroke-width:3.1061153;stroke-linecap:round;stroke-linejoin:round;stroke-miterlimit:4;stroke-dasharray:none;stroke-opacity:1" id="rect5040" d="M 4.8886262,2.6477059 L 43.017460,2.6477059 C 45.042579,2.6477059 46.518438,4.1781440 46.518438,6.5349096 L 46.530314,37.000000 L 1.4964810,36.979702 L 1.5128113,6.3336485 C 1.5128113,4.4321166 3.0522187,2.6477059 4.8886262,2.6477059 z"/><path id="path6541" d="M 18.000000,34.000000 C 18.000000,34.000000 19.000000,40.000000 10.992358,40.000000 C 8.4866814,40.000000 9.0000000,44.035151 9.0000000,44.035151 L 39.000000,44.000000 C 39.000000,44.000000 39.431748,40.077717 36.915122,40.058968 C 29.000000,40.000000 30.000000,34.000000 30.000000,34.000000 L 18.000000,34.000000 z" style="fill:#fff;fill-opacity:1;fill-rule:evenodd;stroke:#fff;stroke-width:8;stroke-linecap:round;stroke-linejoin:round;stroke-miterlimit:4;stroke-dasharray:none;stroke-opacity:1"/><path style="fill:#000;fill-opacity:1;fill-rule:evenodd;stroke:none;stroke-width:1px;stroke-linecap:butt;stroke-linejoin:miter;stroke-opacity:1" id="path9222" d="M 18.000000,34.000000 C 18.000000,34.000000 19.000000,40.000000 10.992358,39.964849 C 8.4867056,39.953850 9.0000000,44.000000 9.0000000,44.000000 L 39.084878,44.000000 C 39.084878,44.000000 39.516627,40.077518 37.000000,40.058968 C 29.000000,40.000000 30.000000,34.000000 30.000000,34.000000 L 18.000000,34.000000 z"/><path id="path2175" d="M 7.3758149,5.5616037 L 40.499022,5.3738592 C 42.524141,5.3738592 44.000000,6.8015137 44.000000,9.0000000 L 44.000000,34.000000 L 4.0000000,34.000000 L 4.0000000,9.0000000 C 4.0000000,7.2261741 5.5394074,5.5616037 7.3758149,5.5616037 z" style="fill:#000;fill-opacity:1;fill-rule:evenodd;stroke:none;stroke-width:3;stroke-linecap:round;stroke-linejoin:round;stroke-miterlimit:4;stroke-dasharray:none;stroke-opacity:1"/><rect style="fill:#fff;fill-opacity:1;fill-rule:evenodd;stroke:none;stroke-width:1px;stroke-linecap:butt;stroke-linejoin:miter;stroke-opacity:1" id="rect4355" width="32" height="18" x="8" y="10"/></g></svg>