<svg xmlns="http://www.w3.org/2000/svg" xmlns:cc="http://web.resource.org/cc/" xmlns:svg="http://www.w3.org/2000/svg" id="svg2" width="48" height="48" version="1.0" viewBox="0 0 48 48" xml:space="preserve"><metadata id="metadata17"/><path id="path12" d="M 48,48 L 0,48 L 0,0 L 48,0 L 48,48 z" style="fill:none;fill-rule:nonzero;stroke:none;stroke-miterlimit:4;fill-opacity:.30449826"/><path style="fill:none;fill-rule:nonzero;stroke:#fff;stroke-width:7.45779991;stroke-linejoin:round;stroke-miterlimit:4" id="path7" d="M 42.8,22.9 L 40.4,14.8 L 34.8,16.4 C 33.7,14.8 32.1,13.4 30.4,12.4 L 31.3,6.9 L 22.1,5.7 L 21.3,11 C 21,11.1 20.6,11.2 20.3,11.3 C 19.1,11.6 18,12.2 17,12.8 L 12.7,9.5 L 7,16.4 L 11.5,19.9 C 11.1,21 10.9,22.2 10.9,23.5 L 5.3,25.1 L 7.7,33.2 L 13.3,31.6 C 14.4,33.2 16,34.6 17.7,35.6 L 16.8,41.1 L 26,42.3 L 26.8,37 C 27.1,36.9 27.5,36.8 27.8,36.7 C 29,36.4 30.1,35.8 31.1,35.2 L 35.4,38.5 L 41.1,31.6 L 36.6,28.1 C 37,27 37.2,25.8 37.2,24.5 L 42.8,22.9 L 42.8,22.9 z M 25.3,28.8 C 22.5,29.6 19.5,28 18.6,25.2 C 17.7,22.4 19.4,19.4 22.2,18.5 C 25,17.7 28,19.3 28.9,22.1 C 29.7,24.9 28.1,27.9 25.3,28.8 z"/><path style="fill-rule:nonzero;stroke:none;stroke-miterlimit:4" id="path9" d="M 42.8,22.9 L 40.4,14.8 L 34.8,16.4 C 33.7,14.8 32.1,13.4 30.4,12.4 L 31.3,6.9 L 22.1,5.7 L 21.3,11 C 21,11.1 20.6,11.2 20.3,11.3 C 19.1,11.6 18,12.2 17,12.8 L 12.7,9.5 L 7,16.4 L 11.5,19.9 C 11.1,21 10.9,22.2 10.9,23.5 L 5.3,25.1 L 7.7,33.2 L 13.3,31.6 C 14.4,33.2 16,34.6 17.7,35.6 L 16.8,41.1 L 26,42.3 L 26.8,37 C 27.1,36.9 27.5,36.8 27.8,36.7 C 29,36.4 30.1,35.8 31.1,35.2 L 35.4,38.5 L 41.1,31.6 L 36.6,28.1 C 37,27 37.2,25.8 37.2,24.5 L 42.8,22.9 L 42.8,22.9 z M 25.3,28.8 C 22.5,29.6 19.5,28 18.6,25.2 C 17.7,22.4 19.4,19.4 22.2,18.5 C 25,17.7 28,19.3 28.9,22.1 C 29.7,24.9 28.1,27.9 25.3,28.8 z"/></svg>