<svg xmlns="http://www.w3.org/2000/svg" xmlns:cc="http://web.resource.org/cc/" xmlns:svg="http://www.w3.org/2000/svg" xmlns:xlink="http://www.w3.org/1999/xlink" id="svg2160" width="48" height="48"><metadata id="metadata2165"/><g id="layer1"><rect style="opacity:1;fill:none;fill-opacity:1;stroke:none;stroke-width:8;stroke-linecap:round;stroke-linejoin:round;stroke-miterlimit:4;stroke-dasharray:none;stroke-opacity:1" id="rect4126" width="48" height="48" x="0" y="0"/><path id="path5117" d="M 21 34 A 7.5 6 0 1 1 6,34 A 7.5 6 0 1 1 21 34 z" transform="matrix(1.0666667,0,0,1,-1.4,0)" style="opacity:1;fill:#fff;fill-opacity:1;stroke:#fff;stroke-width:7.74596657;stroke-linecap:round;stroke-linejoin:round;stroke-miterlimit:4;stroke-dasharray:none;stroke-opacity:1"/><path id="path6090" d="M 21,34 L 21,15 L 37,19 L 37,38 L 42,38 L 42,11 L 16,4 L 16,34 L 21,34 z" style="fill:#fff;fill-rule:evenodd;stroke:#fff;stroke-width:8;stroke-linecap:round;stroke-linejoin:round;stroke-opacity:1;fill-opacity:1;stroke-miterlimit:4;stroke-dasharray:none"/><path style="opacity:1;fill:#000;fill-opacity:1;stroke:none;stroke-width:8;stroke-linecap:round;stroke-linejoin:round;stroke-miterlimit:4;stroke-dasharray:none;stroke-opacity:1" id="path3149" d="M 21 34 A 7.5 6 0 1 1 6,34 A 7.5 6 0 1 1 21 34 z" transform="matrix(1.0666667,0,0,1,-1.4,0)"/><path style="opacity:1;fill:#fff;fill-opacity:1;stroke:#fff;stroke-width:7.74596643;stroke-linecap:round;stroke-linejoin:round;stroke-miterlimit:4;stroke-dasharray:none;stroke-opacity:1" id="path6088" d="M 21 34 A 7.5 6 0 1 1 6,34 A 7.5 6 0 1 1 21 34 z" transform="matrix(1.0666667,0,0,1,19.599999,3.9999999)"/><path style="fill:#000;fill-rule:evenodd;stroke:none;stroke-width:1px;stroke-linecap:butt;stroke-linejoin:miter;stroke-opacity:1;fill-opacity:1" id="path3153" d="M 21,34 L 21,15 L 37,19 L 37,38 L 42,38 L 42,11 L 16,4 L 16,34 L 21,34 z"/><use id="use4124" width="48" height="48" x="0" y="0" transform="translate(21,4)" xlink:href="#path3149"/></g></svg>