<svg xmlns="http://www.w3.org/2000/svg" xmlns:cc="http://web.resource.org/cc/" xmlns:svg="http://www.w3.org/2000/svg" id="svg2" width="48" height="48" version="1.0" viewBox="0 0 48 48" xml:space="preserve"><metadata id="metadata27"/><rect style="fill:none;fill-opacity:.31724137;fill-rule:evenodd;stroke:none;stroke-width:1px;stroke-linecap:butt;stroke-linejoin:miter;stroke-opacity:1" id="rect1341" width="48" height="48" x="0" y="0" rx="0" ry="0"/><g style="fill-rule:nonzero;stroke:#000;stroke-miterlimit:4" id="g7"><g id="g9"><path style="stroke:none" id="path11" d="M 18,30.9 L 15.2,38.1 L 6,38.1 L 18.1,9.9 L 29.7,9.9 L 42,38.1 L 32.4,38.1 L 29.4,30.9 L 18,30.9 L 18,30.9 z M 28,26.1 C 28,26.1 24.2,16.3 23.6,14.7 L 23.4,14.7 C 22.9,16.4 19.2,26.1 19.2,26.1 L 28,26.1 z"/></g></g><g id="g3089" style="fill-rule:nonzero;stroke:#fff;stroke-miterlimit:4;stroke-width:12;stroke-dasharray:none;fill:#fff;fill-opacity:1;stroke-opacity:1"><path id="path3091" d="M 15,38 L 6,38 L 18,10 L 30,10 L 42,38 L 33,38 L 30,31 L 18,30.9 L 15,38 z M 29,26 C 29,26 25.6,16.6 25,15 L 23,15 C 22.5,16.7 19,26 19,26 L 29,26 z" style="stroke-width:12;stroke-linejoin:round;stroke-miterlimit:4;stroke-dasharray:none;fill:#fff;fill-opacity:1;stroke:#fff;stroke-opacity:1"/></g><g style="fill-rule:nonzero;stroke:#000;stroke-miterlimit:4;stroke-width:4;stroke-dasharray:none" id="g17"><path style="stroke-width:4;stroke-linejoin:round;stroke-miterlimit:4;stroke-dasharray:none" id="path19" d="M 15,38 L 6,38 L 18,10 L 30,10 L 42,38 L 33,38 L 30,31 L 18,30.9 L 15,38 z M 29,26 C 29,26 25.6,16.6 25,15 L 23,15 C 22.5,16.7 19,26 19,26 L 29,26 z"/></g></svg>