<svg xmlns="http://www.w3.org/2000/svg" xmlns:cc="http://web.resource.org/cc/" xmlns:svg="http://www.w3.org/2000/svg" id="svg1307" width="48" height="48"><metadata id="metadata1312"/><g id="layer1"><rect id="rect6561" width="40" height="34" x="4" y="7" rx="3.132" ry="3.008" style="fill:#000;fill-opacity:1;fill-rule:evenodd;stroke:#fff;stroke-width:8;stroke-linecap:round;stroke-linejoin:round;stroke-miterlimit:4;stroke-dasharray:none;stroke-opacity:1"/><rect style="fill:#000;fill-opacity:1;fill-rule:evenodd;stroke:none;stroke-width:1px;stroke-linecap:butt;stroke-linejoin:miter;stroke-opacity:1" id="rect1315" width="40" height="34" x="4" y="7" rx="3.442" ry="3.318"/><rect id="rect6622" width="32" height="26" x="8" y="11" rx="1.457" ry="1.395" style="fill:#fff;fill-opacity:1;fill-rule:evenodd;stroke:none;stroke-width:1px;stroke-linecap:butt;stroke-linejoin:miter;stroke-opacity:1"/><path style="fill:#000;fill-opacity:1;fill-rule:evenodd;stroke:none;stroke-width:1px;stroke-linecap:butt;stroke-linejoin:miter;stroke-opacity:1" id="path2188" d="M 4.0620155,33.062016 L 13,22 C 14.643411,20.20155 15.790698,21.007752 17,22 L 25,31 C 28.093023,34.108527 23.992248,37.093023 22,34 L 15,26 L 5.4883721,37.945736"/><path id="path3962" d="M 19.828527,25.121775 L 30.068838,15.920224 C 31.712249,14.121774 32.859536,14.927976 34.068838,15.920224 L 41.882791,22.067511 C 44.975814,25.176038 40.875039,28.160534 38.882791,25.067511 L 32.068838,19.920224 L 20.882791,30.067511" style="fill:#000;fill-opacity:1;fill-rule:evenodd;stroke:none;stroke-width:1px;stroke-linecap:butt;stroke-linejoin:miter;stroke-opacity:1"/></g></svg>