<svg xmlns="http://www.w3.org/2000/svg" xmlns:svg="http://www.w3.org/2000/svg" id="svg2" width="48" height="48" viewBox="0 0 48 48" xml:space="preserve"><metadata id="metadata19"/><rect style="fill:none;fill-opacity:.75;fill-rule:evenodd;stroke:none;stroke-width:1px;stroke-linecap:butt;stroke-linejoin:miter;stroke-opacity:1" id="rect3319" width="48" height="48" x="0" y="0"/><path style="fill:#fff;fill-rule:nonzero;stroke:#fff;stroke-width:12;stroke-linejoin:round;stroke-miterlimit:4;stroke-dasharray:none;fill-opacity:1;stroke-opacity:1" id="path4775" d="M 39,41 L 9,41 L 9,6 L 30,6 L 39,16 L 39,20.678851 L 39,41 z"/><path id="path7" d="M 39,41 L 9,41 L 9,6 L 30,6 L 39,16 L 39,41 z" style="fill:#000;fill-rule:nonzero;stroke:#000;stroke-width:4;stroke-linejoin:round;stroke-miterlimit:4;stroke-dasharray:none;fill-opacity:1"/><path id="path9" d="M 37,16 L 36.996573,39.003906 L 11,39 L 11.016535,8.0181102 L 29,8 L 37,16 z" style="fill:#fff;fill-rule:nonzero;stroke:none;stroke-miterlimit:4"/><path style="fill:none;fill-rule:evenodd;stroke:#000;stroke-width:4;stroke-linecap:round;stroke-linejoin:miter;stroke-miterlimit:4;stroke-dasharray:none;stroke-opacity:1" id="path2385" d="M 24,12 L 24,16"/><path id="path3157" d="M 24,22 L 24,26" style="fill:none;fill-rule:evenodd;stroke:#000;stroke-width:4;stroke-linecap:round;stroke-linejoin:miter;stroke-miterlimit:4;stroke-dasharray:none;stroke-opacity:1"/><path style="fill:none;fill-rule:evenodd;stroke:#000;stroke-width:4;stroke-linecap:round;stroke-linejoin:miter;stroke-miterlimit:4;stroke-dasharray:none;stroke-opacity:1" id="path3159" d="M 24,32 L 24,36"/><path id="path3161" d="M 19,16.968504 L 17,19.968504" style="fill:none;fill-rule:evenodd;stroke:#000;stroke-width:4;stroke-linecap:round;stroke-linejoin:miter;stroke-miterlimit:4;stroke-dasharray:none;stroke-opacity:1"/><path style="fill:none;fill-rule:evenodd;stroke:#000;stroke-width:4;stroke-linecap:round;stroke-linejoin:miter;stroke-miterlimit:4;stroke-dasharray:none;stroke-opacity:1" id="path3163" d="M 29,17 L 31,20"/><path id="path3165" d="M 35,25 L 37,28" style="fill:none;fill-rule:evenodd;stroke:#000;stroke-width:4;stroke-linecap:round;stroke-linejoin:miter;stroke-miterlimit:4;stroke-dasharray:none;stroke-opacity:1"/><path style="fill:none;fill-rule:evenodd;stroke:#000;stroke-width:4;stroke-linecap:round;stroke-linejoin:miter;stroke-miterlimit:4;stroke-dasharray:none;stroke-opacity:1" id="path3167" d="M 13,25 L 11,28"/></svg>