<svg xmlns="http://www.w3.org/2000/svg" xmlns:cc="http://web.resource.org/cc/" xmlns:svg="http://www.w3.org/2000/svg" id="svg2" width="48" height="48" viewBox="0 0 48 48" xml:space="preserve"><metadata id="metadata19"/><rect style="fill:none;fill-opacity:.75;fill-rule:evenodd;stroke:none;stroke-width:1px;stroke-linecap:butt;stroke-linejoin:miter;stroke-opacity:1" id="rect3319" width="48" height="48" x="0" y="0"/><path style="fill:#fff;fill-rule:nonzero;stroke:#fff;stroke-width:12;stroke-linejoin:round;stroke-miterlimit:4;stroke-dasharray:none;fill-opacity:1;stroke-opacity:1" id="path4775" d="M 39,41 L 9,41 L 9,6 L 30,6 L 39,16 L 39,20.678851 L 39,41 z"/><path id="path7" d="M 39,41 L 9,41 L 9,6 L 30,6 L 39,16 L 39,41 z" style="fill:#000;fill-rule:nonzero;stroke:#000;stroke-width:4;stroke-linejoin:round;stroke-miterlimit:4;stroke-dasharray:none;fill-opacity:1"/><path id="path9" d="M 37,16 L 36.996573,39.003906 L 11,39 L 11.016535,8.0181102 L 29,8 L 37,16 z" style="fill:#fff;fill-rule:nonzero;stroke:none;stroke-miterlimit:4"/><path style="fill:#fff;fill-opacity:1;fill-rule:evenodd;stroke:none;stroke-width:1px;stroke-linecap:butt;stroke-linejoin:miter;stroke-opacity:1" id="path3312" d="M 48 24 A 24 24 0 1 1 0,24 A 24 24 0 1 1 48 24 z" transform="matrix(0.512821,0,0,0.5,12,13.5)"/><path style="fill:#000;fill-opacity:1;fill-rule:evenodd;stroke:none;stroke-width:1px;stroke-linecap:butt;stroke-linejoin:miter;stroke-opacity:1" id="path4048" d="M 44 24 A 20 20 0 1 1 4,24 A 20 20 0 1 1 44 24 z" transform="matrix(0.512821,0,0,0.5,12,13.5)"/><path style="fill:#fff;fill-opacity:1;fill-rule:evenodd;stroke:none;stroke-width:1px;stroke-linecap:butt;stroke-linejoin:miter;stroke-opacity:1" id="path4784" d="M 40 24 A 16 16 0 1 1 8,24 A 16 16 0 1 1 40 24 z" transform="matrix(0.512821,0,0,0.5,12,13.5)"/><path style="fill:none;fill-opacity:.75;fill-rule:evenodd;stroke:#000;stroke-width:2.02547884;stroke-linecap:round;stroke-linejoin:miter;stroke-miterlimit:4;stroke-dasharray:none;stroke-opacity:1" id="path5512" d="M 17.128203,30.625 C 21.230767,29.125 27.384613,29.125 31.487177,30.625"/><path style="fill:none;fill-opacity:.75;fill-rule:evenodd;stroke:#000;stroke-width:2.02547884;stroke-linecap:butt;stroke-linejoin:miter;stroke-miterlimit:4;stroke-dasharray:none;stroke-opacity:1" id="path5516" d="M 16.08641,25.5 L 32.52897,25.5"/><path style="fill:none;fill-opacity:.75;fill-rule:evenodd;stroke:#000;stroke-width:2.02547884;stroke-linecap:round;stroke-linejoin:miter;stroke-miterlimit:4;stroke-dasharray:none;stroke-opacity:1" id="path5520" d="M 22.256408,17.27559 C 19.692305,22.5 19.692305,29 22.256408,34"/><path id="path6250" d="M 17.128203,20.375 C 21.230767,21.875 27.384613,21.875 31.487177,20.375" style="fill:none;fill-opacity:.75;fill-rule:evenodd;stroke:#000;stroke-width:2.02547884;stroke-linecap:round;stroke-linejoin:miter;stroke-miterlimit:4;stroke-dasharray:none;stroke-opacity:1"/><path id="path9156" d="M 26.358972,17.27559 C 28.923075,22.5 28.923075,29 26.358972,34" style="fill:none;fill-opacity:.75;fill-rule:evenodd;stroke:#000;stroke-width:2.02547884;stroke-linecap:round;stroke-linejoin:miter;stroke-miterlimit:4;stroke-dasharray:none;stroke-opacity:1"/></svg>