<svg xmlns="http://www.w3.org/2000/svg" xmlns:cc="http://web.resource.org/cc/" xmlns:svg="http://www.w3.org/2000/svg" xmlns:xlink="http://www.w3.org/1999/xlink" id="svg2160" width="48" height="48"><metadata id="metadata2165"/><g id="layer1"><rect style="opacity:1;fill:none;fill-opacity:1;stroke:none;stroke-width:8;stroke-linecap:round;stroke-linejoin:round;stroke-miterlimit:4;stroke-dasharray:none;stroke-opacity:1" id="rect2192" width="48" height="48" x="0" y="0"/><rect id="rect4142" width="38.002" height="33.995" x="-43.002" y="6.999" transform="matrix(0,-1,1,0,0,0)" style="fill:#fff;fill-opacity:1;stroke:#fff;stroke-width:7.98537779;stroke-linecap:round;stroke-linejoin:round;stroke-miterlimit:4;stroke-dasharray:none;stroke-opacity:1"/><rect style="fill:#000;fill-opacity:1;stroke:none;stroke-width:8;stroke-linecap:round;stroke-linejoin:round;stroke-miterlimit:4;stroke-dasharray:none;stroke-opacity:1" id="rect2176" width="38" height="34" x="-43" y="7" transform="matrix(0,-1,1,0,0,0)"/><rect style="fill:#fff;fill-opacity:1;stroke:none;stroke-width:8;stroke-linecap:round;stroke-linejoin:round;stroke-miterlimit:4;stroke-dasharray:none;stroke-opacity:1" id="rect5113" width="3.906" height="2.909" x="-41.039" y="9.017" ry=".862" transform="matrix(0,-1,1,0,0,0)"/><use id="use6084" width="48" height="48" x="0" y="0" transform="translate(-1.657486e-2,-6.0394135)" xlink:href="#rect5113"/><use id="use6086" width="48" height="48" x="0" y="0" transform="translate(-1.65746e-2,-12.039411)" xlink:href="#rect5113"/><use id="use6090" width="48" height="48" x="0" y="0" transform="translate(-1.65746e-2,-18.039411)" xlink:href="#rect5113"/><use id="use6092" width="48" height="48" x="0" y="0" transform="translate(-1.657486e-2,-24.133335)" xlink:href="#rect5113"/><use id="use6094" width="48" height="48" x="0" y="0" transform="translate(-1.657486e-2,-30.133335)" xlink:href="#rect5113"/><use id="use6098" width="48" height="48" x="0" y="0" transform="translate(27.074582,-3.9413452e-2)" xlink:href="#rect5113"/><use id="use6100" width="48" height="48" x="0" y="0" transform="translate(26.983425,-6.0394135)" xlink:href="#rect5113"/><use id="use6102" width="48" height="48" x="0" y="0" transform="translate(26.983425,-12.039413)" xlink:href="#rect5113"/><use id="use6104" width="48" height="48" x="0" y="0" transform="translate(27.074582,-18.133335)" xlink:href="#rect5113"/><use id="use6106" width="48" height="48" x="0" y="0" transform="translate(27.074582,-24.133335)" xlink:href="#rect5113"/><use id="use6108" width="48" height="48" x="0" y="0" transform="translate(26.983425,-30.133335)" xlink:href="#rect5113"/><rect style="opacity:1;fill:#fff;fill-opacity:1;stroke:none;stroke-width:8;stroke-linecap:round;stroke-linejoin:round;stroke-miterlimit:4;stroke-dasharray:none;stroke-opacity:1" id="rect2188" width="20" height="14.933" x="14" y="26" rx="1.473" ry="1.547"/><rect id="rect2190" width="20" height="14.933" x="14" y="7.067" rx="1.473" ry="1.547" style="opacity:1;fill:#fff;fill-opacity:1;stroke:none;stroke-width:8;stroke-linecap:round;stroke-linejoin:round;stroke-miterlimit:4;stroke-dasharray:none;stroke-opacity:1"/></g></svg>