<svg xmlns="http://www.w3.org/2000/svg" xmlns:svg="http://www.w3.org/2000/svg" id="svg2" width="48" height="48" viewBox="0 0 48 48" xml:space="preserve"><metadata id="metadata19"/><rect style="fill:none;fill-opacity:.75;fill-rule:evenodd;stroke:none;stroke-width:1px;stroke-linecap:butt;stroke-linejoin:miter;stroke-opacity:1" id="rect3319" width="48" height="48" x="0" y="0"/><path style="fill:#fff;fill-rule:nonzero;stroke:#fff;stroke-width:12;stroke-linejoin:round;stroke-miterlimit:4;stroke-dasharray:none;fill-opacity:1;stroke-opacity:1" id="path4775" d="M 39,41 L 9,41 L 9,6 L 30,6 L 39,16 L 39,20.678851 L 39,41 z"/><path id="path7" d="M 39,41 L 9,41 L 9,6 L 30,6 L 39,16 L 39,41 z" style="fill:#000;fill-rule:nonzero;stroke:#000;stroke-width:4;stroke-linejoin:round;stroke-miterlimit:4;stroke-dasharray:none;fill-opacity:1"/><path id="path9" d="M 37,16 L 36.996573,39.003906 L 11,39 L 11.016535,8.0181102 L 29,8 L 37,16 z" style="fill:#fff;fill-rule:nonzero;stroke:none;stroke-miterlimit:4"/><path style="fill:none;fill-opacity:.75;fill-rule:evenodd;stroke:#000;stroke-width:4;stroke-linecap:round;stroke-linejoin:miter;stroke-miterlimit:4;stroke-dasharray:none;stroke-opacity:1" id="path1309" d="M 15,16 L 28,16"/><path style="fill:none;fill-opacity:.75;fill-rule:evenodd;stroke:#000;stroke-width:4;stroke-linecap:round;stroke-linejoin:miter;stroke-miterlimit:4;stroke-dasharray:none;stroke-opacity:1" id="path2186" d="M 28,32 L 33,32"/><path id="path3492" d="M 28,24 L 33,24" style="fill:none;fill-opacity:.75;fill-rule:evenodd;stroke:#000;stroke-width:4;stroke-linecap:round;stroke-linejoin:miter;stroke-miterlimit:4;stroke-dasharray:none;stroke-opacity:1"/><rect style="fill:#000;fill-opacity:1;stroke:none;stroke-width:2;stroke-linecap:round;stroke-linejoin:round;stroke-miterlimit:4;stroke-dasharray:none;stroke-opacity:1" id="rect3494" width="10" height="15" x="13" y="21" ry="2.068"/></svg>