<svg xmlns="http://www.w3.org/2000/svg" xmlns:svg="http://www.w3.org/2000/svg" id="svg2" width="48" height="48" version="1.0"><metadata id="metadata7"/><g id="layer1"><rect style="fill:none;fill-opacity:.44827586000000003;stroke:none;stroke-width:3;stroke-linecap:round;stroke-linejoin:round;stroke-miterlimit:4;stroke-dasharray:none;stroke-opacity:1" id="rect3171" width="48" height="48" x="0" y="0"/><path id="path3169" d="M 6,9 L 6,39 C 6,42 9,42 9,42 L 31,42 L 42,39 L 42,16 L 42,6 L 9,6 C 9,6 6,6 6,9 z" style="fill:#fff;fill-rule:evenodd;stroke:#fff;stroke-width:12;stroke-linecap:round;stroke-linejoin:round;stroke-opacity:1;stroke-miterlimit:4;stroke-dasharray:none;fill-opacity:1"/><path style="fill:#fff;fill-rule:evenodd;stroke:#000;stroke-width:4;stroke-linecap:round;stroke-linejoin:round;stroke-opacity:1;stroke-miterlimit:4;stroke-dasharray:none;fill-opacity:1" id="path2385" d="M 6,9 L 6,39 C 6,42 9,42 9,42 L 32,42 L 42,39 L 42,16 L 42,6 L 9,6 C 9,6 6,6 6,9 z"/><path style="fill:#000;fill-opacity:1;stroke:none;stroke-width:4;stroke-linecap:round;stroke-linejoin:round;stroke-miterlimit:4;stroke-dasharray:none;stroke-opacity:1" id="path3163" d="M 24,18 A 6,6 0 1 1 12,18 A 6,6 0 1 1 24,18 z" transform="translate(1.0000002,1.0000007)"/><path style="fill:#000;fill-opacity:1;stroke:none;stroke-width:4;stroke-linecap:round;stroke-linejoin:round;stroke-miterlimit:4;stroke-dasharray:none;stroke-opacity:1" id="path3165" d="M 18.500011,36.775587 A 8,13.753289 0 1 1 34.49969,36.874307" transform="matrix(1,0,0,0.7928323,-7.4999998,3.7648581)"/><path style="fill:#fff;fill-opacity:1;fill-rule:evenodd;stroke:none;stroke-width:1px;stroke-linecap:butt;stroke-linejoin:miter;stroke-opacity:1" id="path3167" d="M 15.105617,23.374163 C 15.105617,23.374163 19.105617,26.749666 23.105617,23.374163 L 19.105617,29.000001 L 15.105617,23.374163"/><path style="fill:none;fill-opacity:1;fill-rule:evenodd;stroke:#000;stroke-width:3;stroke-linecap:round;stroke-linejoin:round;stroke-miterlimit:4;stroke-dasharray:none;stroke-opacity:1" id="path2387" d="M 40.5,14.5 L 31.5,17.5 L 31.5,41.5"/><path id="path3161" d="M 41.5,26.5 L 32.5,29.5" style="fill:none;fill-opacity:1;fill-rule:evenodd;stroke:#000;stroke-width:3;stroke-linecap:round;stroke-linejoin:round;stroke-miterlimit:4;stroke-dasharray:none;stroke-opacity:1"/></g></svg>