<svg xmlns="http://www.w3.org/2000/svg" xmlns:svg="http://www.w3.org/2000/svg" id="svg1307" width="48" height="48" version="1.0" style="display:inline"><metadata id="metadata1312"/><g id="layer1"><rect style="fill:none;fill-opacity:.32916667999999999;stroke:none;stroke-width:2;stroke-linecap:round;stroke-miterlimit:4;stroke-dasharray:none;stroke-opacity:1" id="rect2415" width="48" height="48.064" x="0" y="-.064"/></g><g id="layer5" style="display:inline"><path id="path3191" d="M 17.640395,6.9464633 L 19.384859,8.4918542 C 19.384857,12.271226 19.323258,14.168309 19.323258,18.033922 C 18.159742,19.58003 11.432722,25.874301 7.7482592,32.402307 C 6.5847461,34.463778 6.5878953,37.040555 8.3331675,39.102031 C 9.4966836,40.648135 11.528443,41.165583 13.566559,41.165583 C 20.547646,41.165583 27.5293,41.165583 34.510385,41.165583 C 36.548492,41.165583 38.580247,40.648137 39.743776,39.102031 C 41.489045,37.040554 41.492196,34.463781 40.328684,32.402307 C 37.03205,25.874299 31.367004,19.903739 29.795171,18.033922 C 29.795171,14.254551 29.856771,12.271225 29.856771,8.4918542 L 31.544797,6.9964613 L 31.601235,6.9464633 L 17.640395,6.9464633 z" style="fill:none;fill-opacity:1;fill-rule:evenodd;stroke:#fff;stroke-width:12;stroke-linecap:round;stroke-linejoin:round;stroke-miterlimit:4;stroke-dasharray:none;stroke-opacity:1"/><path style="fill:#fff;fill-opacity:1;fill-rule:evenodd;stroke:#000;stroke-width:3.88134241;stroke-linecap:round;stroke-linejoin:round;stroke-miterlimit:4;stroke-dasharray:none;stroke-opacity:1" id="path29274" d="M 17.640395,6.9464633 L 19.384859,8.4918542 C 19.384857,12.271226 19.323258,14.168309 19.323258,18.033922 C 18.159742,19.58003 11.432722,25.874301 7.7482592,32.402307 C 6.5847461,34.463778 6.5878953,37.040555 8.3331675,39.102031 C 9.4966836,40.648135 11.528443,41.165583 13.566559,41.165583 C 20.547646,41.165583 27.5293,41.165583 34.510385,41.165583 C 36.548492,41.165583 38.580247,40.648137 39.743776,39.102031 C 41.489045,37.040554 41.492196,34.463781 40.328684,32.402307 C 37.03205,25.874299 31.367004,19.903739 29.795171,18.033922 C 29.795171,14.254551 29.856771,12.271225 29.856771,8.4918542 L 31.544797,6.9964613 L 31.601235,6.9464633 L 17.640395,6.9464633 z"/><path style="fill:#000;fill-opacity:1;fill-rule:evenodd;stroke:#000;stroke-width:.07398678;stroke-linecap:round;stroke-linejoin:round;stroke-miterlimit:4;stroke-opacity:1" id="path6798" d="M 19.262679,23.118632 C 17.395195,26.044608 15.765861,27.718615 13.80476,31.048687 C 12.966165,32.472671 12.969154,34.250436 14.227045,35.674421 C 15.06564,36.742409 16.531043,37.099591 18,37.099591 C 23.03157,37.099588 24.994905,37.050904 30.02647,37.050904 C 31.495421,37.050901 32.960822,36.693723 33.799424,35.625734 C 35.057315,34.201745 35.060303,32.423986 34.22171,31 C 32.213683,27.189106 31.451032,26.929758 29.350199,23.118632 L 19.262679,23.118632 z"/></g></svg>