<svg xmlns="http://www.w3.org/2000/svg" xmlns:cc="http://web.resource.org/cc/" xmlns:svg="http://www.w3.org/2000/svg" id="svg3304" width="48" height="48"><metadata id="metadata3309"/><g id="layer1"><rect style="fill:none;fill-opacity:.28693181;fill-rule:evenodd;stroke:none;stroke-width:1px;stroke-linecap:butt;stroke-linejoin:miter;stroke-opacity:1" id="rect3312" width="48" height="48" x="0" y="0"/><rect id="rect4768" width="34" height="40" x="7" y="4" ry="2.82" style="fill:#fff;fill-opacity:1;fill-rule:evenodd;stroke:#fff;stroke-width:8;stroke-linecap:butt;stroke-linejoin:miter;stroke-opacity:1;stroke-miterlimit:4;stroke-dasharray:none"/><rect style="fill:#000;fill-opacity:1;fill-rule:evenodd;stroke:none;stroke-width:1px;stroke-linecap:butt;stroke-linejoin:miter;stroke-opacity:1" id="rect4040" width="34" height="40" x="7" y="4" ry="2.82"/><path style="fill:#fff;fill-opacity:1;fill-rule:evenodd;stroke:none;stroke-width:1px;stroke-linecap:butt;stroke-linejoin:miter;stroke-opacity:1" id="path5496" d="M 23.755431,15.989556 C 27.441246,8.9295045 37.892679,12.770494 36.880758,19.436032 C 35.878137,26.040312 27.002603,34.530897 23.880758,36.000000 C 20.548295,34.468233 11.940811,26.092254 11.063525,19.498694 C 10.151211,12.641860 19.295032,8.9086163 23.755431,15.989556 z"/><path id="path6950" d="M 12.512983,7.7505473 C 13.239136,6.3596263 15.298203,7.1163507 15.098842,8.4295475 C 14.901313,9.7306751 13.152718,11.403430 12.537674,11.692862 C 11.881136,11.391084 10.185351,9.7409091 10.012515,8.4418927 C 9.8327772,7.0910081 11.634228,6.3555111 12.512983,7.7505473 z" style="fill:#fff;fill-opacity:1;fill-rule:evenodd;stroke:none;stroke-width:1px;stroke-linecap:butt;stroke-linejoin:miter;stroke-opacity:1"/><path style="fill:#fff;fill-opacity:1;fill-rule:evenodd;stroke:none;stroke-width:1px;stroke-linecap:butt;stroke-linejoin:miter;stroke-opacity:1" id="path6952" d="M 35.400616,40.249453 C 36.126769,41.640374 38.185836,40.883649 37.986475,39.570452 C 37.788946,38.269325 36.040351,36.596570 35.425307,36.307138 C 34.768769,36.608916 33.072984,38.259091 32.900148,39.558107 C 32.720410,40.908992 34.521861,41.644489 35.400616,40.249453 z"/></g></svg>