<svg xmlns="http://www.w3.org/2000/svg" xmlns:cc="http://web.resource.org/cc/" xmlns:svg="http://www.w3.org/2000/svg" id="svg1306" width="48" height="48"><metadata id="metadata1311"/><g id="layer1"><rect style="fill:none;fill-opacity:.44534412;fill-rule:evenodd;stroke:none;stroke-width:1px;stroke-linecap:butt;stroke-linejoin:miter;stroke-opacity:1" id="rect2290" width="48" height="48" x="0" y="0" ry="0"/><path id="path3750" d="M 20.000000,27.000000 L 26.000000,31.000000 C 31.645697,27.712538 38.486676,20.641328 41.427261,11.000000 L 31.000000,4.0000000 C 24.965924,8.5653126 21.882044,16.647007 20.000000,27.000000 z" style="fill:#fff;fill-opacity:1;fill-rule:evenodd;stroke:#fff;stroke-width:8;stroke-linecap:round;stroke-linejoin:round;stroke-opacity:1;stroke-miterlimit:4;stroke-dasharray:none"/><path id="path5221" d="M 9.0000000,43.000000 C 20.000000,44.000000 25.460900,41.000000 24.000000,32.000000 L 20.000000,30.000000 C 12.000000,32.000000 17.000000,39.000000 9.0000000,43.000000 z" style="fill:#fff;fill-opacity:1;fill-rule:evenodd;stroke:#fff;stroke-width:8;stroke-linecap:butt;stroke-linejoin:round;stroke-opacity:1;stroke-miterlimit:4;stroke-dasharray:none"/><path style="fill:#000;fill-opacity:1;fill-rule:evenodd;stroke:none;stroke-width:1px;stroke-linecap:butt;stroke-linejoin:miter;stroke-opacity:1" id="path3020" d="M 21.000000,28.000000 L 25.000000,30.000000 C 30.645697,26.712538 38.486676,20.641328 41.427261,11.000000 L 31.000000,4.0000000 C 24.965924,8.5653126 22.882044,17.647007 21.000000,28.000000 z"/><path style="fill:#000;fill-opacity:1;fill-rule:evenodd;stroke:none;stroke-width:1px;stroke-linecap:butt;stroke-linejoin:miter;stroke-opacity:1" id="path3748" d="M 9.0000000,43.000000 C 20.000000,44.000000 25.460900,41.000000 24.000000,32.000000 L 20.000000,30.000000 C 12.000000,32.000000 17.000000,39.000000 9.0000000,43.000000 z"/></g></svg>