<svg xmlns="http://www.w3.org/2000/svg" xmlns:cc="http://web.resource.org/cc/" xmlns:svg="http://www.w3.org/2000/svg" id="svg3304" width="48" height="48"><metadata id="metadata3309"/><g id="layer1"><rect style="fill:none;fill-opacity:.75;fill-rule:evenodd;stroke:none;stroke-width:1px;stroke-linecap:butt;stroke-linejoin:miter;stroke-opacity:1" id="rect6296" width="48" height="48" x="0" y="0" ry="0"/><rect id="rect9204" width="37.961" height="26" x="5" y="16" rx="4.913" ry="4.913" style="fill:#fff;fill-opacity:1;fill-rule:evenodd;stroke:#fff;stroke-width:8;stroke-linecap:butt;stroke-linejoin:miter;stroke-miterlimit:4;stroke-dasharray:none;stroke-opacity:1"/><path id="path9932" d="M 21.000000,6.0000000 C 14.000000,6.0000000 12.000000,10.173905 12.000000,17.000000 L 36.000000,17.000000 C 36.000000,10.000000 34.000000,6.0000000 27.000000,6.0000000 L 21.000000,6.0000000 z M 23.000000,10.417323 L 25.000000,10.417323 C 32.000000,10.417323 31.000000,15.000000 31.000000,17.000000 L 17.000000,17.000000 C 17.000000,15.000000 16.000000,10.417323 23.000000,10.417323 z" style="opacity:1;color:#000;fill:#fff;fill-opacity:1;fill-rule:nonzero;stroke:#fff;stroke-width:8;stroke-linecap:butt;stroke-linejoin:miter;marker:none;marker-start:none;marker-mid:none;marker-end:none;stroke-miterlimit:10;stroke-dasharray:none;stroke-dashoffset:0;stroke-opacity:1;visibility:visible;display:block;overflow:visible"/><rect style="fill:#000;fill-opacity:1;fill-rule:evenodd;stroke:none;stroke-width:1px;stroke-linecap:butt;stroke-linejoin:miter;stroke-opacity:1" id="rect3314" width="37.961" height="26" x="5" y="16" rx="4.913" ry="4.913"/><path style="fill:none;fill-opacity:.75;fill-rule:evenodd;stroke:#fff;stroke-width:2;stroke-linecap:butt;stroke-linejoin:miter;stroke-miterlimit:4;stroke-dasharray:none;stroke-opacity:1" id="path4042" d="M 7.0000000,24.000000 L 41.000000,24.000000"/><path style="fill:none;fill-opacity:.75;fill-rule:evenodd;stroke:#fff;stroke-width:4;stroke-linecap:butt;stroke-linejoin:miter;stroke-miterlimit:4;stroke-dasharray:none;stroke-opacity:1" id="path4772" d="M 36.000000,21.000000 L 36.000000,29.000000"/><path style="opacity:1;color:#000;fill:#000;fill-opacity:1;fill-rule:nonzero;stroke:none;stroke-width:.9999997;stroke-linecap:butt;stroke-linejoin:miter;marker:none;marker-start:none;marker-mid:none;marker-end:none;stroke-miterlimit:10;stroke-dasharray:none;stroke-dashoffset:0;stroke-opacity:1;visibility:visible;display:block;overflow:visible" id="path2086" d="M 21.000000,6.0000000 C 14.000000,6.0000000 12.000000,10.173905 12.000000,17.000000 L 36.000000,17.000000 C 36.000000,10.000000 34.000000,6.0000000 27.000000,6.0000000 L 21.000000,6.0000000 z M 23.000000,10.417323 L 25.000000,10.417323 C 32.000000,10.417323 31.000000,15.000000 31.000000,17.000000 L 17.000000,17.000000 C 17.000000,15.000000 16.000000,10.417323 23.000000,10.417323 z"/><path id="path7024" d="M 12.000000,21.000000 L 12.000000,29.000000" style="fill:none;fill-opacity:.75;fill-rule:evenodd;stroke:#fff;stroke-width:4;stroke-linecap:butt;stroke-linejoin:miter;stroke-miterlimit:4;stroke-dasharray:none;stroke-opacity:1"/></g></svg>