<svg xmlns="http://www.w3.org/2000/svg" xmlns:cc="http://web.resource.org/cc/" xmlns:svg="http://www.w3.org/2000/svg" id="svg3304" width="48" height="48"><metadata id="metadata3309"/><g id="layer1"><path style="fill:#000;fill-opacity:1;stroke:#fff;stroke-width:4;stroke-linecap:round;stroke-linejoin:round;stroke-miterlimit:4;stroke-dasharray:none;stroke-dashoffset:0;stroke-opacity:1" id="path6743" d="M 11.99422,2.0050767 L 3.9955337,4.2550775 L 3.9955337,15.126053 L 10.034576,17.469804 L 10.034575,44.649174 L 14.939336,46.086674 L 19.995619,44.649174 L 19.99562,17.469805 L 25.954569,15.126054 L 25.954569,4.2550782 L 18.077816,2.0050769 L 18.077816,10.06574 L 11.99422,10.06574 L 11.99422,2.0050767 z"/><path style="opacity:1;fill:#000;fill-opacity:1;stroke:#fff;stroke-width:4;stroke-linecap:round;stroke-linejoin:round;stroke-miterlimit:4;stroke-dasharray:none;stroke-dashoffset:0;stroke-opacity:1" id="path6745" d="M 34.032561,2.0714293 L 34.032561,8.6270133 L 35.032561,8.6270131 L 35.032561,26.151429 C 33.300612,26.619853 31.961132,28.173574 31.961132,30.057679 L 31.961132,42.36125 C 31.961132,44.616822 33.768059,45.92375 36.023632,45.92375 L 40.030721,45.92375 C 42.286293,45.92375 44.09322,44.616823 44.09322,42.36125 L 44.093221,30.057679 C 44.093221,28.173574 42.82517,26.619854 41.093221,26.151429 L 41.093221,8.6270133 L 42.093221,8.6270133 L 42.093221,2.0714286 L 34.032561,2.0714293 z"/></g></svg>