<svg xmlns="http://www.w3.org/2000/svg" xmlns:cc="http://web.resource.org/cc/" xmlns:svg="http://www.w3.org/2000/svg" id="svg4932" width="48" height="48"><metadata id="metadata4937"/><g id="layer1"><rect style="opacity:1;fill:#000;fill-opacity:1;stroke:#fff;stroke-width:4;stroke-linecap:round;stroke-linejoin:round;stroke-miterlimit:4;stroke-dasharray:none;stroke-dashoffset:0;stroke-opacity:1" id="rect4940" width="36" height="31" x="2" y="6"/><rect style="opacity:1;fill:#fff;fill-opacity:1;stroke:none;stroke-width:4;stroke-linecap:round;stroke-linejoin:round;stroke-miterlimit:4;stroke-dasharray:none;stroke-dashoffset:0;stroke-opacity:1" id="rect4978" width="26" height="21" x="7" y="11"/><g id="g4962" transform="matrix(0.5512367,0,0,0.5512367,23.463705,19.745585)"><g style="display:none" id="g4964"><path id="path5587" d="M 37.173913 21.717392 A 13.532609 11.673913 0 1 1 10.108695,21.717392 A 13.532609 11.673913 0 1 1 37.173913 21.717392 z" style="fill:#000;fill-opacity:1;fill-rule:evenodd;stroke:none;stroke-width:1px;stroke-linecap:butt;stroke-linejoin:miter;stroke-opacity:1"/><path style="fill:#000;fill-opacity:1;fill-rule:evenodd;stroke:none;stroke-width:1px;stroke-linecap:butt;stroke-linejoin:miter;stroke-opacity:1" id="path6474" d="M 37.173913 21.717392 A 13.532609 11.673913 0 1 1 10.108695,21.717392 A 13.532609 11.673913 0 1 1 37.173913 21.717392 z" transform="translate(0,11.6087)"/><rect id="rect6476" width="27.174" height="12.043" x="10" y="22" rx="0" ry="0" style="fill:#000;fill-opacity:1;fill-rule:evenodd;stroke:none;stroke-width:1px;stroke-linecap:butt;stroke-linejoin:miter;stroke-opacity:1"/><path id="path7363" d="M 14.347826,22.043478 A 8.73913,8.73913 0 0 1 23.086956,13.304348 L 23.086956,22.043478 z" transform="translate(-1.086956,0)" style="fill:#fff;fill-opacity:1;fill-rule:evenodd;stroke:none;stroke-width:1px;stroke-linecap:butt;stroke-linejoin:miter;stroke-opacity:1"/><path style="fill:#fff;fill-opacity:1;fill-rule:evenodd;stroke:none;stroke-width:1px;stroke-linecap:butt;stroke-linejoin:miter;stroke-opacity:1" id="path8250" d="M 14.347826,22.043478 A 8.73913,8.73913 0 0 1 23.086956,13.304348 L 23.086956,22.043478 z" transform="matrix(-1,0,0,1,48.34783,0)"/><path id="path8252" d="M 13,24 L 34,24 L 34,34 C 34,34 33.863828,41 24,41 C 14.055145,41 13,34 13,34 L 13,24" style="fill:#fff;fill-opacity:1;fill-rule:evenodd;stroke:none;stroke-width:1px;stroke-linecap:butt;stroke-linejoin:miter;stroke-opacity:1"/></g><g style="display:inline" id="layer2" transform="matrix(1.0500915,0,0,1.0659734,-3.534574,-3.3815619)"><path style="fill:#fff;fill-opacity:1;fill-rule:evenodd;stroke:#fff;stroke-width:13.71718884;stroke-linecap:butt;stroke-linejoin:miter;stroke-miterlimit:4;stroke-dasharray:none;stroke-opacity:1" id="path4555" d="M 21.168006,-1.5002357 C 4.318558,-1.5002357 4.2925373,11.153024 4.2925373,11.153024 L 4.2925373,31.858359 C 4.2925373,31.858359 4.107474,44.449103 21.115598,44.449103 C 37.967796,44.449103 38.043474,31.858359 38.043474,31.858359 L 38.043474,11.153024 C 38.043474,11.153024 38.174676,-1.5002357 21.168006,-1.5002357 z"/><path id="path1875" d="M 21.568144,-1.5002357 C 4.3191765,-1.5002357 4.2925388,11.153025 4.2925388,11.153025 L 4.2925388,31.858359 C 4.2925388,31.858359 4.1030875,44.449104 21.514493,44.449104 C 38.766277,44.449104 38.843748,31.858359 38.843748,31.858359 L 38.843748,11.153025 C 38.843748,11.153025 38.978061,-1.5002357 21.568144,-1.5002357 z" style="fill:#000;fill-opacity:1;fill-rule:evenodd;stroke:none;stroke-width:1px;stroke-linecap:butt;stroke-linejoin:miter;stroke-opacity:1"/><path style="fill:none;fill-rule:evenodd;stroke:#fff;stroke-width:2.00000001;stroke-linecap:butt;stroke-linejoin:miter;stroke-opacity:1;stroke-miterlimit:4;stroke-dasharray:none" id="path5971" d="M 34,16 L 34,27" transform="matrix(1.7275663,0,0,1.7018274,-37.169139,-30.431301)"/></g></g><path style="fill:none;fill-rule:evenodd;stroke:#fff;stroke-width:3;stroke-linecap:butt;stroke-linejoin:miter;stroke-miterlimit:4;stroke-dasharray:none;stroke-opacity:1" id="path5969" d="M 24,26.5625 L 44,26.5"/><rect style="opacity:.6;fill:none;fill-opacity:.8093385;stroke:none;stroke-width:1;stroke-linecap:round;stroke-linejoin:round;stroke-miterlimit:4;stroke-dasharray:none;stroke-opacity:.70588235" id="rect2170" width="48" height="48" x="0" y="0" rx="0" ry="0"/></g></svg>