<svg xmlns="http://www.w3.org/2000/svg" xmlns:svg="http://www.w3.org/2000/svg" id="svg1307" width="48" height="48" version="1.1"><metadata id="metadata1312"/><g id="layer1"><g id="g3600" transform="matrix(0.83333333,0,0,0.83333333,7.0000001,7.1666668)"><rect id="rect2190" width="48" height="48" x="0" y="0" ry="0" style="fill:none;stroke:none"/><path style="fill:none;stroke:#fff;stroke-width:20;stroke-linecap:butt;stroke-linejoin:miter;stroke-miterlimit:4;stroke-opacity:1;stroke-dasharray:none" id="path5706" d="m 37,24 c 0,7.179702 -5.820298,13 -13,13 -7.179702,0 -13,-5.820298 -13,-13 0,-7.179702 5.820298,-13 13,-13 7.179702,0 13,5.820298 13,13 z"/><path id="path3954" d="m 37,24 c 0,7.179702 -5.820298,13 -13,13 -7.179702,0 -13,-5.820298 -13,-13 0,-7.179702 5.820298,-13 13,-13 7.179702,0 13,5.820298 13,13 z" style="fill:none;stroke:#000;stroke-width:12;stroke-linecap:butt;stroke-linejoin:miter;stroke-miterlimit:4;stroke-opacity:1;stroke-dasharray:none"/><path id="path4829" d="m 30.5,12.74167 c 3.327883,1.921354 5.635222,5.216576 6.302501,9.000904" style="fill:none;stroke:#fff;stroke-width:6;stroke-linecap:butt;stroke-linejoin:miter;stroke-miterlimit:4;stroke-opacity:1;stroke-dasharray:none"/><path style="fill:none;stroke:#fff;stroke-width:6;stroke-linecap:butt;stroke-linejoin:miter;stroke-miterlimit:4;stroke-opacity:1;stroke-dasharray:none" id="path5704" d="M 17.5,35.25833 C 14.172118,33.336977 11.864779,30.041755 11.197499,26.257427"/></g><path style="fill:#000;fill-opacity:1;stroke:#fff;stroke-width:1.4182502;stroke-linejoin:miter;stroke-miterlimit:4;stroke-opacity:1;stroke-dasharray:none" id="path2824" d="m 14.011106,12.993649 -5.8607387,-1.987434 -4.959743,3.70123 0.079094,-6.1880447 -5.0527237,-3.5732529 5.9096217,-1.836988 1.8369879,-5.9096216 3.573253,5.0527237 6.1880446,-0.079094 -3.70123,4.959743 1.987434,5.8607387 z" transform="matrix(1.1820191,0.13740334,-0.14338937,1.1326739,5.3017555,5.6499229)"/></g></svg>