<svg xmlns="http://www.w3.org/2000/svg" xmlns:cc="http://web.resource.org/cc/" xmlns:svg="http://www.w3.org/2000/svg" id="svg4908" width="48" height="48"><metadata id="metadata4913"/><g id="layer1"><rect style="opacity:1;fill:#fff;fill-opacity:1;stroke:none;stroke-width:3;stroke-linecap:round;stroke-linejoin:miter;stroke-miterlimit:4;stroke-dasharray:none;stroke-dashoffset:0;stroke-opacity:1" id="rect5909" width="10.607" height="9" x="-17.324" y="-3.272" rx=".727" ry=".727" transform="matrix(-0.7071068,-0.7071068,0.7071068,-0.7071068,0,0)"/><rect style="opacity:1;fill:#fff;fill-opacity:1;stroke:none;stroke-width:3;stroke-linecap:round;stroke-linejoin:miter;stroke-miterlimit:4;stroke-dasharray:none;stroke-dashoffset:0;stroke-opacity:1" id="rect5905" width="10.607" height="9" x="51.265" y="-3.607" rx=".727" ry=".727" transform="matrix(0.7071068,0.7071068,-0.7071068,0.7071068,0,0)"/><rect style="opacity:1;fill:#fff;fill-opacity:1;stroke:none;stroke-width:3;stroke-linecap:round;stroke-linejoin:miter;stroke-miterlimit:4;stroke-dasharray:none;stroke-dashoffset:0;stroke-opacity:1" id="rect5917" width="10.607" height="9" x="16.803" y="-37.027" rx=".727" ry=".727" transform="matrix(0.7071068,-0.7071068,-0.7071068,-0.7071068,0,0)"/><rect style="opacity:1;fill:#fff;fill-opacity:1;stroke:none;stroke-width:3;stroke-linecap:round;stroke-linejoin:miter;stroke-miterlimit:4;stroke-dasharray:none;stroke-dashoffset:0;stroke-opacity:1" id="rect5919" width="10.607" height="9" x="17.138" y="30.148" rx=".727" ry=".727" transform="matrix(-0.7071068,0.7071068,0.7071068,0.7071068,0,0)"/><rect style="opacity:1;fill:#fff;fill-opacity:1;stroke:none;stroke-width:3;stroke-linecap:round;stroke-linejoin:miter;stroke-miterlimit:4;stroke-dasharray:none;stroke-dashoffset:0;stroke-opacity:1" id="rect5903" width="10.607" height="9" x="37.393" y="22" rx=".727" ry=".727"/><rect style="opacity:1;fill:#fff;fill-opacity:1;stroke:none;stroke-width:3;stroke-linecap:round;stroke-linejoin:miter;stroke-miterlimit:4;stroke-dasharray:none;stroke-dashoffset:0;stroke-opacity:1" id="rect5901" width="10.607" height="9" x="0" y="22" rx=".727" ry=".727"/><path style="opacity:1;fill:#fff;fill-opacity:1;stroke:#fff;stroke-width:2.80079722;stroke-linecap:round;stroke-linejoin:miter;stroke-miterlimit:4;stroke-dasharray:none;stroke-dashoffset:0;stroke-opacity:1" id="path5899" d="M 45.214287 23.214285 A 17.428572 17.428572 0 1 1 10.357143,23.214285 A 17.428572 17.428572 0 1 1 45.214287 23.214285 z" transform="matrix(0.9754098,0,0,1.1762295,-3.6024599,-1.3053269)"/><path style="fill:none;fill-rule:evenodd;stroke:#000;stroke-width:3;stroke-linecap:butt;stroke-linejoin:miter;stroke-miterlimit:4;stroke-dasharray:none;stroke-opacity:1" id="path5913" d="M 41.5,42.41691 L 7.2724874,5.4999996"/><path style="fill:none;fill-rule:evenodd;stroke:#000;stroke-width:3.00000048;stroke-linecap:butt;stroke-linejoin:miter;stroke-miterlimit:4;stroke-dasharray:none;stroke-opacity:1" id="path5887" d="M 3.0733193,26.5 L 45.127417,26.5"/><path style="fill:none;fill-rule:evenodd;stroke:#000;stroke-width:3;stroke-linecap:butt;stroke-linejoin:miter;stroke-miterlimit:4;stroke-dasharray:none;stroke-opacity:1" id="path5921" d="M 6.500003,42.153538 L 40.727515,5.236628"/><path style="opacity:1;fill:#fff;fill-opacity:1;stroke:#000;stroke-width:3.3404119;stroke-linecap:round;stroke-linejoin:miter;stroke-miterlimit:4;stroke-dasharray:none;stroke-dashoffset:0;stroke-opacity:1" id="path4916" d="M 45.214287 23.214285 A 17.428572 17.428572 0 1 1 10.357143,23.214285 A 17.428572 17.428572 0 1 1 45.214287 23.214285 z" transform="matrix(0.8032787,0,0,1.0040983,1.1803276,2.6905748)"/><path style="fill:none;fill-rule:evenodd;stroke:#000;stroke-width:4;stroke-linecap:butt;stroke-linejoin:miter;stroke-miterlimit:4;stroke-dasharray:none;stroke-opacity:1" id="path5893" d="M 24,20 L 24,43.52"/><path style="fill:#000;fill-opacity:1;fill-rule:evenodd;stroke:none;stroke-width:1px;stroke-linecap:butt;stroke-linejoin:miter;stroke-opacity:1" id="path5897" d="M 8.5625,21 L 38.4375,21 C 38.4375,21 35.5,6.9999996 23.6875,7.0624996 C 11.8125,7.1249996 8.5625,21 8.5625,21 z"/><rect style="opacity:.6;fill:none;fill-opacity:.8093385;stroke:none;stroke-width:1;stroke-linecap:round;stroke-linejoin:round;stroke-miterlimit:4;stroke-dasharray:none;stroke-opacity:.70588235" id="rect2170" width="48" height="48" x="0" y="0" rx="0" ry="0"/></g></svg>