<svg xmlns="http://www.w3.org/2000/svg" xmlns:cc="http://web.resource.org/cc/" xmlns:svg="http://www.w3.org/2000/svg" xmlns:xlink="http://www.w3.org/1999/xlink" id="svg1900" width="48" height="48"><metadata id="metadata1905"/><g id="layer1"><rect style="fill:none;fill-opacity:1;fill-rule:evenodd;stroke:none;stroke-width:1px;stroke-linecap:butt;stroke-linejoin:miter;stroke-opacity:1" id="rect3687" width="48" height="48" x="0" y="0" rx="0" ry="0"/><rect id="rect3684" width="39.989" height="32.044" x="4.005" y="3.978" rx="2.835" ry="2.835" style="fill:#000;fill-opacity:1;fill-rule:evenodd;stroke:#000;stroke-width:8.01094437;stroke-linecap:round;stroke-linejoin:round;stroke-miterlimit:4;stroke-dasharray:none;stroke-opacity:1"/><path id="path4578" d="M 22.030715,44.016484 C 26.170649,41.718981 28.178053,39.693237 26.983516,35.571966 L 34.000631,35.538822 C 34.246803,39.711572 30.686453,43.707965 22.030715,44.016484 z" style="fill:#fff;fill-opacity:1;fill-rule:evenodd;stroke:#000;stroke-width:8;stroke-linecap:round;stroke-linejoin:round;stroke-miterlimit:4;stroke-dasharray:none;stroke-opacity:1"/><rect style="fill:#fff;fill-opacity:1;fill-rule:evenodd;stroke:none;stroke-width:1px;stroke-linecap:butt;stroke-linejoin:miter;stroke-opacity:1" id="rect1908" width="40" height="32" x="4" y="4" rx="2.835" ry="2.835"/><path style="fill:#fff;fill-opacity:1;fill-rule:evenodd;stroke:none;stroke-width:1px;stroke-linecap:butt;stroke-linejoin:miter;stroke-opacity:1" id="path2797" d="M 22.030715,44.016484 C 26.170649,41.718981 28.178053,39.693237 26.983516,35.571966 L 34.000631,35.538822 C 34.246803,39.711572 30.686453,43.707965 22.030715,44.016484 z"/><path style="fill:none;fill-opacity:.75;fill-rule:evenodd;stroke:#000;stroke-width:4;stroke-linecap:butt;stroke-linejoin:miter;stroke-miterlimit:4;stroke-dasharray:none;stroke-opacity:1" id="path6369" d="M 36.590163 15.04918 A 5.8032789 5.8032789 0 1 1 24.983605,15.04918 A 5.8032789 5.8032789 0 1 1 36.590163 15.04918 z" transform="translate(-15.98361,0)"/><rect style="fill:#000;fill-opacity:1;fill-rule:evenodd;stroke:none;stroke-width:1px;stroke-linecap:butt;stroke-linejoin:miter;stroke-opacity:1" id="rect7258" width="5.246" height="10.721" x="2.799" y="27.167" rx="2.835" ry="2.835" transform="matrix(0.866025,-0.5,0.5,0.866025,0,0)"/><path style="fill:#000;fill-opacity:1;fill-rule:evenodd;stroke:none;stroke-width:1px;stroke-linecap:butt;stroke-linejoin:miter;stroke-opacity:1" id="path5458" d="M 12.885246 10.008197 A 2.8934426 2.9590166 0 1 1 7.0983605,10.008197 A 2.8934426 2.9590166 0 1 1 12.885246 10.008197 z" transform="translate(20.11475,1.95082)"/><use id="use6359" width="48" height="48" x="0" y="0" transform="translate(1.999817e-7,16)" xlink:href="#path5458"/><use id="use6361" width="48" height="48" x="0" y="0" transform="translate(8,8)" xlink:href="#path5458"/></g></svg>