<svg xmlns="http://www.w3.org/2000/svg" xmlns:cc="http://web.resource.org/cc/" xmlns:svg="http://www.w3.org/2000/svg" id="svg1306" width="48" height="48"><metadata id="metadata1311"/><g id="layer1"><rect style="fill:none;fill-opacity:.75;fill-rule:evenodd;stroke:none;stroke-width:1px;stroke-linecap:butt;stroke-linejoin:miter;stroke-opacity:1" id="rect5680" width="48" height="48" x="0" y="0" ry="0"/><path style="fill:#000;fill-opacity:1;fill-rule:evenodd;stroke:#fff;stroke-width:8;stroke-linecap:round;stroke-linejoin:round;stroke-miterlimit:4;stroke-dasharray:none;stroke-opacity:1" id="path3560" d="M 18.079663,21.000000 L 41.920337,21.000000 C 43.072470,21.000000 44.000000,21.955735 44.000000,23.142904 L 44.000000,44.000000 L 16.000000,44.000000 L 16.000000,23.142904 C 16.000000,21.955735 16.927529,21.000000 18.079663,21.000000 z"/><g id="g3553"><path style="fill:#000;fill-opacity:1;fill-rule:evenodd;stroke:#fff;stroke-width:8;stroke-linecap:round;stroke-linejoin:round;stroke-opacity:1;stroke-miterlimit:4;stroke-dasharray:none" id="path2097" d="M 6.0796626,4.0000000 L 27.920337,4.0000000 C 29.072470,4.0000000 30.000000,4.9557351 30.000000,6.1429038 L 30.000000,27.000000 L 4.0000000,27.000000 L 4.0000000,6.1429038 C 4.0000000,4.9557351 4.9275295,4.0000000 6.0796626,4.0000000 z"/><path id="rect1368" d="M 6.0796626,4.0000000 L 27.920337,4.0000000 C 29.072470,4.0000000 30.000000,4.9557351 30.000000,6.1429038 L 30.000000,27.000000 L 4.0000000,27.000000 L 4.0000000,6.1429038 C 4.0000000,4.9557351 4.9275295,4.0000000 6.0796626,4.0000000 z" style="fill:#000;fill-opacity:1;fill-rule:evenodd;stroke:none;stroke-width:1px;stroke-linecap:butt;stroke-linejoin:miter;stroke-opacity:1"/><path style="fill:#fff;fill-opacity:1;fill-rule:evenodd;stroke:none;stroke-width:1px;stroke-linecap:butt;stroke-linejoin:miter;stroke-opacity:1" id="path2825" d="M 9.0000000,8.0000000 L 25.000000,8.0000000 C 26.000000,8.0000000 26.000000,7.8128313 26.000000,9.0000000 L 26.000000,23.000000 L 8.0000000,23.000000 L 8.0000000,9.0000000 C 8.0000000,8.0000000 8.0000000,8.0000000 9.0000000,8.0000000 z"/></g><path id="path3562" d="M 18.079663,21.000000 L 41.920337,21.000000 C 43.072470,21.000000 44.000000,21.955735 44.000000,23.142904 L 44.000000,44.000000 L 16.000000,44.000000 L 16.000000,23.142904 C 16.000000,21.955735 16.927529,21.000000 18.079663,21.000000 z" style="fill:#000;fill-opacity:1;fill-rule:evenodd;stroke:none;stroke-width:1px;stroke-linecap:butt;stroke-linejoin:miter;stroke-opacity:1"/><path style="fill:#fff;fill-opacity:1;fill-rule:evenodd;stroke:none;stroke-width:1px;stroke-linecap:butt;stroke-linejoin:miter;stroke-opacity:1" id="path3564" d="M 21.000000,25.000000 L 39.000000,25.000000 C 40.000000,25.000000 40.000000,24.812831 40.000000,26.000000 L 40.000000,40.000000 L 20.000000,40.000000 L 20.000000,26.000000 C 20.000000,25.000000 20.000000,25.000000 21.000000,25.000000 z"/><path style="fill:none;fill-opacity:.75;fill-rule:evenodd;stroke:#000;stroke-width:4;stroke-linecap:round;stroke-linejoin:round;stroke-opacity:1;stroke-miterlimit:4;stroke-dasharray:none" id="path3571" d="M 12.000000,12.000000 L 22.000000,12.000000"/><path id="path4299" d="M 24.000000,29.000000 L 36.529644,29.000000" style="fill:none;fill-opacity:.75;fill-rule:evenodd;stroke:#000;stroke-width:4;stroke-linecap:round;stroke-linejoin:round;stroke-miterlimit:4;stroke-dasharray:none;stroke-opacity:1"/></g></svg>