<svg xmlns="http://www.w3.org/2000/svg" xmlns:svg="http://www.w3.org/2000/svg" xmlns:xlink="http://www.w3.org/1999/xlink" id="svg2" width="48" height="48" version="1.1" viewBox="0 0 38.4 38.4"><metadata id="metadata4"/><rect id="rect16" width="32.11" height="38.406" x="3.255" y="-.001" ry=".158" style="fill:#000;stroke:none"/><path style="fill:none;stroke:#fff;stroke-width:0;stroke-linecap:round;stroke-linejoin:round;stroke-miterlimit:4;stroke-dasharray:none" id="rect18" d="m 3.2446687,-1.5590837 0,40.6857447 32.1298603,0 0,-40.6857447 -32.1298603,0 z"/><path id="path20" d="m 15.289632,7.4869871 8.060035,0 c 1.712092,0 3.100014,0.9772104 3.100014,2.18266 l 0,5.8931809 c 0,1.20545 -1.387922,2.18266 -3.100014,2.18266 l -8.060035,0 c -1.712091,0 -3.100013,-0.97721 -3.100013,-2.18266 0,0 0,-10e-7 0,-10e-7 l 0,-5.8931799 c 0,-1.2054496 1.387922,-2.18266 3.100013,-2.18266 z" style="fill:#fff;stroke:none"/><path style="fill:#fff;stroke:none" id="path2846" d="m 29.102034,5.0911333 1.951731,0 c 0.414582,0 0.750666,-0.3516859 0.750666,-0.7855131 l 0,-2.1208848 c 0,-0.4338272 -0.336084,-0.7855131 -0.750666,-0.7855131 l -1.951731,0 c -0.414581,0 -0.750666,0.3516859 -0.750666,0.7855131 0,0 0,0 0,0 l 0,2.1208848 c 0,0.4338272 0.336085,0.7855131 0.750666,0.7855131 z"/><path style="fill:#fff;stroke:none" id="path2850" d="m 29.102034,9.3781165 1.951731,0 c 0.414582,0 0.750666,0.3516851 0.750666,0.7855125 l 0,2.120885 c 0,0.433827 -0.336084,0.785513 -0.750666,0.785513 l -1.951731,0 c -0.414581,0 -0.750666,-0.351686 -0.750666,-0.785513 0,0 0,0 0,0 l 0,-2.120885 c 0,-0.4338274 0.336085,-0.7855125 0.750666,-0.7855125 z"/><path id="path2852" d="m 29.102034,17.357012 1.951731,0 c 0.414582,0 0.750666,0.351685 0.750666,0.785512 l 0,2.120885 c 0,0.433827 -0.336084,0.785513 -0.750666,0.785513 l -1.951731,0 c -0.414581,0 -0.750666,-0.351686 -0.750666,-0.785513 0,0 0,0 0,0 l 0,-2.120885 c 0,-0.433827 0.336085,-0.785512 0.750666,-0.785512 z" style="fill:#fff;stroke:none"/><path style="fill:#fff;stroke:none" id="path2854" d="m 29.102034,25.335907 1.951731,0 c 0.414582,0 0.750666,0.351685 0.750666,0.785512 l 0,2.120885 c 0,0.433827 -0.336084,0.785513 -0.750666,0.785513 l -1.951731,0 c -0.414581,0 -0.750666,-0.351686 -0.750666,-0.785513 0,0 0,0 0,0 l 0,-2.120885 c 0,-0.433827 0.336085,-0.785512 0.750666,-0.785512 z"/><path id="path2856" d="m 29.102034,33.314802 1.951731,0 c 0.414582,0 0.750666,0.351685 0.750666,0.785512 l 0,2.120885 c 0,0.433827 -0.336084,0.785513 -0.750666,0.785513 l -1.951731,0 c -0.414581,0 -0.750666,-0.351686 -0.750666,-0.785513 0,0 0,0 0,0 l 0,-2.120885 c 0,-0.433827 0.336085,-0.785512 0.750666,-0.785512 z" style="fill:#fff;stroke:none"/><path id="path2969" d="m 6.9096236,5.0911332 1.9517313,0 c 0.4145815,0 0.7506662,-0.3516859 0.7506662,-0.7855131 l 0,-2.1208848 c 0,-0.4338272 -0.3360847,-0.7855131 -0.7506662,-0.7855131 l -1.9517313,0 c -0.4145807,0 -0.7506655,0.3516859 -0.7506655,0.7855131 0,0 0,0 0,0 l 0,2.1208848 c 0,0.4338272 0.3360856,0.7855131 0.7506655,0.7855131 z" style="fill:#fff;stroke:none"/><path id="path3002" d="m 6.9096237,9.296228 1.9517312,0 c 0.4145815,0 0.7506662,0.3516851 0.7506662,0.785512 l 0,2.120885 c 0,0.433827 -0.3360847,0.785513 -0.7506662,0.785513 l -1.9517312,0 c -0.4145807,0 -0.7506655,-0.351686 -0.7506655,-0.785513 0,0 0,0 0,0 l 0,-2.120885 c 0,-0.4338269 0.3360848,-0.785512 0.7506655,-0.785512 z" style="fill:#fff;stroke:none"/><path style="fill:#fff;stroke:none" id="path3004" d="m 6.9096236,17.193231 1.9517313,0 c 0.4145815,0 0.7506662,0.351685 0.7506662,0.785512 l 0,2.120885 c 0,0.433827 -0.3360847,0.785513 -0.7506662,0.785513 l -1.9517312,0 c -0.4145807,0 -0.7506656,-0.351686 -0.7506656,-0.785513 0,0 0,0 0,0 l 0,-2.120885 c 0,-0.433827 0.3360849,-0.785512 0.7506656,-0.785512 z"/><path id="path3006" d="m 6.9096237,25.090235 1.9517312,0 c 0.4145815,0 0.7506662,0.351685 0.7506662,0.785512 l 0,2.120885 c 0,0.433827 -0.3360847,0.785513 -0.7506662,0.785513 l -1.9517312,0 c -0.4145807,0 -0.7506655,-0.351686 -0.7506655,-0.785513 0,0 0,0 0,0 l 0,-2.120885 c 0,-0.433827 0.3360848,-0.785512 0.7506655,-0.785512 z" style="fill:#fff;stroke:none"/><path style="fill:#fff;stroke:none" id="path3008" d="m 6.9096237,32.987239 1.9517312,0 c 0.4145815,0 0.7506662,0.351685 0.7506662,0.785512 l 0,2.120885 c 0,0.433827 -0.3360847,0.785513 -0.7506662,0.785513 l -1.9517312,0 c -0.4145807,0 -0.7506655,-0.351686 -0.7506655,-0.785513 0,0 0,0 0,0 l 0,-2.120885 c 0,-0.433827 0.3360848,-0.785512 0.7506655,-0.785512 z"/><use id="use3014" width="48" height="48" x="0" y="0" transform="translate(0,13.855509)" xlink:href="#path20"/><path style="fill:#fff;stroke:none" id="use3016" d="m 12.183051,0.01496578 0,1.79738402 c 0,1.1449498 1.388159,2.0842007 3.10025,2.0842007 l 8.072728,0 c 1.712091,0 3.100249,-0.9392508 3.100249,-2.0842007 l 0,-1.79738402 -14.273227,0 z"/><path style="fill:#fff;stroke:none" id="use3018" d="m 15.283301,35.20102 c -1.712091,0 -3.10025,0.75206 -3.10025,1.687875 l 0,1.500334 14.273227,0 0,-1.500334 c 0,-0.935815 -1.388158,-1.687875 -3.100249,-1.687875 l -8.072728,0 z"/><path style="fill:none;stroke:#fff;stroke-width:2.56910801;stroke-linecap:butt;stroke-linejoin:miter;stroke-miterlimit:4;stroke-opacity:1;stroke-dasharray:none" id="path3810" d="m 1.9663254,0.00204009 0,38.40041891"/><path id="path3812" d="m 36.631684,0.00539301 0,38.38690099" style="fill:none;stroke:#fff;stroke-width:2.56865597;stroke-linecap:butt;stroke-linejoin:miter;stroke-miterlimit:4;stroke-opacity:1;stroke-dasharray:none"/></svg>