<svg xmlns="http://www.w3.org/2000/svg" xmlns:svg="http://www.w3.org/2000/svg" id="svg3304" width="48" height="48"><metadata id="metadata3309"/><g id="layer1"><rect style="fill:none;fill-opacity:.31854838000000002;stroke:none;stroke-width:3;stroke-linecap:round;stroke-linejoin:round;stroke-miterlimit:4;stroke-dasharray:none;stroke-opacity:1" id="rect2381" width="48.133" height="48.133" x="0" y="0"/><path id="path3668" d="M 13,29 L 5,29 L 5,16 C 5,14 6,13 8,13 L 40,13 C 42,13 43,14 43,16 L 43,29 L 35,29 L 35,22 C 35,22 35,21 34,21 L 14,21 C 13,21 13,22 13,22 L 13,29 z" style="fill:none;fill-rule:evenodd;stroke:#fff;stroke-width:8;stroke-linecap:round;stroke-linejoin:round;stroke-opacity:1;marker-start:none;fill-opacity:1;stroke-miterlimit:4;stroke-dasharray:none"/><rect id="rect2384" width="16" height="5" x="16" y="24" ry="2.055" style="fill:none;fill-opacity:1;stroke:#fff;stroke-width:8;stroke-linecap:round;stroke-linejoin:round;stroke-miterlimit:4;stroke-dasharray:none;stroke-opacity:1"/><path style="fill:#000;fill-rule:evenodd;stroke:none;stroke-width:1px;stroke-linecap:butt;stroke-linejoin:miter;stroke-opacity:1;marker-start:none;fill-opacity:1" id="path3155" d="M 13,29 L 5,29 L 5,16 C 5,14 6,13 8,13 L 40,13 C 42,13 43,14 43,16 L 43,29 L 35,29 L 35,22 C 35,22 35,21 34,21 L 14,21 C 13,21 13,22 13,22 L 13,29 z"/><rect style="fill:#000;fill-opacity:1;stroke:none;stroke-width:8;stroke-linecap:round;stroke-linejoin:round;stroke-miterlimit:4;stroke-dasharray:none;stroke-opacity:1" id="rect3670" width="16" height="5" x="16" y="24" ry="2.055"/></g></svg>