<svg xmlns="http://www.w3.org/2000/svg" xmlns:cc="http://web.resource.org/cc/" xmlns:svg="http://www.w3.org/2000/svg" id="svg3304" width="48" height="48"><metadata id="metadata3309"/><g id="layer1"><path style="opacity:1;fill:#000;fill-opacity:1;stroke:#fff;stroke-width:4;stroke-linecap:round;stroke-linejoin:round;stroke-miterlimit:4;stroke-dasharray:none;stroke-dashoffset:0;stroke-opacity:1" id="rect4337" d="M 24 2.0625 C 16.271999 2.0625 9.9999999 8.3229641 10 16.03125 C 10 20.477656 12.094241 24.442056 15.34375 27 L 10.34375 27 C 5.7138931 27 2 31.237 2 36.5 L 2 46 L 46 46 L 46 36.5 C 46 31.237002 42.286108 27 37.65625 27 L 32.65625 27 C 35.905759 24.442056 38.000001 20.477656 38 16.03125 C 38 8.3229641 31.728002 2.0625 24 2.0625 z"/><path style="font-size:30.34267998px;font-style:normal;font-variant:normal;font-weight:700;font-stretch:normal;text-align:start;line-height:125%;writing-mode:lr-tb;text-anchor:start;fill:#fff;fill-opacity:1;stroke:none;stroke-width:1px;stroke-linecap:butt;stroke-linejoin:miter;stroke-opacity:1;font-family:Bitstream Vera Sans" id="text4342" d="M 25.938551,7.083704 L 25.938551,14.204306 L 32.993807,14.204306 L 32.993807,18.022255 L 25.938551,18.022255 L 25.938551,25.071428 L 22.055257,25.071428 L 22.055257,18.022255 L 15,18.022255 L 15,14.204306 L 22.055257,14.204306 L 22.055257,7.083704 L 25.938551,7.083704"/></g></svg>