<svg xmlns="http://www.w3.org/2000/svg" xmlns:cc="http://web.resource.org/cc/" xmlns:svg="http://www.w3.org/2000/svg" id="svg3304" width="48" height="48"><metadata id="metadata3309"/><g id="layer1"><rect style="fill:none;fill-opacity:.75;fill-rule:evenodd;stroke:none;stroke-width:1px;stroke-linecap:butt;stroke-linejoin:miter;stroke-opacity:1" id="rect3312" width="48" height="48" x="0" y="0" rx="0"/><path id="path7705" d="M 43.988319 24.006371 A 19.994690 19.994690 0 1 1 3.9989395,24.006371 A 19.994690 19.994690 0 1 1 43.988319 24.006371 z" style="fill:#fff;fill-opacity:1;fill-rule:evenodd;stroke:#fff;stroke-width:6;stroke-linecap:butt;stroke-linejoin:miter;stroke-opacity:1;stroke-miterlimit:4;stroke-dasharray:none"/><path style="fill:#000;fill-opacity:1;fill-rule:evenodd;stroke:none;stroke-width:1px;stroke-linecap:butt;stroke-linejoin:miter;stroke-opacity:1" id="path4768" d="M 42.985708 24.006371 A 18.992079 19.117405 0 1 1 5.0015507,24.006371 A 18.992079 19.117405 0 1 1 42.985708 24.006371 z"/><path style="fill:#fff;fill-opacity:1;fill-rule:evenodd;stroke:none;stroke-width:1px;stroke-linecap:butt;stroke-linejoin:miter;stroke-opacity:1" id="path6249" d="M 36.748488 24.000000 A 12.748488 12.748488 0 1 1 11.251512,24.000000 A 12.748488 12.748488 0 1 1 36.748488 24.000000 z" transform="matrix(0.950710,0.000000,0.000000,0.950710,1.182974,1.182974)"/><rect style="fill:#000;fill-opacity:1;fill-rule:evenodd;stroke:none;stroke-width:1px;stroke-linecap:butt;stroke-linejoin:miter;stroke-opacity:1" id="rect6977" width="31.867" height="7.335" x="-15.934" y="30.273" ry="0" transform="matrix(-0.707107,0.707107,0.707107,0.707107,0.000000,0.000000)"/></g></svg>