<svg xmlns="http://www.w3.org/2000/svg" xmlns:cc="http://web.resource.org/cc/" xmlns:svg="http://www.w3.org/2000/svg" id="svg3316" width="48" height="48"><metadata id="metadata3321"/><g id="layer1"><rect style="fill:none;fill-opacity:.39595374;fill-rule:evenodd;stroke:none;stroke-width:1px;stroke-linecap:butt;stroke-linejoin:miter;stroke-opacity:1" id="rect5508" width="48" height="48" x="0" y="0"/><path style="fill:#fff;fill-opacity:1;fill-rule:evenodd;stroke:none;stroke-width:1px;stroke-linecap:butt;stroke-linejoin:miter;stroke-opacity:1" id="path3324" d="M 48.000000 24.000000 A 24.000000 24.000000 0 1 1 0.0000000,24.000000 A 24.000000 24.000000 0 1 1 48.000000 24.000000 z"/><path style="fill:#000;fill-opacity:1;fill-rule:evenodd;stroke:none;stroke-width:1px;stroke-linecap:butt;stroke-linejoin:miter;stroke-opacity:1" id="path4052" d="M 44.000000 24.000000 A 20.000000 20.000000 0 1 1 4.0000000,24.000000 A 20.000000 20.000000 0 1 1 44.000000 24.000000 z"/><path style="fill:#fff;fill-opacity:1;fill-rule:evenodd;stroke:none;stroke-width:1px;stroke-linecap:butt;stroke-linejoin:miter;stroke-opacity:1" id="path4780" d="M 40.000000 24.000000 A 16.000000 16.000000 0 1 1 8.0000000,24.000000 A 16.000000 16.000000 0 1 1 40.000000 24.000000 z"/><path style="fill:none;fill-opacity:.75;fill-rule:evenodd;stroke:#000;stroke-width:7;stroke-linecap:round;stroke-linejoin:miter;stroke-miterlimit:4;stroke-dasharray:none;stroke-opacity:1" id="path6236" d="M 24.000000,24.000000 L 30.000000,30.000000"/><path id="path6964" d="M 24.000000,23.000000 L 24.000000,12.000000" style="fill:none;fill-opacity:.75;fill-rule:evenodd;stroke:#000;stroke-width:6;stroke-linecap:round;stroke-linejoin:miter;stroke-miterlimit:4;stroke-dasharray:none;stroke-opacity:1"/></g></svg>