<svg xmlns="http://www.w3.org/2000/svg" xmlns:svg="http://www.w3.org/2000/svg" id="svg2" width="48" height="48" viewBox="0 0 48 48" xml:space="preserve"><metadata id="metadata19"/><rect style="fill:none;fill-opacity:.44354838000000002;fill-rule:evenodd;stroke:none;stroke-width:1px;stroke-linecap:butt;stroke-linejoin:miter;stroke-opacity:1" id="rect3319" width="48" height="48" x="0" y="0"/><path style="fill:#fff;fill-opacity:1;fill-rule:nonzero;stroke:#fff;stroke-width:12;stroke-linejoin:round;stroke-miterlimit:4;stroke-dasharray:none;stroke-opacity:1" id="path4775" d="M 39,41.125326 L 9,41.125326 L 9,6.1253264 L 26,6.1253264 L 39,20.125326 L 39,41.125326 z"/><path id="path7" d="M 39.000000,41.000000 L 9.0000000,41.000000 L 9.0000000,6.0000000 L 26.000000,6.0000000 L 39.000000,20.000000 L 39.000000,41.000000 z" style="fill:#000;fill-rule:nonzero;stroke:#000;stroke-width:4;stroke-linejoin:round;stroke-miterlimit:4;stroke-dasharray:none;fill-opacity:1"/><path id="path9" d="M 36.991406,20 L 36.996573,39.003906 L 11,39 L 11.016535,8.0181102 L 24.969291,8.0338583 L 36.991406,20 z" style="fill:#fff;fill-rule:nonzero;stroke:none;stroke-miterlimit:4"/><g id="g3285" transform="matrix(-0.4999999,-0.8660254,0.8660254,-0.4999999,13.481629,56.411881)"><path id="path2461" d="M 30.908406,17.288836 L 28.042381,20.252938 C 27.676355,18.886912 25.078279,17.386913 23.712253,17.752938 L 24.846228,13.788836 L 19.5161,13.020887 L 20.265435,18.079122 C 19.672684,18.312176 18.718815,18.844118 18.248152,19.21704 L 14.418024,15.851015 L 11.418024,21.047168 L 16.248152,22.681142 C 16.117131,23.269427 16.191325,24.270343 16.277856,24.934122 L 11.516101,26.877295 L 14.846229,31.109346 L 17.712254,28.145244 C 18.078279,29.511269 20.676356,31.011269 22.042381,30.645244 L 20.908407,34.609346 L 26.238534,35.377294 L 25.640458,30.413193 C 26.520309,30.097906 26.824499,29.793582 27.506483,29.181142 L 31.336611,32.547167 L 34.33661,27.351014 L 29.506483,25.71704 C 29.637504,25.128756 29.726987,24.148769 29.640457,23.484989 L 34.238534,21.520887 L 30.908406,17.288836 z M 23.983271,26.681806 C 22.606842,27.276659 20.968543,26.659386 20.32263,25.289613 C 19.676716,23.91984 20.345049,22.274885 21.714822,21.628971 C 23.091251,21.034118 24.72955,21.651391 25.375464,23.021164 C 25.970318,24.397593 25.353045,26.035892 23.983271,26.681806 z" style="fill-rule:nonzero;stroke:none;stroke-miterlimit:4"/></g></svg>