<svg xmlns="http://www.w3.org/2000/svg" xmlns:cc="http://web.resource.org/cc/" xmlns:svg="http://www.w3.org/2000/svg" id="svg2" width="48" height="48" version="1.0" viewBox="0 0 48 48" xml:space="preserve"><metadata id="metadata17"/><rect style="opacity:.6;fill:none;fill-opacity:1;stroke:none;stroke-width:1;stroke-linecap:round;stroke-linejoin:round;stroke-miterlimit:4;stroke-dasharray:none;stroke-opacity:.70588235" id="rect2169" width="48" height="48" x="0" y="0"/><path id="path3149" d="M 40,27 C 41.3,25.8 41.4,24.5 42,23 L 40,17 L 34,23 L 27,21 L 25,14 L 31,8 L 25,6 C 23.5,6.6 22.2,7.8 21,9 C 17.2,12.8 16.1,18.3 18,23 L 7,34 C 5.1,35.9 5.1,39.1 7,41 C 8.9,42.9 12.1,42.9 14,41 L 25,30 C 29.7,32 36.2,30.8 40,27 z" style="fill-rule:nonzero;stroke:#fff;stroke-miterlimit:4;fill:#fff;fill-opacity:1;stroke-opacity:1;stroke-linejoin:round;stroke-linecap:round;stroke-width:8;stroke-dasharray:none"/><path style="fill-rule:nonzero;stroke:none;stroke-miterlimit:4" id="path9" d="M 40,27 C 41.3,25.8 41.4,24.5 42,23 L 40,17 L 34,23 L 27,21 L 25,14 L 31,8 L 25,6 C 23.5,6.6 22.2,7.8 21,9 C 17.2,12.8 16.1,18.3 18,23 L 7,34 C 5.1,35.9 5.1,39.1 7,41 C 8.9,42.9 12.1,42.9 14,41 L 25,30 C 29.7,32 36.2,30.8 40,27 z"/><path style="opacity:1;fill:#fff;fill-opacity:1;stroke:none;stroke-width:1;stroke-linecap:round;stroke-linejoin:round;stroke-miterlimit:4;stroke-dasharray:none;stroke-opacity:.70588235" id="path2176" d="M 12 38 A 2 2 0 1 1 8,38 A 2 2 0 1 1 12 38 z"/></svg>