<svg xmlns="http://www.w3.org/2000/svg" xmlns:cc="http://web.resource.org/cc/" xmlns:svg="http://www.w3.org/2000/svg" id="svg2" width="48" height="48" version="1.0" viewBox="0 0 48 48" xml:space="preserve"><metadata id="metadata25"/><path id="path4837" d="M 40,39 L 12,39 L 8,35 L 8,8 L 40,8 L 40,39 z" style="fill:none;fill-rule:nonzero;stroke:#fff;stroke-width:14;stroke-linecap:round;stroke-linejoin:round;stroke-miterlimit:4;stroke-dasharray:none;stroke-opacity:1"/><path style="fill:none;fill-rule:nonzero;stroke:#000;stroke-width:6;stroke-linecap:round;stroke-linejoin:round;stroke-miterlimit:4;stroke-dasharray:none" id="path9" d="M 40,39 L 12,39 L 8,35 L 8,8 L 40,8 L 40,39 z"/><path style="fill-rule:nonzero;stroke:none;stroke-miterlimit:4" id="path11" d="M 39.8,38.7 L 12,38.7 L 8.2,34.9 L 8.2,8.8 L 39.8,8.8 L 39.8,38.7 z"/><g id="crop_x0020_marks" style="fill-rule:nonzero;stroke:#000;stroke-miterlimit:4"><path style="fill:none;stroke:none" id="path20" d="M 48,48 L 0,48 L 0,0 L 48,0 L 48,48 z"/></g><path id="path13" d="M 22.479937,9.1 C 22.479937,8.9000001 22.279937,8.9000001 22.079937,9 L 11.079937,20.1 C 10.679937,20.5 10.879937,20.9 11.079937,21.1 L 22.179937,32.8 C 22.279937,32.9 22.479937,32.8 22.479937,32.7 L 22.079937,25.1 L 27.079937,25.626203 C 28.079937,25.626203 29.079937,26.6 29.079937,29.1 L 29.079937,32.1 C 29.079937,35 24.079937,35.2 24.079937,36.1 C 24.079937,37 26.079937,38.1 26.079937,38.1 L 29.079937,38.1 C 33.079937,38.1 35.079937,33.8 35.079937,30.1 L 35.079937,25.1 C 35.079937,19.1 31.779937,16.1 26.979937,16.1 L 22.079937,16.1 L 22.479937,9.1 z" style="fill:#fff;fill-rule:nonzero;stroke:none;stroke-miterlimit:4"/></svg>