<svg xmlns="http://www.w3.org/2000/svg" xmlns:svg="http://www.w3.org/2000/svg" id="svg2" width="48" height="48" version="1.0" viewBox="0 0 48 48" xml:space="preserve"><metadata id="metadata37"/><g id="Layer_x0020_4" style="fill-rule:nonzero;stroke:#000;stroke-miterlimit:4"><g style="stroke:none" id="g5"><path style="fill:none;stroke:#fff;stroke-width:12.33749962;stroke-linecap:round;stroke-linejoin:round" id="path7" d="M 37.3,37 L 11.7,37 L 8.2,33.5 L 8.2,9.4 L 37.4,9.4 L 37.4,37 L 37.3,37 z"/><path style="fill:none;stroke:#000;stroke-width:6.16879988;stroke-linecap:round;stroke-linejoin:round" id="path9" d="M 37.3,37 L 11.7,37 L 8.2,33.5 L 8.2,9.4 L 37.4,9.4 L 37.4,37 L 37.3,37 z"/><path id="path11" d="M 37.3,37 L 11.7,37 L 8.2,33.5 L 8.2,9.4 L 37.4,9.4 L 37.4,37 L 37.3,37 z"/><path style="fill:#fff;stroke:#000;stroke-width:1.54219997" id="path13" d="M 31,37.2 C 31,38.2 30.2,39.1 29.1,39.1 L 13.4,39.1 C 12.4,39.1 11.5,38.3 11.5,37.2 L 11.5,27.2 C 11.5,26.2 12.3,25.3 13.4,25.3 L 29.1,25.3 C 30.1,25.3 31,26.1 31,27.2 L 31,37.2 z"/><path id="path15" d="M 20.6,36.4 L 14.9,36.4 L 14.9,28 L 20.6,28 L 20.6,36.4 z"/><path style="fill:#fff;stroke:#000;stroke-width:1.54219997" id="path17" d="M 35.6,22.9 L 10.2,22.9 L 10.2,7.8 L 35.6,7.8 L 35.6,23 L 35.6,22.9 z"/><path style="fill:none;stroke:#fff;stroke-width:12.33749962;stroke-linejoin:round" id="path19" d="M 39.9,33.6 L 22.9,16.6 L 13.3,12.8 L 16.7,23.6 L 33.2,40.2 L 39.9,33.5 L 39.9,33.6 z"/><path style="fill:none;stroke:#000;stroke-width:6.16879988;stroke-linejoin:round" id="path21" d="M 39.9,33.6 L 22.9,16.6 L 13.3,12.8 L 16.7,23.6 L 33.2,40.2 L 39.9,33.5 L 39.9,33.6 z"/><path id="path23" d="M 39.9,33.6 L 22.9,16.6 L 13.3,12.8 L 16.7,23.6 L 33.2,40.2 L 39.9,33.5 L 39.9,33.6 z"/><path id="path25" d="M 17.4,14.1 L 14.3,17.2 L 12.9,12.5 L 17.4,14.2 L 17.4,14.1 z"/><path style="fill:none;stroke:#000;stroke-width:1.54219997" id="path27" d="M 16.2,23.4 L 20,23.1 L 23,20.1 L 23.4,16.6"/><path style="fill:#fff" id="path29" d="M 17.2,14.3 L 14.6,16.9 L 16.6,23.4 L 19.9,23.1 L 22.9,20.1 L 23.3,17.1 L 17.1,14.4 L 17.2,14.3 z"/></g></g><g id="crop_x0020_marks" style="fill-rule:nonzero;stroke:#000;stroke-miterlimit:4"><path style="fill:none;stroke:none" id="path32" d="M 48,48 L 0,48 L 0,0 L 48,0 L 48,48 z"/></g></svg>