<svg xmlns="http://www.w3.org/2000/svg" xmlns:cc="http://web.resource.org/cc/" xmlns:svg="http://www.w3.org/2000/svg" id="svg2" width="48" height="48" viewBox="0 0 48 48" xml:space="preserve"><metadata id="metadata19"/><rect style="fill:none;fill-opacity:.44219652;fill-rule:evenodd;stroke:none;stroke-width:1px;stroke-linecap:butt;stroke-linejoin:miter;stroke-opacity:1" id="rect3315" width="48.127" height="48.19" x="-.063" y="-.063"/><path id="path5506" d="M 6.0000000,9.0000000 C 5.0000000,9.0000000 4.0000000,10.000000 4.0000000,11.000000 L 4.0000000,36.000000 C 4.0000000,38.000000 5.0000000,39.000000 7.0000000,39.000000 L 35.000000,39.000000 C 37.000000,39.000000 38.000000,37.000000 38.000000,37.000000 L 44.000000,22.000000 C 44.584012,20.539971 44.000000,17.000000 41.000000,17.000000 L 36.000000,17.000000 C 36.000000,16.200000 36.000000,16.000000 36.000000,16.000000 C 36.000000,14.000000 35.000000,13.000000 33.000000,13.000000 L 20.000000,13.000000 L 20.000000,11.000000 C 20.000000,10.000000 19.000000,9.0000000 18.000000,9.0000000 L 6.0000000,9.0000000 z" style="fill-rule:nonzero;stroke:#fff;stroke-miterlimit:4;fill:#fff;fill-opacity:1;stroke-opacity:1;stroke-width:8;stroke-dasharray:none"/><path style="fill-rule:nonzero;stroke:none;stroke-miterlimit:4;fill:#000;fill-opacity:1" id="path9" d="M 6.0000000,9.0000000 C 5.0000000,9.0000000 4.0000000,10.000000 4.0000000,11.000000 L 4.0000000,36.000000 C 4.0000000,38.000000 5.0000000,39.000000 7.0000000,39.000000 L 35.000000,39.000000 C 37.000000,39.000000 38.000000,37.000000 38.000000,37.000000 L 44.000000,22.000000 C 44.584012,20.539971 44.000000,17.000000 41.000000,17.000000 L 36.000000,17.000000 C 36.000000,16.200000 36.000000,16.000000 36.000000,16.000000 C 36.000000,14.000000 35.000000,13.000000 33.000000,13.000000 L 20.000000,13.000000 L 20.000000,11.000000 C 20.000000,10.000000 19.000000,9.0000000 18.000000,9.0000000 L 6.0000000,9.0000000 z"/><path style="fill:#fff;fill-rule:nonzero;stroke:none;stroke-miterlimit:4" id="path11" d="M 9.0000000,35.000000 L 33.000000,35.100000 C 33.600000,35.100000 34.200000,34.700000 34.500000,34.200000 C 35.200000,33.200000 39.300000,23.600000 39.300000,21.700000 C 39.300000,21.300000 39.300000,21.000000 38.000000,21.000000 L 15.000000,21.000000 C 14.600000,21.000000 14.100000,21.300000 14.000000,21.900000 C 13.900000,23.400000 11.100000,33.138786 10.000000,34.438786 C 9.7000000,34.838786 9.0000000,35.000000 9.0000000,35.000000 L 9.0000000,35.000000 z"/></svg>