<svg xmlns="http://www.w3.org/2000/svg" xmlns:cc="http://web.resource.org/cc/" xmlns:svg="http://www.w3.org/2000/svg" id="svg2" width="48" height="48" version="1.0" viewBox="0 0 48 48" xml:space="preserve"><metadata id="metadata17"/><rect style="opacity:1;fill:none;fill-opacity:.29296875;stroke:none;stroke-width:12;stroke-linecap:round;stroke-linejoin:round;stroke-miterlimit:4;stroke-dasharray:none;stroke-opacity:1" id="rect2169" width="48" height="48" x="0" y="0" rx="0" ry="0"/><path id="path6099" d="M 20 39 A 4.5 6 0 1 1 11,39 A 4.5 6 0 1 1 20 39 z" transform="translate(-0.5,-2.5)" style="fill:none;fill-opacity:.29296875;stroke:#fff;stroke-width:11;stroke-linecap:round;stroke-linejoin:round;stroke-miterlimit:4;stroke-dasharray:none;stroke-opacity:1"/><path style="fill:none;fill-opacity:.29296875;stroke:#fff;stroke-width:11;stroke-linecap:round;stroke-linejoin:round;stroke-miterlimit:4;stroke-dasharray:none;stroke-opacity:1" id="path5128" d="M 20 39 A 4.5 6 0 1 1 11,39 A 4.5 6 0 1 1 20 39 z" transform="translate(17.5,-2.5)"/><path id="path6101" d="M 29.5,30.4 L 27,26 C 29.9,24 33.3,21.8 36,17 C 39.9,10.2 34,5 34,5 L 24,21 L 14,5 C 14,5 8.1,10.2 12,17 C 14.7,21.7 18.1,24.1 21,26 L 18.5,30.4 L 21,36 C 21.1,34.4 23,29 23,29 C 23,29 23.3,27.4 24,27 C 24.6,27.5 25,29 25,29 C 25,29 26.9,34.3 27,36 L 29.5,30.4 z" style="fill-rule:nonzero;stroke:#fff;stroke-miterlimit:4;fill:none;stroke-opacity:1;stroke-width:8;stroke-dasharray:none;stroke-linejoin:round;stroke-linecap:round"/><path style="fill-rule:nonzero;stroke:none;stroke-miterlimit:4" id="path9" d="M 29.5,30.4 L 27,26 C 29.9,24 33.3,21.8 36,17 C 39.9,10.2 34,5 34,5 L 24,21 L 14,5 C 14,5 8.1,10.2 12,17 C 14.7,21.7 18.1,24.1 21,26 L 18.5,30.4 L 21,36 C 21.1,34.4 23,29 23,29 C 23,29 23.3,27.4 24,27 C 24.6,27.5 25,29 25,29 C 25,29 26.9,34.3 27,36 L 29.5,30.4 z"/><path style="fill:none;fill-opacity:.29296875;stroke:#000;stroke-width:3;stroke-linecap:round;stroke-linejoin:round;stroke-miterlimit:4;stroke-dasharray:none;stroke-opacity:1" id="path3148" d="M 20 39 A 4.5 6 0 1 1 11,39 A 4.5 6 0 1 1 20 39 z" transform="translate(-0.5,-2.5)"/><path id="path4119" d="M 20 39 A 4.5 6 0 1 1 11,39 A 4.5 6 0 1 1 20 39 z" transform="translate(17.5,-2.5)" style="fill:none;fill-opacity:.29296875;stroke:#000;stroke-width:3;stroke-linecap:round;stroke-linejoin:round;stroke-miterlimit:4;stroke-dasharray:none;stroke-opacity:1"/></svg>