<svg xmlns="http://www.w3.org/2000/svg" xmlns:cc="http://web.resource.org/cc/" xmlns:svg="http://www.w3.org/2000/svg" id="svg2" width="48" height="48" version="1.0" viewBox="0 0 48 48" xml:space="preserve"><metadata id="metadata17"/><rect style="opacity:1;fill:none;fill-opacity:.3359375;stroke:none;stroke-width:8;stroke-linecap:round;stroke-linejoin:round;stroke-miterlimit:4;stroke-dasharray:none;stroke-opacity:1" id="rect2187" width="48" height="48" x="0" y="0"/><path id="path3166" d="M 24.9,5.1 L 40,20 C 41,21 41,21 40,22 L 25,37 C 24.072543,37.072543 24,36 24,36 L 24,28 L 20,28 C 18.6,28 16,27.8 16,31 L 16,35 C 16,38.8 22.178827,40.043779 22.5,41.2 C 23,43 20,43 20,43 L 15,43 C 9.9,43.2 8,37.9 8,33 L 8,26 C 8,18.1 11.7,14 18,14 L 24,14 L 24,6 C 24,6 24,5 24.9,5.1 z" style="fill-rule:nonzero;stroke:#fff;stroke-miterlimit:4;fill:#fff;fill-opacity:1;stroke-opacity:1;stroke-linejoin:round;stroke-linecap:round;stroke-width:8;stroke-dasharray:none"/><path style="fill-rule:nonzero;stroke:none;stroke-miterlimit:4" id="path9" d="M 24.9,5.1 L 40,20 C 41,21 41,21 40,22 L 25,37 C 24.072543,37.072543 24,36 24,36 L 24,28 L 20,28 C 18.6,28 16,27.8 16,31 L 16,35 C 16,38.8 22.178827,40.043779 22.5,41.2 C 23,43 20,43 20,43 L 15,43 C 9.9,43.2 8,37.9 8,33 L 8,26 C 8,18.1 11.7,14 18,14 L 24,14 L 24,6 C 24,6 24,5 24.9,5.1 z"/></svg>