<svg xmlns="http://www.w3.org/2000/svg" xmlns:svg="http://www.w3.org/2000/svg" id="svg2" width="48" height="48" version="1.0" viewBox="0 0 48 48" xml:space="preserve"><metadata id="metadata35"/><rect style="opacity:1;fill:none;fill-opacity:.21538462;stroke:none;stroke-width:12;stroke-linecap:round;stroke-linejoin:round;stroke-miterlimit:4;stroke-dasharray:none;stroke-opacity:1" id="rect3182" width="48" height="48" x="0" y="0"/><g id="layer1" style="display:inline"><path id="path3240" d="M 37.749573,23.395238 L 25.473288,35.874234 L 23.295239,41.509909 L 29.631384,39.497169 L 41.610661,27.320085 L 37.749573,23.395238 z" style="fill:none;fill-rule:nonzero;stroke:#fff;stroke-width:12.98018265;stroke-linejoin:round;stroke-miterlimit:4;stroke-dasharray:none;stroke-opacity:1"/><path style="fill:none;fill-rule:nonzero;stroke:#000;stroke-width:4.8102951;stroke-linejoin:round;stroke-miterlimit:4" id="path17" d="M 37.743842,23.405147 L 25.48084,35.935833 L 23.305148,41.594852 L 29.634437,39.573775 L 41.600752,27.346251 L 37.743842,23.405147 z"/><path style="fill-rule:nonzero;stroke-miterlimit:4" id="path19" d="M 37.7,23.3 L 25.3,35.7 L 23.1,41.3 L 29.5,39.3 L 41.6,27.2 L 37.7,23.3 z"/><path style="fill-rule:nonzero;stroke-miterlimit:4" id="path21" d="M 37.7,23.3 L 25.3,35.7 L 23.1,41.3 L 29.5,39.3 L 41.6,27.2 L 37.7,23.3 z"/><path style="fill-rule:nonzero;stroke-miterlimit:4" id="path23" d="M 23.8,38.9 L 25.6,40.7 L 22.8,41.5 L 23.8,38.9 L 23.8,38.9 z"/><path style="fill:none;fill-rule:nonzero;stroke:#000;stroke-width:.9048;stroke-miterlimit:4" id="path25" d="M 29.3,39.6 L 29.1,37.4 L 27.3,35.6 L 25.3,35.3"/><path style="fill:#fff;fill-rule:nonzero;stroke-miterlimit:4" id="path27" d="M 24,39 L 25.5,40.5 L 29.3,39.3 L 29.1,37.4 L 27.3,35.6 L 25.5,35.4 L 23.9,39 L 24,39 z"/></g><path id="path3238" d="M 29,14.5 A 6.5,6.5 0 1 1 16,14.5 A 6.5,6.5 0 1 1 29,14.5 z" style="opacity:1;fill:none;fill-opacity:1;stroke:#fff;stroke-width:15;stroke-linecap:round;stroke-linejoin:round;stroke-miterlimit:4;stroke-dasharray:none;stroke-opacity:1"/><g id="layer2" style="display:inline"><path style="fill-rule:nonzero;stroke:#fff;stroke-width:9.83539581;stroke-linejoin:round;stroke-miterlimit:4;stroke-dasharray:none;stroke-opacity:1" id="path3236" d="M 5.9951137,31.00673 C 7.963878,32.972126 9.1451365,31.792887 9.9326425,31.00673 L 15.838936,25.110542 C 16.429565,24.520924 15.838936,23.145147 15.838936,22.16245 L 14.854553,21.179751 C 13.870171,21.179751 12.492035,20.590132 11.901406,21.179751 L 5.9951137,27.075939 C 5.207608,27.862097 4.0263495,29.041335 5.9951137,31.00673 L 5.9951137,31.00673 z"/><path id="path13" d="M 5.8974631,31.090552 C 7.893904,33.108893 9.0917685,31.897888 9.8903452,31.090552 L 15.879667,25.035532 C 16.4786,24.43003 15.879667,23.017192 15.879667,22.008022 L 14.881447,20.998852 C 13.883227,20.998852 12.485718,20.393351 11.886786,20.998852 L 5.8974631,27.053873 C 5.0988868,27.861209 3.9010222,29.072213 5.8974631,31.090552 L 5.8974631,31.090552 z" style="fill-rule:nonzero;stroke:#000;stroke-width:1.60980284;stroke-linejoin:round;stroke-miterlimit:4"/></g><path style="opacity:1;fill:#000;fill-opacity:1;stroke:#000;stroke-width:7;stroke-linecap:round;stroke-linejoin:round;stroke-miterlimit:4;stroke-dasharray:none;stroke-opacity:1" id="path3228" d="M 29,14.5 A 6.5,6.5 0 1 1 16,14.5 A 6.5,6.5 0 1 1 29,14.5 z"/><path style="opacity:1;fill:#fff;fill-opacity:1;stroke:none;stroke-width:7;stroke-linecap:round;stroke-linejoin:round;stroke-miterlimit:4;stroke-dasharray:none;stroke-opacity:1" id="path3234" d="M 28.961609,14.591472 A 6.4801788,6.5914717 0 1 1 16.001251,14.591472 A 6.4801788,6.5914717 0 1 1 28.961609,14.591472 z"/></svg>