<svg xmlns="http://www.w3.org/2000/svg" xmlns:svg="http://www.w3.org/2000/svg" id="svg2730" width="48" height="48" version="1.0" viewBox="0 0 48 48" xml:space="preserve"><metadata id="metadata2753"/><rect style="opacity:1;fill:none;fill-opacity:.23643410000000001;stroke:none;stroke-width:4;stroke-linecap:round;stroke-linejoin:round;stroke-miterlimit:4;stroke-dasharray:none;stroke-opacity:1" id="rect2759" width="48" height="48" x="0" y="0"/><path id="path3552" d="M 25.112337,20.011463 L 9.3292019,30.035487 L 16.234323,39.852828 C 17.220768,41.712955 20.081463,40.576212 20.081463,40.576212 L 40.994116,30.75887 C 40.994116,30.75887 33.694417,31.998955 32.116103,29.622124 L 25.112337,20.011463 z" style="fill:#fff;fill-rule:nonzero;stroke:#fff;stroke-width:12;stroke-linecap:round;stroke-linejoin:round;stroke-miterlimit:4;stroke-dasharray:none;stroke-opacity:1"/><path id="path3546" d="M 31,20 L 29,17 C 28,15.3 25.7,15 24,16 L 7,26 C 5.3,27 5,29.3 6,31 L 8,34 C 8.5030488,34.542683 9,34 9,34 L 31,21 C 31,21 31.503049,20.51626 31,20 z" style="fill-rule:nonzero;stroke-miterlimit:4;stroke:#fff;stroke-opacity:1;stroke-width:8;stroke-dasharray:none"/><path id="path3544" d="M 19.956613,20.069551 C 21.063764,21.593516 20.44868,23.661752 18.726445,24.641443 C 17.004211,25.621134 14.666891,25.076862 13.55974,23.552897 L 4.5795139,10.163786 C 3.4723628,8.6398216 4.0874468,6.5715848 5.8096819,5.5918937 C 7.5319171,4.6122025 9.8692361,5.1564754 10.976387,6.6804394 L 20.07963,19.960697 L 19.956613,20.069551 z" style="fill-rule:nonzero;stroke-miterlimit:4;stroke:#fff;stroke-opacity:1;stroke-width:8;stroke-dasharray:none"/><path style="fill:#fff;fill-rule:nonzero;stroke:#000;stroke-width:4.01176834;stroke-linecap:round;stroke-linejoin:round;stroke-miterlimit:4;stroke-dasharray:none" id="path2737" d="M 25.112337,20.011463 L 9.3292019,30.035487 L 16.234323,39.852828 C 17.220768,41.712955 20.081463,40.576212 20.081463,40.576212 L 40.994116,30.75887 C 40.994116,30.75887 33.694417,31.998955 32.116103,29.622124 L 25.112337,20.011463 z"/><path style="fill-rule:nonzero;stroke-miterlimit:4" id="path2739" d="M 19.956613,20.069551 C 21.063764,21.593516 20.44868,23.661752 18.726445,24.641443 C 17.004211,25.621134 14.666891,25.076862 13.55974,23.552897 L 4.5795139,10.163786 C 3.4723628,8.6398216 4.0874468,6.5715848 5.8096819,5.5918937 C 7.5319171,4.6122025 9.8692361,5.1564754 10.976387,6.6804394 L 20.07963,19.960697 L 19.956613,20.069551 z"/><path style="fill-rule:nonzero;stroke-miterlimit:4" id="path2741" d="M 31,20 L 29,17 C 28,15.3 25.7,15 24,16 L 7,26 C 5.3,27 5,29.3 6,31 L 8,34 C 8.5030488,34.542683 9,34 9,34 L 31,21 C 31,21 31.503049,20.51626 31,20 z"/><path style="fill:none;fill-rule:nonzero;stroke:#000;stroke-width:3;stroke-linecap:round;stroke-linejoin:round;stroke-miterlimit:4;stroke-dasharray:none" id="path2745" d="M 20,34 C 22.2,37.3 25,38 25,38"/><g id="crop_x0020_marks" style="fill-rule:nonzero;stroke:#000;stroke-miterlimit:4"><path style="fill:none;stroke:none" id="path2748" d="M 48,48 L 0,48 L 0,0 L 48,0 L 48,48 z"/></g><path id="path3550" d="M 25.5,31.5 C 27.7,34.8 30.5,35.5 30.5,35.5" style="fill:none;fill-rule:nonzero;stroke:#000;stroke-width:3;stroke-linecap:round;stroke-linejoin:round;stroke-miterlimit:4;stroke-dasharray:none"/></svg>