<svg xmlns="http://www.w3.org/2000/svg" xmlns:cc="http://web.resource.org/cc/" xmlns:svg="http://www.w3.org/2000/svg" id="svg2" width="48" height="48" version="1.0" viewBox="0 0 48 48" xml:space="preserve"><metadata id="metadata17"/><rect style="opacity:1;fill:none;fill-opacity:.3359375;stroke:none;stroke-width:8;stroke-linecap:round;stroke-linejoin:round;stroke-miterlimit:4;stroke-dasharray:none;stroke-opacity:1" id="rect2187" width="48" height="48" x="0" y="0"/><path id="path3166" d="M 24.1,5.1 L 9,20 C 8,21 8,21 9,22 L 24,37 C 24.927457,37.072543 25,36 25,36 L 25,28 L 29,28 C 30.4,28 33,27.8 33,31 L 33,35 C 33,38.8 26.821173,40.043779 26.5,41.2 C 26,43 29,43 29,43 L 34,43 C 39.1,43.2 41,37.9 41,33 L 41,26 C 41,18.1 37.3,14 31,14 L 25,14 L 25,6 C 25,6 25,5 24.1,5.1 z" style="fill:#fff;fill-opacity:1;fill-rule:nonzero;stroke:#fff;stroke-width:8;stroke-linecap:round;stroke-linejoin:round;stroke-miterlimit:4;stroke-dasharray:none;stroke-opacity:1"/><path style="fill-rule:nonzero;stroke:none;stroke-miterlimit:4" id="path9" d="M 24.1,5.1 L 9,20 C 8,21 8,21 9,22 L 24,37 C 24.927457,37.072543 25,36 25,36 L 25,28 L 29,28 C 30.4,28 33,27.8 33,31 L 33,35 C 33,38.8 26.821173,40.043779 26.5,41.2 C 26,43 29,43 29,43 L 34,43 C 39.1,43.2 41,37.9 41,33 L 41,26 C 41,18.1 37.3,14 31,14 L 25,14 L 25,6 C 25,6 25,5 24.1,5.1 z"/></svg>