<svg xmlns="http://www.w3.org/2000/svg" xmlns:svg="http://www.w3.org/2000/svg" id="svg2" width="48" height="48" version="1.0" viewBox="0 0 48 48" xml:space="preserve"><metadata id="metadata27"/><g id="Layer_x0020_3" style="fill:#fff;fill-rule:nonzero;stroke:#000;stroke-miterlimit:4"><g style="stroke:none" id="g5"><path style="fill:none;stroke:#fff;stroke-width:6.96120024" id="path7" d="M 37.9,38.8 L 30.1,31 C 29.4,30.3 28.3,30.1 27.4,30.4 C 29.2,28.2 30.3,25.4 30.3,22.4 C 30.3,15.5 24.7,9.9 17.8,9.9 C 10.9,9.9 5.2,15.4 5.2,22.3 C 5.2,29.2 10.8,34.8 17.7,34.8 C 20.7,34.8 23.5,33.7 25.7,31.9 C 25.4,32.8 25.6,33.9 26.3,34.6 L 34.1,42.4 C 35.1,43.4 36.8,43.4 37.8,42.4 C 38.8,41.4 38.8,39.7 37.8,38.7 L 37.9,38.8 z M 17.8,31.5 C 12.7,31.5 8.6,27.4 8.6,22.3 C 8.6,17.2 12.7,13.1 17.8,13.1 C 22.9,13.1 27,17.2 27,22.3 C 27,27.4 22.9,31.5 17.8,31.5 z"/><path style="fill:none;stroke:#fff;stroke-width:13.24499989;stroke-linejoin:round" id="path9" d="M 38.3,17.1 L 38.3,37.7 L 13,37.7 L 13,8.5 L 29.9,8.5 L 38.2,17 L 38.3,17.1 z"/><path style="fill:none;stroke:#000;stroke-width:6.62249994;stroke-linejoin:round" id="path11" d="M 38.3,17.1 L 38.3,37.7 L 13,37.7 L 13,8.5 L 29.9,8.5 L 38.2,17 L 38.3,17.1 z"/><path id="path13" d="M 38.3,17.1 L 38.3,37.7 L 13,37.7 L 13,8.5 L 29.9,8.5 L 38.2,17 L 38.3,17.1 z"/><g id="g15"><path style="fill:#000" id="path17" d="M 38,38.9 L 30.2,31.1 C 29.5,30.4 28.4,30.2 27.5,30.5 C 29.3,28.3 30.4,25.5 30.4,22.5 C 30.4,15.6 24.8,10 17.9,10 C 11,10 5.4,15.6 5.4,22.5 C 5.4,29.4 11,35 17.9,35 C 20.9,35 23.7,33.9 25.9,32.1 C 25.6,33 25.8,34.1 26.5,34.8 L 34.3,42.6 C 35.3,43.6 37,43.6 38,42.6 C 39,41.6 39,39.9 38,38.9 z M 17.9,31.6 C 12.8,31.6 8.7,27.5 8.7,22.4 C 8.7,17.3 12.8,13.2 17.9,13.2 C 23,13.2 27.1,17.3 27.1,22.4 C 27.1,27.5 23,31.6 17.9,31.6 z"/><path id="path19" d="M 27.1,22.4 C 27.1,27.5 23,31.6 17.9,31.6 C 12.8,31.6 8.7,27.5 8.7,22.4 C 8.7,17.3 12.8,13.2 17.9,13.2 C 23,13.2 27.1,17.3 27.1,22.4 z"/></g></g></g><g id="crop_x0020_marks" style="fill-rule:nonzero;stroke:#000;stroke-miterlimit:4"><path style="fill:none;stroke:none" id="path22" d="M 48,48 L 0,48 L 0,0 L 48,0 L 48,48 z"/></g></svg>