<svg xmlns="http://www.w3.org/2000/svg" xmlns:cc="http://web.resource.org/cc/" xmlns:svg="http://www.w3.org/2000/svg" id="svg2" width="48" height="48" viewBox="0 0 48 48" xml:space="preserve"><metadata id="metadata25"/><rect style="fill:none;fill-opacity:1;fill-rule:evenodd;stroke:none;stroke-width:1px;stroke-linecap:butt;stroke-linejoin:miter;stroke-opacity:1" id="rect3321" width="48" height="48" x="0" y="0"/><path style="fill-rule:nonzero;stroke:#fff;stroke-width:8;stroke-linejoin:round;stroke-miterlimit:4;stroke-dasharray:none" id="path7" d="M 19.000000,36.000000 L 19.000000,43.000000 L 43.000000,43.000000 L 43.000000,36.000000 L 19.000000,36.000000 z"/><path style="fill-rule:nonzero;stroke:#fff;stroke-width:8;stroke-linejoin:round;stroke-miterlimit:4;stroke-dasharray:none" id="path9" d="M 5.0000000,20.000000 L 5.0000000,27.000000 L 43.000000,27.000000 L 43.000000,20.000000 L 5.0000000,20.000000 z"/><path style="fill-rule:nonzero;stroke:#fff;stroke-width:8;stroke-linejoin:round;stroke-miterlimit:4;stroke-dasharray:none" id="path11" d="M 19.000000,4.0000000 L 19.000000,11.000000 L 43.000000,11.000000 L 43.000000,4.0000000 L 19.000000,4.0000000 z"/><path style="fill-rule:nonzero;stroke:none;stroke-width:6.6121998;stroke-linejoin:round;stroke-miterlimit:4" id="path13" d="M 19.000000,36.000000 L 19.000000,43.000000 L 43.000000,43.000000 L 43.000000,36.000000 L 19.000000,36.000000 z"/><path style="fill-rule:nonzero;stroke:none;stroke-width:6.6121998;stroke-linejoin:round;stroke-miterlimit:4" id="path15" d="M 5.0000000,20.000000 L 5.0000000,27.000000 L 43.000000,27.000000 L 43.000000,20.000000 L 5.0000000,20.000000 z"/><path style="fill-rule:nonzero;stroke:none;stroke-width:6.6121998;stroke-linejoin:round;stroke-miterlimit:4" id="path17" d="M 19.000000,4.0000000 L 19.000000,11.000000 L 43.000000,11.000000 L 43.000000,4.0000000 L 19.000000,4.0000000 z"/></svg>