<svg xmlns="http://www.w3.org/2000/svg" xmlns:cc="http://web.resource.org/cc/" xmlns:svg="http://www.w3.org/2000/svg" id="svg7107" width="48" height="48" version="1.0" viewBox="0 0 48 48" xml:space="preserve"><metadata id="metadata7122"/><rect style="opacity:1;fill:none;fill-opacity:1;stroke:none;stroke-width:12;stroke-linecap:round;stroke-linejoin:round;stroke-miterlimit:4;stroke-dasharray:none;stroke-opacity:1" id="rect10054" width="48" height="48" x="0" y="0"/><path id="path12966" d="M 20,30 L 13,40 L 8,40 L 24.719383,16.73825 L 31,8 L 35,8 L 40,40 L 36,40 L 35,30 L 20,30 L 20,30 z M 35,27 C 35,27 34.1,13.8 34,12 L 33,12 C 31.9,13.8 22,27 22,27 L 34,27 L 35,27 z" style="fill-rule:nonzero;stroke:#fff;stroke-width:12;stroke-linejoin:round;stroke-miterlimit:4;stroke-dasharray:none;fill:none;fill-opacity:1;stroke-opacity:1"/><path style="fill-rule:nonzero;stroke:#000;stroke-width:4;stroke-linejoin:round;stroke-miterlimit:4;stroke-dasharray:none;fill:#000;fill-opacity:1" id="path7114" d="M 20,30 L 13,40 L 8,40 L 31,8 L 35,8 L 40,40 L 36,40 L 35,30 L 20,30 L 20,30 z M 35,27 C 35,27 34.1,13.8 34,12 L 33,12 C 31.9,13.8 22,27 22,27 L 34,27 L 35,27 z"/></svg>