<svg xmlns="http://www.w3.org/2000/svg" xmlns:cc="http://web.resource.org/cc/" xmlns:svg="http://www.w3.org/2000/svg" id="svg2" width="48" height="48" version="1.0" viewBox="0 0 48 48" xml:space="preserve"><metadata id="metadata27"/><rect style="opacity:1;fill:none;fill-opacity:1;stroke:none;stroke-width:10;stroke-linecap:round;stroke-linejoin:round;stroke-miterlimit:4;stroke-dasharray:none;stroke-opacity:1" id="rect6077" width="48" height="48" x="0" y="0"/><g id="Layer_x0020_4" style="fill-rule:nonzero;stroke:#000;stroke-miterlimit:4;stroke-width:2;stroke-dasharray:none;stroke-linejoin:round;stroke-linecap:round"><g id="g5" style="stroke-width:2;stroke-miterlimit:4;stroke-dasharray:none;stroke-linejoin:round;stroke-linecap:round"><g id="g7" style="stroke-width:2;stroke-miterlimit:4;stroke-dasharray:none;stroke-linejoin:round;stroke-linecap:round"><g id="g9" style="stroke-width:2;stroke-miterlimit:4;stroke-dasharray:none;stroke-linejoin:round;stroke-linecap:round"><path style="stroke:none;stroke-width:2;stroke-miterlimit:4;stroke-dasharray:none;stroke-linejoin:round;stroke-linecap:round" id="path11" d="M 18,30.9 L 15.2,38.1 L 6,38.1 L 18.1,9.9 L 29.7,9.9 L 42,38.1 L 32.4,38.1 L 29.4,30.9 L 18,30.9 L 18,30.9 z M 28,26.1 C 28,26.1 24.2,16.3 23.6,14.7 L 23.4,14.7 C 22.9,16.4 19.2,26.1 19.2,26.1 L 28,26.1 z"/></g></g><g id="g17" style="stroke-width:2;stroke-miterlimit:4;stroke-dasharray:none;stroke-linejoin:round;stroke-linecap:round"><path id="path11026" d="M 17,31 L 15,41 L 7,41 L 20,8 L 28,8 L 41,41 L 33,41 L 31,31 L 17,31 z M 30,28 L 25,12 L 23,12 L 18,28 L 30,28 z" style="stroke-width:10;stroke-linejoin:round;stroke-miterlimit:4;stroke-dasharray:none;stroke-linecap:round;fill:none;stroke:#fff;stroke-opacity:1"/><path style="stroke-width:2;stroke-linejoin:round;stroke-miterlimit:4;stroke-dasharray:none;stroke-linecap:round" id="path19" d="M 17,31 L 15,41 L 7,41 L 20,8 L 28,8 L 41,41 L 33,41 L 31,31 L 17,31 z M 30,28 L 25,12 L 23,12 L 18,28 L 30,28 z"/></g></g></g><rect style="opacity:1;fill:#000;fill-opacity:1;stroke:#fff;stroke-width:4;stroke-linecap:round;stroke-linejoin:round;stroke-miterlimit:4;stroke-dasharray:none;stroke-opacity:1" id="rect2170" width="42" height="13" x="3" y="17" ry="3.885"/></svg>