<svg xmlns="http://www.w3.org/2000/svg" xmlns:svg="http://www.w3.org/2000/svg" id="svg2" width="48" height="48" version="1.0" viewBox="0 0 48 48" xml:space="preserve"><metadata id="metadata21"/><g id="Layer_x0020_3" style="fill:#fff;fill-rule:nonzero;stroke:#fff;stroke-width:7.59009981;stroke-linejoin:round;stroke-miterlimit:4"><g id="g5"><path id="path7" d="M 6.9,20 C 6.6,20 6.6,20.3 6.7,20.5 L 23.6,37.1 C 24.1,37.6 24.3,37.5 24.6,37.1 L 41.2,20.5 C 41.3,20.4 41.3,20.1 41.1,20.1 L 31.1,20.1 L 31.1,6.5 C 31.1,6.2 30.9,6 30.7,6 L 17.4,6 C 17.1,6 16.9,6.2 16.9,6.5 L 16.9,20 L 6.9,20 z"/><path id="path9" d="M 6.8,37.9 C 6.8,37.7 6.9,37.6 7.1,37.6 L 40.8,37.6 C 41,37.6 41.1,37.7 41.1,37.9 L 41.1,41.7 C 41.1,41.9 41,42 40.8,42 L 7.2,42 C 7,42 6.9,41.9 6.9,41.7 L 6.9,37.9 L 6.8,37.9 z"/><path style="fill:#000;stroke:none" id="path11" d="M 6.9,20 C 6.6,20 6.6,20.3 6.7,20.5 L 23.6,37.1 C 24.1,37.6 24.3,37.5 24.6,37.1 L 41.2,20.5 C 41.3,20.4 41.3,20.1 41.1,20.1 L 31.1,20.1 L 31.1,6.5 C 31.1,6.2 30.9,6 30.7,6 L 17.4,6 C 17.1,6 16.9,6.2 16.9,6.5 L 16.9,20 L 6.9,20 z"/><path style="fill:#000;stroke:none" id="path13" d="M 6.8,37.9 C 6.8,37.7 6.9,37.6 7.1,37.6 L 40.8,37.6 C 41,37.6 41.1,37.7 41.1,37.9 L 41.1,41.7 C 41.1,41.9 41,42 40.8,42 L 7.2,42 C 7,42 6.9,41.9 6.9,41.7 L 6.9,37.9 L 6.8,37.9 z"/></g></g><g id="crop_x0020_marks" style="fill-rule:nonzero;stroke:#000;stroke-miterlimit:4"><path style="fill:none;stroke:none" id="path16" d="M 48,48 L 0,48 L 0,0 L 48,0 L 48,48 z"/></g></svg>