<svg xmlns="http://www.w3.org/2000/svg" xmlns:cc="http://web.resource.org/cc/" xmlns:svg="http://www.w3.org/2000/svg" id="svg2" width="48" height="48" viewBox="0 0 48 48" xml:space="preserve"><metadata id="metadata17"/><rect style="fill:none;fill-opacity:1;fill-rule:evenodd;stroke:none;stroke-width:1px;stroke-linecap:butt;stroke-linejoin:miter;stroke-opacity:1" id="rect3313" width="48" height="48" x="0" y="0"/><g id="g5500" transform="matrix(1.000000,0.000000,0.000000,-1.000000,0.000000,48.25000)"><path style="fill-rule:nonzero;stroke:#fff;stroke-width:8;stroke-miterlimit:4;stroke-dasharray:none;stroke-opacity:1" id="path4046" d="M 41.000000,26.000000 C 41.300000,26.000000 41.588189,25.467717 41.000000,25.000000 L 25.000000,9.0000000 C 24.000000,8.0000000 24.000000,8.0000000 23.000000,9.0000000 L 7.0000000,25.000000 C 6.4015748,25.425197 6.8000000,26.000000 7.0000000,26.000000 L 17.000000,26.000000 L 17.000000,39.000000 C 17.000000,39.000000 17.000000,40.000000 18.000000,40.000000 L 30.000000,40.000000 C 31.000000,40.000000 31.000000,39.000000 31.000000,39.000000 L 31.000000,26.000000 L 41.000000,26.000000 z"/><path id="path9" d="M 41.000000,26.000000 C 41.300000,26.000000 41.588189,25.467717 41.000000,25.000000 L 25.000000,9.0000000 C 24.000000,8.0000000 24.000000,8.0000000 23.000000,9.0000000 L 7.0000000,25.000000 C 6.4015748,25.425197 6.8000000,26.000000 7.0000000,26.000000 L 17.000000,26.000000 L 17.000000,39.000000 C 17.000000,39.000000 17.000000,40.000000 18.000000,40.000000 L 30.000000,40.000000 C 31.000000,40.000000 31.000000,39.000000 31.000000,39.000000 L 31.000000,26.000000 L 41.000000,26.000000 z" style="fill-rule:nonzero;stroke:none;stroke-miterlimit:4"/></g></svg>