<svg xmlns="http://www.w3.org/2000/svg" xmlns:svg="http://www.w3.org/2000/svg" id="svg2" width="48" height="48" version="1.0" viewBox="0 0 48 48" xml:space="preserve"><metadata id="metadata21"/><g id="Layer_x0020_3" style="fill:#fff;fill-rule:nonzero;stroke:#fff;stroke-width:7.59009981;stroke-linejoin:round;stroke-miterlimit:4"><g id="g5"><path id="path7" d="M 28,6.9 C 28,6.6 27.7,6.6 27.5,6.7 L 10.8,23.6 C 10.3,24.1 10.4,24.3 10.8,24.6 L 27.4,41.2 C 27.5,41.3 27.8,41.3 27.8,41.1 L 27.8,31.1 L 41.4,31.1 C 41.7,31.1 41.9,30.9 41.9,30.7 L 41.9,17.4 C 41.9,17.1 41.7,16.9 41.4,16.9 L 27.9,16.9 L 28,6.9 z"/><path id="path9" d="M 10.1,6.8 C 10.3,6.8 10.4,6.9 10.4,7.1 L 10.4,40.8 C 10.4,41 10.3,41.1 10.1,41.1 L 6.4,41.1 C 6.2,41.1 6.1,41 6.1,40.8 L 6.1,7.2 C 6.1,7 6.2,6.9 6.4,6.9 L 10.2,6.9 L 10.1,6.8 z"/><path style="fill:#000;stroke:none" id="path11" d="M 28,6.9 C 28,6.6 27.7,6.6 27.5,6.7 L 10.8,23.6 C 10.3,24.1 10.4,24.3 10.8,24.6 L 27.4,41.2 C 27.5,41.3 27.8,41.3 27.8,41.1 L 27.8,31.1 L 41.4,31.1 C 41.7,31.1 41.9,30.9 41.9,30.7 L 41.9,17.4 C 41.9,17.1 41.7,16.9 41.4,16.9 L 27.9,16.9 L 28,6.9 z"/><path style="fill:#000;stroke:none" id="path13" d="M 10.1,6.8 C 10.3,6.8 10.4,6.9 10.4,7.1 L 10.4,40.8 C 10.4,41 10.3,41.1 10.1,41.1 L 6.4,41.1 C 6.2,41.1 6.1,41 6.1,40.8 L 6.1,7.2 C 6.1,7 6.2,6.9 6.4,6.9 L 10.2,6.9 L 10.1,6.8 z"/></g></g><g id="crop_x0020_marks" style="fill-rule:nonzero;stroke:#000;stroke-miterlimit:4"><path style="fill:none;stroke:none" id="path16" d="M 48,48 L 0,48 L 0,0 L 48,0 L 48,48 z"/></g></svg>