<svg xmlns="http://www.w3.org/2000/svg" xmlns:cc="http://web.resource.org/cc/" xmlns:svg="http://www.w3.org/2000/svg" id="svg2" width="48" height="48" version="1.0" viewBox="0 0 48 48" xml:space="preserve"><metadata id="metadata23"/><rect style="fill:none;fill-opacity:.5096525;stroke:none;stroke-width:6;stroke-linecap:round;stroke-linejoin:round;stroke-miterlimit:4;stroke-dasharray:none;stroke-opacity:1" id="rect1333" width="48" height="48" x="0" y="0" rx=".047" ry="0"/><path id="path2208" d="M 5,22 C 5,22 4,22.6 4,23 C 4,23.2 3.9,23.8 4,24 C 4.3,24.6 5.3,25 6,25 C 6,25 6.9,25 8,25 C 8,27.4 8,39 8,39 C 8,40.1 9,41 10,41 L 38,41 C 39.1,41 40,40.1 40,39 C 40,39 40,27.4 40,25 C 41,25 42,25 42,25 C 42.8,25 43.7,24.7 44,24 C 44.1,23.8 44,23.2 44,23 C 44,22.5 43.5,22.4 43,22 C 43,22 39.9,19.7 39,19 C 39,17.8 39,10 39,10 C 39,8.8 38.2,8 37,8 L 31,8 C 30,8 29,9 29,10 C 27.1,8.4 25.4,6.7 25.4,6.7 C 25.4,6.7 23.7,6 22.8,6.7 L 5,22 z" style="fill:#fff;fill-rule:evenodd;stroke:#fff;stroke-miterlimit:4;fill-opacity:1;stroke-opacity:1;stroke-width:8;stroke-dasharray:none"/><path style="fill:#000;fill-rule:evenodd;stroke:none;stroke-miterlimit:4" id="path9" d="M 5,22 C 5,22 4,22.6 4,23 C 4,23.2 3.9,23.8 4,24 C 4.3,24.6 5.3,25 6,25 C 6,25 6.9,25 8,25 C 8,27.4 8,39 8,39 C 8,40.1 9,41 10,41 L 38,41 C 39.1,41 40,40.1 40,39 C 40,39 40,27.4 40,25 C 41,25 42,25 42,25 C 42.8,25 43.7,24.7 44,24 C 44.1,23.8 44,23.2 44,23 C 44,22.5 43.5,22.4 43,22 C 43,22 39.9,19.7 39,19 C 39,17.8 39,10 39,10 C 39,8.8 38.2,8 37,8 L 31,8 C 30,8 29,9 29,10 C 27.1,8.4 25.4,6.7 25.4,6.7 L 25.5,6.8 C 24.8,6.1 23.7,6 22.8,6.7 L 5,22 z"/><path style="fill:#fff;fill-rule:evenodd;stroke:none;stroke-miterlimit:4" id="path13" d="M 36,12 C 36,12 36,11 35,11 L 33,11 C 32,11 32,12 32,12 L 32,13.8 L 35.9,16.7 L 36,12 z"/><path style="fill:#fff;fill-rule:evenodd;stroke:none;stroke-miterlimit:4" id="path15" d="M 12,25 L 12,37 L 36,37 L 36,25 L 12,25 z"/><g id="crop_x0020_marks" style="fill-rule:nonzero;stroke:#000;stroke-miterlimit:4"><path style="fill:none;stroke:none" id="path18" d="M 48,48 L 0,48 L 0,0 L 48,0 L 48,48 z"/></g></svg>