<svg xmlns="http://www.w3.org/2000/svg" xmlns:svg="http://www.w3.org/2000/svg" id="svg2" width="48" height="48" version="1.0" viewBox="0 0 48 48" xml:space="preserve"><metadata id="metadata19"/><rect style="fill:none;fill-opacity:.4068768;fill-rule:evenodd;stroke:none;stroke-width:1px;stroke-linecap:butt;stroke-linejoin:miter;stroke-opacity:1" id="rect1318" width="48" height="48" x="0" y="0"/><path style="fill:#000;fill-opacity:1;fill-rule:evenodd;stroke:#fff;stroke-width:4;stroke-linecap:round;stroke-linejoin:round;stroke-opacity:1;stroke-miterlimit:4;stroke-dasharray:none" id="path3073" d="M 45 24 A 21 21 0 1 1 3,24 A 21 21 0 1 1 45 24 z"/><path style="fill:#fff;fill-rule:nonzero;stroke:none;stroke-miterlimit:4" id="path11" d="M 17.8,6.6 L 31.7,20.7 C 32.1,21.1 32,21.3 31.7,21.6 L 17.8,35.6 C 17.7,35.7 17,35.629099 17,35.429099 L 17,27 L 6.1,27.2 C 5.8,27.2 4,27.2 4,27 L 4,16 C 4,15.7 5.8,15.3 6.1,15.3 L 17,15 L 17,6.5454948 C 17,6.5454948 17,6 17.8,6.6 z"/></svg>