<svg xmlns="http://www.w3.org/2000/svg" xmlns:svg="http://www.w3.org/2000/svg" id="svg2" width="48" height="48" version="1.0" viewBox="0 0 48 48" xml:space="preserve"><metadata id="metadata21"/><g id="Layer_x0020_3" style="fill:#fff;fill-rule:nonzero;stroke:#fff;stroke-width:7.59009981;stroke-linejoin:round;stroke-miterlimit:4"><g id="g5"><path id="path7" d="M 20,41.1 C 20,41.4 20.3,41.4 20.5,41.3 L 37.1,24.4 C 37.6,23.9 37.5,23.7 37.1,23.4 L 20.5,6.7 C 20.4,6.6 20.1,6.6 20.1,6.8 L 20.1,16.8 L 6.5,16.8 C 6.2,16.8 6,17 6,17.2 L 6,30.5 C 6,30.8 6.2,31 6.5,31 L 20,31 L 20,41.1 z"/><path id="path9" d="M 37.9,41.2 C 37.7,41.2 37.6,41.1 37.6,40.9 L 37.6,7.1 C 37.6,6.9 37.7,6.8 37.9,6.8 L 41.7,6.8 C 41.9,6.8 42,6.9 42,7.1 L 42,40.8 C 42,41 41.9,41.1 41.7,41.1 L 37.9,41.1 L 37.9,41.2 z"/><path style="fill:#000;stroke:none" id="path11" d="M 20,41.1 C 20,41.4 20.3,41.4 20.5,41.3 L 37.1,24.4 C 37.6,23.9 37.5,23.7 37.1,23.4 L 20.5,6.7 C 20.4,6.6 20.1,6.6 20.1,6.8 L 20.1,16.8 L 6.5,16.8 C 6.2,16.8 6,17 6,17.2 L 6,30.5 C 6,30.8 6.2,31 6.5,31 L 20,31 L 20,41.1 z"/><path style="fill:#000;stroke:none" id="path13" d="M 37.9,41.2 C 37.7,41.2 37.6,41.1 37.6,40.9 L 37.6,7.1 C 37.6,6.9 37.7,6.8 37.9,6.8 L 41.7,6.8 C 41.9,6.8 42,6.9 42,7.1 L 42,40.8 C 42,41 41.9,41.1 41.7,41.1 L 37.9,41.1 L 37.9,41.2 z"/></g></g><g id="crop_x0020_marks" style="fill-rule:nonzero;stroke:#000;stroke-miterlimit:4"><path style="fill:none;stroke:none" id="path16" d="M 48,48 L 0,48 L 0,0 L 48,0 L 48,48 z"/></g></svg>