<svg xmlns="http://www.w3.org/2000/svg" xmlns:svg="http://www.w3.org/2000/svg" id="svg2" width="48" height="48" version="1.0" viewBox="0 0 48 48" xml:space="preserve"><metadata id="metadata21"/><g id="Layer_x0020_3" style="fill:#fff;fill-rule:nonzero;stroke:#fff;stroke-width:7.59009981;stroke-linejoin:round;stroke-miterlimit:4"><g id="g5"><path id="path7" d="M 41.1,28 C 41.4,28 41.4,27.7 41.3,27.5 L 24.4,10.8 C 23.9,10.3 23.7,10.4 23.4,10.8 L 6.7,27.5 C 6.6,27.6 6.6,27.9 6.8,27.9 L 16.8,27.9 L 16.8,41.5 C 16.8,41.8 17,42 17.2,42 L 30.5,42 C 30.8,42 31,41.8 31,41.5 L 31,27.9 L 41.1,28 z"/><path id="path9" d="M 41.2,10.1 C 41.2,10.3 41.1,10.4 40.9,10.4 L 7.1,10.4 C 6.9,10.4 6.8,10.3 6.8,10.1 L 6.8,6.4 C 6.8,6.2 6.9,6.1 7.1,6.1 L 40.8,6.1 C 41,6.1 41.1,6.2 41.1,6.4 L 41.1,10.2 L 41.2,10.1 z"/><path style="fill:#000;stroke:none" id="path11" d="M 41.1,28 C 41.4,28 41.4,27.7 41.3,27.5 L 24.4,10.8 C 23.9,10.3 23.7,10.4 23.4,10.8 L 6.7,27.5 C 6.6,27.6 6.6,27.9 6.8,27.9 L 16.8,27.9 L 16.8,41.5 C 16.8,41.8 17,42 17.2,42 L 30.5,42 C 30.8,42 31,41.8 31,41.5 L 31,27.9 L 41.1,28 z"/><path style="fill:#000;stroke:none" id="path13" d="M 41.2,10.1 C 41.2,10.3 41.1,10.4 40.9,10.4 L 7.1,10.4 C 6.9,10.4 6.8,10.3 6.8,10.1 L 6.8,6.4 C 6.8,6.2 6.9,6.1 7.1,6.1 L 40.8,6.1 C 41,6.1 41.1,6.2 41.1,6.4 L 41.1,10.2 L 41.2,10.1 z"/></g></g><g id="crop_x0020_marks" style="fill-rule:nonzero;stroke:#000;stroke-miterlimit:4"><path style="fill:none;stroke:none" id="path16" d="M 48,48 L 0,48 L 0,0 L 48,0 L 48,48 z"/></g></svg>