<svg xmlns="http://www.w3.org/2000/svg" xmlns:cc="http://web.resource.org/cc/" xmlns:svg="http://www.w3.org/2000/svg" id="svg1872" width="48" height="48"><metadata id="metadata1877"/><g id="layer1"><rect style="fill:none;fill-opacity:.43817204;fill-rule:evenodd;stroke:none;stroke-width:1px;stroke-linecap:butt;stroke-linejoin:miter;stroke-opacity:1" id="rect3653" width="48" height="48.329" x="0" y="0" rx="0" ry="0"/><path id="path5425" d="M 24.131507,5.1287675 L 28.999747,15.288887 L 40.129291,17.038475 L 31.970811,24.808096 L 33.746073,35.933573 L 23.835616,30.575343 L 13.803244,35.701679 L 15.836724,24.620489 L 7.8611155,16.663262 L 19.028333,15.17294 L 24.131507,5.1287675 z" transform="matrix(1.178198,0,0,1.183705,-4.271089,-1.080087)" style="fill:#fff;fill-opacity:1;fill-rule:evenodd;stroke:#fff;stroke-width:8.45229244;stroke-linecap:butt;stroke-linejoin:round;stroke-miterlimit:4;stroke-dasharray:none;stroke-opacity:1"/><path style="fill:#000;fill-opacity:1;fill-rule:evenodd;stroke:#000;stroke-width:1.69045842;stroke-linecap:butt;stroke-linejoin:round;stroke-miterlimit:4;stroke-dasharray:none;stroke-opacity:1" id="path1880" d="M 24.131507,5.1287675 L 28.999747,15.288887 L 40.129291,17.038475 L 31.970811,24.808096 L 33.746073,35.933573 L 23.835616,30.575343 L 13.803244,35.701679 L 15.836724,24.620489 L 7.8611155,16.663262 L 19.028333,15.17294 L 24.131507,5.1287675 z" transform="matrix(1.178127,0,0,1.169169,-4.269399,-1.004399)"/></g></svg>