<svg xmlns="http://www.w3.org/2000/svg" xmlns:svg="http://www.w3.org/2000/svg" id="svg3189" width="48" height="48" version="1.0"><metadata id="metadata3194"/><g id="layer1"><rect style="opacity:1;fill:#888a85;fill-opacity:0;stroke:none;stroke-width:1;stroke-linecap:round;stroke-linejoin:round;stroke-miterlimit:4;stroke-dasharray:none;stroke-dashoffset:0;stroke-opacity:1" id="rect3793" width="48" height="48" x="0" y="0" rx="0" ry="0"/><rect id="rect6561" width="40" height="34" x="4" y="4" rx="3" ry="3" style="fill:#000;fill-opacity:1;fill-rule:evenodd;stroke:#fff;stroke-width:8;stroke-linecap:round;stroke-linejoin:round;stroke-miterlimit:4;stroke-dasharray:none;stroke-opacity:1"/><path id="path3165" d="M 13.83565,26.522154 L 28.91435,26.522154 L 21.375,39.580691 L 13.83565,26.522154 z" transform="matrix(1,0,0,0.7657825,2.6250003,11.689799)" style="opacity:1;fill:#fff;fill-opacity:1;stroke:#fff;stroke-width:13.71287537;stroke-linecap:round;stroke-linejoin:round;stroke-miterlimit:4;stroke-dasharray:none;stroke-dashoffset:0;stroke-opacity:1"/><rect style="fill:#000;fill-opacity:1;fill-rule:evenodd;stroke:none;stroke-width:1px;stroke-linecap:butt;stroke-linejoin:miter;stroke-opacity:1" id="rect1315" width="40" height="34" x="4" y="4" rx="3.3" ry="3.3"/><rect id="rect6622" width="32" height="26" x="8" y="8" rx="1.5" ry="1.5" style="fill:#fff;fill-opacity:1;fill-rule:evenodd;stroke:none;stroke-width:1px;stroke-linecap:butt;stroke-linejoin:miter;stroke-opacity:1"/><path style="opacity:1;fill:#fff;fill-opacity:1;stroke:#fff;stroke-width:10.28465652;stroke-linecap:round;stroke-linejoin:round;stroke-miterlimit:4;stroke-dasharray:none;stroke-dashoffset:0;stroke-opacity:1" id="path3187" d="M 13.83565,26.522154 L 28.91435,26.522154 L 21.375,39.580691 L 13.83565,26.522154 z" transform="matrix(1,0,0,0.7657825,2.6250003,11.689799)"/><path style="opacity:1;fill:#fff;fill-opacity:1;stroke:#000;stroke-width:4.57095861;stroke-linecap:round;stroke-linejoin:round;stroke-miterlimit:4;stroke-dasharray:none;stroke-dashoffset:0;stroke-opacity:1" id="path3159" d="M 13.83565,26.522154 L 28.91435,26.522154 L 21.375,39.580691 L 13.83565,26.522154 z" transform="matrix(1,0,0,0.7657825,2.6250003,11.689799)"/><path style="fill-rule:nonzero;stroke:#000;stroke-width:1;stroke-linejoin:round;stroke-miterlimit:4;stroke-dasharray:none" id="path19" d="M 18.774625,26.500001 L 13.532834,26.500001 L 20.521889,11.500001 L 27.510946,11.500001 L 34.5,26.500001 L 29.25821,26.500001 L 27.510946,22.625 L 20.521889,22.57143 L 18.774625,26.500001 z M 27.15625,20.44643 C 27.15625,20.44643 24.948292,15.035716 24.598839,14.178572 L 23.433995,14.178572 C 23.142786,15.089287 21.019536,20.44643 21.019536,20.44643 L 27.15625,20.44643 z"/></g></svg>