<svg xmlns="http://www.w3.org/2000/svg" xmlns:svg="http://www.w3.org/2000/svg" id="svg2" width="48" height="48" version="1.0" viewBox="0 0 48 48" xml:space="preserve"><metadata id="metadata17"/><g id="Layer_x0020_3" style="fill-rule:nonzero;stroke:#000;stroke-miterlimit:4"><g id="g5"><path style="stroke:#fff;stroke-width:6.81409979;stroke-linejoin:round" id="path7" d="M 39.6,17.9 C 38.3,17.9 37.1,19.1 36.4,20.8 C 35.4,21.3 33.9,20.9 33.5,19.8 L 33.5,12.6 L 33.3,12.6 L 14.7,12.6 L 14.5,12.6 L 14.5,19.9 C 14.1,21.1 12.7,21.5 11.7,21 C 11.1,19.1 9.8,17.9 8.4,17.9 C 6.3,17.9 4.6,20.7 4.6,24.1 C 4.6,27.5 6.3,30.3 8.4,30.3 C 9.7,30.3 10.9,29.1 11.6,27.4 C 12.6,26.9 14.1,27.3 14.5,28.4 L 14.5,35.6 L 14.7,35.6 L 33.4,35.6 L 33.6,35.6 L 33.6,28.3 C 34,27.1 35.4,26.7 36.4,27.2 C 37,29.1 38.3,30.3 39.7,30.3 C 41.8,30.3 43.5,27.5 43.5,24.1 C 43.5,20.7 41.8,17.9 39.7,17.9 L 39.6,17.9 z"/><path style="stroke:none" id="path9" d="M 39.6,17.9 C 38.3,17.9 37.1,19.1 36.4,20.8 C 35.4,21.3 33.9,20.9 33.5,19.8 L 33.5,12.6 L 33.3,12.6 L 14.7,12.6 L 14.5,12.6 L 14.5,19.9 C 14.1,21.1 12.7,21.5 11.7,21 C 11.1,19.1 9.8,17.9 8.4,17.9 C 6.3,17.9 4.6,20.7 4.6,24.1 C 4.6,27.5 6.3,30.3 8.4,30.3 C 9.7,30.3 10.9,29.1 11.6,27.4 C 12.6,26.9 14.1,27.3 14.5,28.4 L 14.5,35.6 L 14.7,35.6 L 33.4,35.6 L 33.6,35.6 L 33.6,28.3 C 34,27.1 35.4,26.7 36.4,27.2 C 37,29.1 38.3,30.3 39.7,30.3 C 41.8,30.3 43.5,27.5 43.5,24.1 C 43.5,20.7 41.8,17.9 39.7,17.9 L 39.6,17.9 z"/></g></g><g id="crop_x0020_marks" style="fill-rule:nonzero;stroke:#000;stroke-miterlimit:4"><path style="fill:none;stroke:none" id="path12" d="M 48,48 L 0,48 L 0,0 L 48,0 L 48,48 z"/></g></svg>