<svg xmlns="http://www.w3.org/2000/svg" xmlns:svg="http://www.w3.org/2000/svg" id="svg1307" width="48" height="48"><metadata id="metadata1312"/><g id="layer1"><rect style="opacity:1;fill:#8e8e8e;fill-opacity:0;stroke:none;stroke-width:1;stroke-linecap:butt;stroke-linejoin:miter;stroke-miterlimit:4;stroke-dasharray:none;stroke-dashoffset:0;stroke-opacity:1" id="rect2385" width="48" height="48" x="0" y="0" rx="0" ry="0"/><rect id="rect6561" width="40" height="34" x="4" y="4" rx="3" ry="3" style="fill:#000;fill-opacity:1;fill-rule:evenodd;stroke:#fff;stroke-width:8;stroke-linecap:round;stroke-linejoin:round;stroke-miterlimit:4;stroke-dasharray:none;stroke-opacity:1"/><path id="path3165" d="M 13.83565,26.522154 L 28.91435,26.522154 L 21.375,39.580691 L 13.83565,26.522154 z" transform="matrix(1,0,0,0.7657825,2.6250001,11.689799)" style="opacity:1;fill:#fff;fill-opacity:1;stroke:#fff;stroke-width:13.7128753200000002;stroke-linecap:round;stroke-linejoin:round;stroke-miterlimit:4;stroke-dasharray:none;stroke-dashoffset:0;stroke-opacity:1"/><rect style="fill:#000;fill-opacity:1;fill-rule:evenodd;stroke:none;stroke-width:1px;stroke-linecap:butt;stroke-linejoin:miter;stroke-opacity:1" id="rect1315" width="40" height="34" x="4" y="4" rx="3.3" ry="3.3"/><rect id="rect6622" width="32" height="26" x="8" y="8" rx="1.5" ry="1.5" style="fill:#fff;fill-opacity:1;fill-rule:evenodd;stroke:none;stroke-width:1px;stroke-linecap:butt;stroke-linejoin:miter;stroke-opacity:1"/><path style="fill:#000;fill-opacity:1;fill-rule:evenodd;stroke:none;stroke-width:1px;stroke-linecap:butt;stroke-linejoin:miter;stroke-opacity:1" id="path2188" d="M 4.0620155,30.062016 L 13,19 C 14.643411,17.20155 15.790698,18.007752 17,19 L 25,28 C 28.093023,31.108527 23.992248,34.093023 22,31 L 15,23 L 5.4883721,34.945736"/><path id="path3962" d="M 19.828527,22.121775 L 30.068838,12.920224 C 31.712249,11.121774 32.859536,11.927976 34.068838,12.920224 L 41.882791,19.067511 C 44.975814,22.176038 40.875039,25.160534 38.882791,22.067511 L 32.068838,16.920224 L 20.882791,27.067511" style="fill:#000;fill-opacity:1;fill-rule:evenodd;stroke:none;stroke-width:1px;stroke-linecap:butt;stroke-linejoin:miter;stroke-opacity:1"/><path style="opacity:1;fill:#fff;fill-opacity:1;stroke:#fff;stroke-width:10.28465649;stroke-linecap:round;stroke-linejoin:round;stroke-miterlimit:4;stroke-dasharray:none;stroke-dashoffset:0;stroke-opacity:1" id="path3187" d="M 13.83565,26.522154 L 28.91435,26.522154 L 21.375,39.580691 L 13.83565,26.522154 z" transform="matrix(1,0,0,0.7657825,2.6250001,11.689799)"/><path style="opacity:1;fill:#fff;fill-opacity:1;stroke:#000;stroke-width:4.57095861;stroke-linecap:round;stroke-linejoin:round;stroke-miterlimit:4;stroke-dasharray:none;stroke-dashoffset:0;stroke-opacity:1" id="path3159" d="M 13.83565,26.522154 L 28.91435,26.522154 L 21.375,39.580691 L 13.83565,26.522154 z" transform="matrix(1,0,0,0.7657825,2.6250001,11.689799)"/></g></svg>