<svg xmlns="http://www.w3.org/2000/svg" xmlns:svg="http://www.w3.org/2000/svg" id="svg2" width="48" height="48" version="1.0"><metadata id="metadata7"/><g id="layer1"><rect style="fill:none;fill-opacity:.52479339000000003;stroke:none;stroke-width:3;stroke-linecap:round;stroke-linejoin:round;stroke-miterlimit:4;stroke-dasharray:none;stroke-opacity:1" id="rect3165" width="48" height="48" x="0" y="0"/><path style="fill:#fff;fill-opacity:1;fill-rule:evenodd;stroke:#fff;stroke-width:11;stroke-linecap:round;stroke-linejoin:round;stroke-miterlimit:4;stroke-dasharray:none;stroke-opacity:1" id="path3169" d="M 42.5,30.5 L 31.5,42.5 L 20.5,30.5 L 27.5,30.5 L 27.5,15.5 L 36.5,15.5 L 36.5,30.5 L 42.5,30.5 z"/><path id="path3167" d="M 5.5,17.5 L 16.5,5.5 L 27.5,17.5 L 20.5,17.5 L 20.5,32.5 L 11.5,32.5 L 11.5,17.5 L 5.5,17.5 z" style="fill:#fff;fill-rule:evenodd;stroke:#fff;stroke-width:11;stroke-linecap:round;stroke-linejoin:round;stroke-miterlimit:4;stroke-dasharray:none;stroke-opacity:1;fill-opacity:1"/><path style="fill:none;fill-rule:evenodd;stroke:#000;stroke-width:3;stroke-linecap:round;stroke-linejoin:round;stroke-miterlimit:4;stroke-dasharray:none;stroke-opacity:1" id="path2387" d="M 5.5,17.5 L 16.5,5.5 L 27.5,17.5 L 20.5,17.5 L 20.5,32.5 L 11.5,32.5 L 11.5,17.5 L 5.5,17.5 z"/><path id="path3159" d="M 42.5,30.5 L 31.5,42.5 L 20.5,30.5 L 27.5,30.5 L 27.5,15.5 L 36.5,15.5 L 36.5,30.5 L 42.5,30.5 z" style="fill:none;fill-rule:evenodd;stroke:#000;stroke-width:3;stroke-linecap:round;stroke-linejoin:round;stroke-miterlimit:4;stroke-dasharray:none;stroke-opacity:1"/></g></svg>