<svg xmlns="http://www.w3.org/2000/svg" xmlns:svg="http://www.w3.org/2000/svg" id="svg4932" width="48" height="48"><metadata id="metadata4937"/><g id="layer1"><rect style="fill:none;fill-opacity:1;stroke:none;stroke-width:12;stroke-linecap:round;stroke-linejoin:round;stroke-miterlimit:4;stroke-dasharray:none;stroke-opacity:1" id="rect2386" width="48" height="48" x="0" y="0" ry="0"/><path id="path3164" d="M 11.792261,26.10241 C 10.784144,25.086398 10.784144,23.054374 11.792261,22.038362 L 21.873448,7.8141937 C 22.881566,5.7821699 27.92216,4.7661577 27.92216,8.8302058 L 27.92216,17.974313 C 38.762522,18.012195 39.01495,13.761333 39.011466,10.86223 L 45.060176,10.86223 C 45.081978,19.271342 40.547536,29.9867 27.92216,30.166458 L 27.92216,39.310566 C 27.92216,43.374614 22.881566,42.358602 21.873448,40.326578 L 11.792261,26.10241 z" style="fill:#000;fill-opacity:1;stroke:#fff;stroke-width:6.07234573;stroke-linecap:round;stroke-linejoin:round;stroke-miterlimit:4;stroke-dasharray:none;stroke-dashoffset:0;stroke-opacity:1"/><path style="fill:#000;fill-opacity:1;stroke:#fff;stroke-width:6.13661909;stroke-linecap:round;stroke-linejoin:round;stroke-miterlimit:4;stroke-dasharray:none;stroke-dashoffset:0;stroke-opacity:1" id="path3162" d="M 3.8449037,26.020471 C 2.8094447,25.010237 2.8094447,22.989763 3.8449037,21.979529 L 14.199494,7.8362226 C 15.234954,5.8157504 20.412248,4.8055143 20.412248,8.8464587 L 20.412248,39.153542 C 20.412248,43.194486 15.234954,42.184249 14.199494,40.163777 L 3.8449037,26.020471 z"/><path id="path3160" d="M 4,26 C 3,25 3,23 4,22 L 14,8 C 15,6 20,5 20,9 L 20,39 C 20,43 15,42 14,40 L 4,26 z" style="fill:#000;fill-opacity:1;stroke:#fff;stroke-width:2;stroke-linecap:round;stroke-linejoin:round;stroke-miterlimit:4;stroke-dasharray:none;stroke-dashoffset:0;stroke-opacity:1"/><path style="fill:#000;fill-opacity:1;stroke:#fff;stroke-width:2;stroke-linecap:round;stroke-linejoin:round;stroke-miterlimit:4;stroke-dasharray:none;stroke-dashoffset:0;stroke-opacity:1" id="rect4942" d="M 12,26 C 11,25 11,23 12,22 L 22,8 C 23,6 28,5 28,9 L 28,18 C 38.753064,18.037284 39.003458,13.853415 39,11 L 45,11 C 45.021627,19.276587 40.523702,29.823077 28,30 L 28,39 C 28,43 23,42 22,40 L 12,26 z"/><rect style="opacity:1;fill:#fff;fill-opacity:1;stroke:none;stroke-width:4;stroke-linecap:round;stroke-linejoin:round;stroke-miterlimit:4;stroke-dasharray:none;stroke-dashoffset:0;stroke-opacity:1" id="rect7865" width="3" height="3" x="-103.625" y="-21.539" transform="scale(1,-1)"/><rect style="opacity:1;fill:#fff;fill-opacity:1;stroke:none;stroke-width:4;stroke-linecap:round;stroke-linejoin:round;stroke-miterlimit:4;stroke-dasharray:none;stroke-dashoffset:0;stroke-opacity:1" id="rect9805" width="3" height="3" x="-103.625" y="-34.539" transform="scale(1,-1)"/><rect style="opacity:.6;fill:none;fill-opacity:.8093385;stroke:none;stroke-width:1;stroke-linecap:round;stroke-linejoin:round;stroke-miterlimit:4;stroke-dasharray:none;stroke-opacity:.70588235" id="rect2170" width="48" height="48" x="-124.625" y="2.5" rx="0" ry="0"/></g></svg>