<svg xmlns="http://www.w3.org/2000/svg" xmlns:cc="http://web.resource.org/cc/" xmlns:svg="http://www.w3.org/2000/svg" id="svg1307" width="48" height="48"><metadata id="metadata1312"/><g id="layer1"><path id="path1875" d="M 6.8503124,14 L 21.004249,4.888583 C 22.979408,3.6341125 24.16227,3.8321869 26.137429,4.888583 L 41.017638,14 C 42.207108,15.087542 43,15.768367 43,17.964949 L 43,40.035051 C 43,42.231633 41.203008,44 38.97087,44 L 9.0291295,44 C 6.7969918,44 5,42.231633 5,40.035051 L 5,17.964949 C 5,15.768367 6.0046946,14.924347 6.8503124,14 z" style="fill:#fff;fill-opacity:1;fill-rule:evenodd;stroke:#fff;stroke-width:8;stroke-linecap:butt;stroke-linejoin:miter;stroke-opacity:1;stroke-miterlimit:4;stroke-dasharray:none"/><path style="fill:#000;fill-opacity:1;fill-rule:evenodd;stroke:none;stroke-width:1px;stroke-linecap:butt;stroke-linejoin:miter;stroke-opacity:1" id="rect2248" d="M 6.8503124,14 L 21.004249,4.888583 C 22.913383,3.3700135 24.16227,3.4360383 26.137429,4.888583 L 41.017638,14 C 42.207108,15.087542 43,15.768367 43,17.964949 L 43,40.035051 C 43,42.231633 41.203008,44 38.97087,44 L 9.0291295,44 C 6.7969918,44 5,42.231633 5,40.035051 L 5,17.964949 C 5,15.768367 6.0046946,14.924347 6.8503124,14 z"/><path style="fill:#fff;fill-opacity:1;fill-rule:evenodd;stroke:none;stroke-width:1px;stroke-linecap:butt;stroke-linejoin:miter;stroke-opacity:1" id="rect3123" d="M 9,18 L 23.471802,7.9642363 L 39,18 L 39,40 L 9,40 L 9,18 z"/><path id="path1876" d="M 8,18.174564 L 22,32 C 23.025769,32.868777 23.884336,32.940976 24.897756,32 L 40.077307,17.820449" style="fill:none;fill-opacity:.75;fill-rule:evenodd;stroke:#000;stroke-width:2.5;stroke-linecap:round;stroke-linejoin:round;stroke-miterlimit:4;stroke-dasharray:none;stroke-opacity:1"/></g></svg>