<svg xmlns="http://www.w3.org/2000/svg" xmlns:svg="http://www.w3.org/2000/svg" id="svg11300" width="48" height="48"><metadata id="metadata4"/><g id="layer1"><path style="color:#000;fill:#fff;fill-opacity:1;fill-rule:nonzero;stroke:#fff;stroke-width:8;stroke-linecap:round;stroke-linejoin:round;marker:none;marker-start:none;marker-mid:none;marker-end:none;stroke-miterlimit:4;stroke-dasharray:none;stroke-dashoffset:0;stroke-opacity:1;visibility:visible;display:block;overflow:visible" id="path3066" d="M 41,4 C 17.950895,4 15,8.4929237 15,29 L 7,29 L 20,44 L 34,29 C 34,29 25,29 25,29 C 25,16.433925 27.453515,13 41,13 L 41,4 z"/><path id="path1348" d="M 41,4 C 17.950895,4 15,8.4929237 15,29 L 7,29 L 20,44 L 34,29 C 34,29 25,29 25,29 C 25,16.433925 27.453515,13 41,13 L 41,4 z" style="color:#000;fill:#000;fill-opacity:1;fill-rule:nonzero;stroke:none;stroke-width:1.00000012;stroke-linecap:butt;stroke-linejoin:miter;marker:none;marker-start:none;marker-mid:none;marker-end:none;stroke-miterlimit:4;stroke-dasharray:none;stroke-dashoffset:0;stroke-opacity:.56160458;visibility:visible;display:block;overflow:visible"/><rect style="fill:none;fill-opacity:.75;fill-rule:evenodd;stroke:none;stroke-width:1px;stroke-linecap:butt;stroke-linejoin:miter;stroke-opacity:1" id="rect3089" width="48" height="48" x="0" y="0" rx="0" ry="0"/><rect style="fill:none;fill-opacity:.75;fill-rule:evenodd;stroke:none;stroke-width:1px;stroke-linecap:butt;stroke-linejoin:miter;stroke-opacity:1" id="rect3091" width="0" height="0" x="48" y="0" rx="0"/></g></svg>