<svg xmlns="http://www.w3.org/2000/svg" xmlns:cc="http://web.resource.org/cc/" xmlns:svg="http://www.w3.org/2000/svg" id="svg249" width="48" height="48"><metadata id="metadata4"/><g id="layer5" style="display:inline"><rect style="fill:none;fill-opacity:.27027026;stroke:none;stroke-width:4;stroke-linecap:round;stroke-linejoin:round;stroke-miterlimit:4;stroke-dasharray:none;stroke-opacity:1" id="rect1493" width="48" height="48" x="0" y="0"/><path style="fill:#fff;fill-opacity:1;stroke:none;stroke-width:4;stroke-linecap:round;stroke-linejoin:round;stroke-miterlimit:4;stroke-dasharray:none;stroke-opacity:1" id="path3244" d="M 40 20 A 20 20 0 1 1 0,20 A 20 20 0 1 1 40 20 z" transform="matrix(-1,0,0,1,48.01255,0)"/><path id="path2682" d="M 18.512551,29.5 L 16.512551,36 L 9.5125512,43.5 C 9.0300792,44.016934 6.7803182,44.767767 5.0125512,43 C 3.5125512,41.5 3.9792182,38.997777 4.5125512,38.5 L 12.012551,31.5 L 18.512551,29.5 z" style="color:#000;fill:#fff;fill-opacity:1;fill-rule:nonzero;stroke:#fff;stroke-width:8;stroke-linecap:round;stroke-linejoin:round;marker:none;marker-start:none;marker-mid:none;marker-end:none;stroke-miterlimit:4;stroke-dasharray:none;stroke-dashoffset:0;stroke-opacity:1;visibility:visible;display:inline;overflow:visible"/><path style="fill:#000;fill-opacity:1;stroke:none;stroke-width:4;stroke-linecap:round;stroke-linejoin:round;stroke-miterlimit:4;stroke-dasharray:none;stroke-opacity:1" id="path4119" d="M 36 20 A 16 16 0 1 1 4,20 A 16 16 0 1 1 36 20 z" transform="matrix(-1,0,0,1,48.01255,0)"/><path style="fill:#fff;fill-opacity:1;stroke:none;stroke-width:4;stroke-linecap:round;stroke-linejoin:round;stroke-miterlimit:4;stroke-dasharray:none;stroke-opacity:1" id="path4994" d="M 32 20 A 12 12 0 1 1 8,20 A 12 12 0 1 1 32 20 z" transform="matrix(-1,0,0,1,48.01255,0)"/><path style="color:#000;fill:#000;fill-opacity:1;fill-rule:nonzero;stroke:none;stroke-width:8;stroke-linecap:round;stroke-linejoin:round;marker:none;marker-start:none;marker-mid:none;marker-end:none;stroke-miterlimit:4;stroke-dasharray:none;stroke-dashoffset:0;stroke-opacity:1;visibility:visible;display:inline;overflow:visible" id="path15511" d="M 18.512551,29.5 L 16.512551,36 L 9.5125512,43.5 C 9.0300792,44.016934 6.7803182,44.767767 5.0125512,43 C 3.5125512,41.5 3.9792182,38.997777 4.5125512,38.5 L 12.012551,31.5 L 18.512551,29.5 z"/></g></svg>