<svg xmlns="http://www.w3.org/2000/svg" xmlns:svg="http://www.w3.org/2000/svg" id="svg2" width="48" height="48" version="1.0" viewBox="0 0 48 48" xml:space="preserve"><metadata id="metadata29"/><g id="Layer_x0020_3" style="fill-rule:nonzero;stroke:#fff;stroke-width:6.68709993;stroke-linejoin:round;stroke-miterlimit:4"><g id="g5"><path style="fill-rule:evenodd" id="path7" d="M 21.8,30.2 C 19,27.4 15.3,23.7 15.3,23.7 L 9.4,29.6 L 21.8,42 L 43.3,20.5 L 37.4,14.6 C 37.4,14.6 25.9,26.1 21.7,30.3 L 21.8,30.2 z"/><path style="fill-rule:evenodd;stroke:none" id="path9" d="M 21.8,30.2 C 19,27.4 15.3,23.7 15.3,23.7 L 9.4,29.6 L 21.8,42 L 43.3,20.5 L 37.4,14.6 C 37.4,14.6 25.9,26.1 21.7,30.3 L 21.8,30.2 z"/><g id="g11"><path id="path13" d="M 9.2,17.2 L 8.2,21 L 4.6,21 L 9.2,6.2 L 13.6,6.2 L 18.2,21.1 L 14.6,21.1 L 13.5,17.3 L 9.2,17.3 L 9.2,17.2 z M 12.9,14.7 L 12,11.6 C 11.8,10.7 11.5,9.6 11.3,8.7 L 11.2,8.7 C 11,9.6 10.8,10.7 10.5,11.6 L 9.6,14.8 L 12.9,14.8 L 12.9,14.7 z"/><path id="path15" d="M 20.2,6.4 C 21.1,6.2 22.8,6.1 24.5,6.1 C 26.5,6.1 27.8,6.3 28.9,6.9 C 29.9,7.4 30.7,8.5 30.7,9.8 C 30.7,11.1 29.9,12.3 28.3,13 L 28.3,13 C 30,13.4 31.3,14.7 31.3,16.7 C 31.3,18.1 30.7,19.1 29.8,19.9 C 28.7,20.8 26.9,21.2 24,21.2 C 22.3,21.2 21.1,21.1 20.4,21 L 20.4,6.4 L 20.2,6.4 z M 23.5,12.1 L 24.6,12.1 C 26.4,12.1 27.3,11.4 27.3,10.3 C 27.3,9.2 26.4,8.6 24.9,8.6 C 24.2,8.6 23.7,8.6 23.5,8.7 L 23.5,12.1 L 23.5,12.1 z M 23.5,18.7 C 23.8,18.8 24.2,18.8 24.8,18.8 C 26.3,18.8 27.7,18.2 27.7,16.6 C 27.7,15.1 26.4,14.5 24.7,14.5 L 23.6,14.5 L 23.6,18.7 L 23.5,18.7 z"/></g><g style="stroke:none" id="g17"><path id="path19" d="M 9.2,17.2 L 8.2,21 L 4.6,21 L 9.2,6.2 L 13.6,6.2 L 18.2,21.1 L 14.6,21.1 L 13.5,17.3 L 9.2,17.3 L 9.2,17.2 z M 12.9,14.7 L 12,11.6 C 11.8,10.7 11.5,9.6 11.3,8.7 L 11.2,8.7 C 11,9.6 10.8,10.7 10.5,11.6 L 9.6,14.8 L 12.9,14.8 L 12.9,14.7 z"/><path id="path21" d="M 20.2,6.4 C 21.1,6.2 22.8,6.1 24.5,6.1 C 26.5,6.1 27.8,6.3 28.9,6.9 C 29.9,7.4 30.7,8.5 30.7,9.8 C 30.7,11.1 29.9,12.3 28.3,13 L 28.3,13 C 30,13.4 31.3,14.7 31.3,16.7 C 31.3,18.1 30.7,19.1 29.8,19.9 C 28.7,20.8 26.9,21.2 24,21.2 C 22.3,21.2 21.1,21.1 20.4,21 L 20.4,6.4 L 20.2,6.4 z M 23.5,12.1 L 24.6,12.1 C 26.4,12.1 27.3,11.4 27.3,10.3 C 27.3,9.2 26.4,8.6 24.9,8.6 C 24.2,8.6 23.7,8.6 23.5,8.7 L 23.5,12.1 L 23.5,12.1 z M 23.5,18.7 C 23.8,18.8 24.2,18.8 24.8,18.8 C 26.3,18.8 27.7,18.2 27.7,16.6 C 27.7,15.1 26.4,14.5 24.7,14.5 L 23.6,14.5 L 23.6,18.7 L 23.5,18.7 z"/></g></g></g><g id="crop_x0020_marks" style="fill-rule:nonzero;stroke:#000;stroke-miterlimit:4"><path style="fill:none;stroke:none" id="path24" d="M 48,48 L 0,48 L 0,0 L 48,0 L 48,48 z"/></g></svg>