<svg xmlns="http://www.w3.org/2000/svg" xmlns:cc="http://web.resource.org/cc/" xmlns:svg="http://www.w3.org/2000/svg" id="svg3737" width="48" height="48" version="1.0" viewBox="0 0 48 48" xml:space="preserve"><metadata id="metadata3756"/><path style="fill:#fff;fill-opacity:1;fill-rule:evenodd;stroke:none;stroke-width:1px;stroke-linecap:butt;stroke-linejoin:miter;stroke-opacity:1" id="path5537" d="M 47 24 A 23 23 0 1 1 1,24 A 23 23 0 1 1 47 24 z"/><path style="fill:#000;fill-opacity:1;fill-rule:evenodd;stroke:none;stroke-width:1px;stroke-linecap:butt;stroke-linejoin:miter;stroke-opacity:1" id="path6424" d="M 43 24 A 19 19 0 1 1 5,24 A 19 19 0 1 1 43 24 z"/><path style="fill:#fff;fill-rule:nonzero;stroke:none;stroke-miterlimit:4" id="path3746" d="M 29.1,8.9 C 29.1,8.8 28.9,8.7 28.9,8.8 L 20.9,16.9 C 20.6,17.2 20.7,17.2 20.9,17.4 L 28.9,25.4 C 29,25.5 29.1,25.4 29.1,25.3 L 29,20 L 31,20 C 33,20 34,20.2 34,22 L 34,25 C 34,27 30.1,27.3 30.1,27.9 C 30.1,28.5 31,29 31,29 L 34,29 C 36.7,29 38,26.6 38,24 L 38,20 C 38,15.8 35.4,14 32,14 L 29,14 L 29,8.9 L 29.1,8.9 z"/><g id="crop_x0020_marks" style="fill-rule:nonzero;stroke:#000;stroke-miterlimit:4"><path style="fill:none;stroke:none" id="path3751" d="M 48,48 L 0,48 L 0,0 L 48,0 L 48,48 z"/></g><path id="path7311" d="M 18.9,39.1 C 18.9,39.2 19.1,39.3 19.1,39.2 L 27.1,31.1 C 27.4,30.8 27.3,30.8 27.1,30.6 L 19.1,22.6 C 19,22.5 18.9,22.6 18.9,22.7 L 19,28 L 17,28 C 15,28 14,27.8 14,26 L 14,23 C 14,21 17.9,20.7 17.9,20.1 C 17.9,19.5 17,19 17,19 L 14,19 C 11.3,19 10,21.4 10,24 L 10,28 C 10,32.2 12.6,34 16,34 L 19,34 L 19,39.1 L 18.9,39.1 z" style="fill:#fff;fill-rule:nonzero;stroke:none;stroke-miterlimit:4"/></svg>