<svg xmlns="http://www.w3.org/2000/svg" xmlns:svg="http://www.w3.org/2000/svg" id="svg2" width="48" height="48" version="1.0" viewBox="0 0 48 48" xml:space="preserve"><metadata id="metadata45"/><g id="Layer_x0020_4" style="fill-rule:nonzero;stroke:#000;stroke-miterlimit:4"><g style="stroke:none" id="g5"><g id="g7"><g id="g9"><path id="path11" d="M 36.7,9.2 L 36.7,9.2 L 34.9,10.1 L 34.5,8.4 L 37.1,7.2 L 39,7.2 L 39,16.8 L 36.8,16.8 L 36.8,9.2 L 36.7,9.2 z"/><path id="path13" d="M 34.6,38.9 C 34.9,38.9 35.1,38.9 35.6,38.9 C 36.3,38.9 37,38.7 37.5,38.3 C 38.1,37.9 38.6,37.2 38.7,36.5 L 38.7,36.5 C 38.3,36.9 37.6,37.2 36.7,37.2 C 35.1,37.2 33.7,36.1 33.7,34.2 C 33.7,32.3 35.2,30.7 37.3,30.7 C 39.8,30.7 40.9,32.6 40.9,34.8 C 40.9,36.8 40.3,38.3 39.2,39.2 C 38.3,40 37,40.5 35.5,40.5 C 35.1,40.5 34.7,40.5 34.5,40.5 L 34.5,38.7 L 34.6,38.9 z M 37.2,32.3 C 36.4,32.3 35.9,33 35.9,34 C 35.9,34.8 36.4,35.5 37.3,35.5 C 37.9,35.5 38.3,35.2 38.6,34.9 C 38.7,34.8 38.7,34.6 38.7,34.3 C 38.7,33.3 38.3,32.3 37.3,32.3 L 37.3,32.3 L 37.2,32.3 z"/></g><g style="fill:none;stroke:#fff;stroke-width:6" id="g15"><path id="path17" d="M 36.7,9.2 L 36.7,9.2 L 34.9,10.1 L 34.5,8.4 L 37.1,7.2 L 39,7.2 L 39,16.8 L 36.8,16.8 L 36.8,9.2 L 36.7,9.2 z"/><path id="path19" d="M 34.6,38.9 C 34.9,38.9 35.1,38.9 35.6,38.9 C 36.3,38.9 37,38.7 37.5,38.3 C 38.1,37.9 38.6,37.2 38.7,36.5 L 38.7,36.5 C 38.3,36.9 37.6,37.2 36.7,37.2 C 35.1,37.2 33.7,36.1 33.7,34.2 C 33.7,32.3 35.2,30.7 37.3,30.7 C 39.8,30.7 40.9,32.6 40.9,34.8 C 40.9,36.8 40.3,38.3 39.2,39.2 C 38.3,40 37,40.5 35.5,40.5 C 35.1,40.5 34.7,40.5 34.5,40.5 L 34.5,38.7 L 34.6,38.9 z M 37.2,32.3 C 36.4,32.3 35.9,33 35.9,34 C 35.9,34.8 36.4,35.5 37.3,35.5 C 37.9,35.5 38.3,35.2 38.6,34.9 C 38.7,34.8 38.7,34.6 38.7,34.3 C 38.7,33.3 38.3,32.3 37.3,32.3 L 37.3,32.3 L 37.2,32.3 z"/></g></g><path style="stroke:#fff;stroke-width:6;stroke-linejoin:round" id="path21" d="M 39.2,26.7 C 39.2,27.7 38.4,28.4 37.5,28.4 C 36.5,28.4 35.8,27.6 35.8,26.7 C 35.8,25.7 36.6,25 37.5,25 C 38.5,25 39.2,25.8 39.2,26.7 z"/><path style="stroke:#fff;stroke-width:6;stroke-linejoin:round" id="path23" d="M 39.2,21.5 C 39.2,22.5 38.4,23.2 37.5,23.2 C 36.5,23.2 35.8,22.4 35.8,21.5 C 35.8,20.5 36.6,19.8 37.5,19.8 C 38.5,19.8 39.2,20.6 39.2,21.5 z"/><path style="stroke:#fff;stroke-width:6;stroke-linejoin:round" id="path25" d="M 25.6,27.3 C 25.6,27.3 23.5,29.4 21.4,31.5 L 21.4,8.2 L 15.5,8.2 L 15.5,31.6 C 13.4,29.5 11.3,27.4 11.3,27.4 L 7,31.5 L 16.3,40.8 C 17.5,42 19.3,42 20.5,40.8 L 29.8,31.5 L 25.6,27.3 L 25.6,27.3 z"/><g id="g27"><path id="path29" d="M 36.6,9.4 L 36.6,9.4 L 34.8,10.3 L 34.4,8.6 L 36.9,7.4 L 38.7,7.4 L 38.7,16.9 L 36.6,16.9 L 36.6,9.4 z"/><path id="path31" d="M 34.4,38.6 C 34.7,38.6 34.9,38.6 35.4,38.6 C 36.1,38.6 36.8,38.4 37.3,38 C 37.9,37.6 38.3,37 38.5,36.3 L 38.5,36.3 C 38.1,36.7 37.5,37 36.6,37 C 35,37 33.7,35.9 33.7,34 C 33.7,32.2 35.2,30.6 37.3,30.6 C 39.7,30.6 40.9,32.5 40.9,34.7 C 40.9,36.7 40.3,38.1 39.3,39 C 38.4,39.8 37.1,40.3 35.7,40.3 C 35.3,40.3 35,40.3 34.7,40.3 L 34.7,38.6 L 34.4,38.6 z M 37,32.2 C 36.3,32.2 35.7,32.9 35.7,33.9 C 35.7,34.7 36.2,35.4 37,35.4 C 37.6,35.4 38,35.1 38.3,34.8 C 38.4,34.7 38.4,34.5 38.4,34.2 C 38.4,33.2 38,32.2 37,32.2 L 37,32.2 z"/></g><path id="path33" d="M 39.3,26.7 C 39.3,27.7 38.5,28.4 37.6,28.4 C 36.6,28.4 35.9,27.6 35.9,26.7 C 35.9,25.7 36.7,25 37.6,25 C 38.6,25 39.3,25.8 39.3,26.7 z"/><path id="path35" d="M 39.3,21.4 C 39.3,22.4 38.5,23.1 37.6,23.1 C 36.6,23.1 35.9,22.3 35.9,21.4 C 35.9,20.4 36.7,19.7 37.6,19.7 C 38.6,19.7 39.3,20.5 39.3,21.4 z"/><path id="path37" d="M 25.7,27.3 C 25.7,27.3 23.6,29.4 21.5,31.5 L 21.5,8.2 L 15.6,8.2 L 15.6,31.6 C 13.5,29.5 11.4,27.4 11.4,27.4 L 7.2,31.6 L 16.5,40.9 C 17.7,42.1 19.5,42.1 20.7,40.9 L 30,31.6 L 25.8,27.4 L 25.7,27.3 z"/></g></g><g id="crop_x0020_marks" style="fill-rule:nonzero;stroke:#000;stroke-miterlimit:4"><path style="fill:none;stroke:none" id="path40" d="M 48,48 L 0,48 L 0,0 L 48,0 L 48,48 z"/></g></svg>