<svg xmlns="http://www.w3.org/2000/svg" xmlns:cc="http://web.resource.org/cc/" xmlns:svg="http://www.w3.org/2000/svg" id="svg1306" width="48" height="48"><metadata id="metadata1311"/><g id="layer1"><rect style="fill:none;fill-opacity:.75;fill-rule:evenodd;stroke:none;stroke-width:1px;stroke-linecap:butt;stroke-linejoin:miter;stroke-opacity:1" id="rect5680" width="48" height="48" x="0" y="0" ry="0"/><rect id="rect4952" width="38" height="34.95" x="5" y="5" ry="1.384" style="fill:#fff;fill-opacity:1;fill-rule:evenodd;stroke:#fff;stroke-width:8;stroke-linecap:round;stroke-linejoin:round;stroke-opacity:1;stroke-miterlimit:4;stroke-dasharray:none"/><path style="fill:#000;fill-opacity:1;fill-rule:evenodd;stroke:none;stroke-width:1px;stroke-linecap:butt;stroke-linejoin:miter;stroke-opacity:1" id="rect1314" d="M 8.0000000,5.0000000 L 40.000000,5.0000000 C 42.000000,5.0000000 43.000000,6.0000000 43.000000,8.0000000 L 43.000000,40.000000 L 5.0000000,40.000000 L 5.0000000,8.0000000 C 5.0000000,6.0000000 6.0000000,5.0000000 8.0000000,5.0000000 z"/><path style="fill:#fff;fill-opacity:1;fill-rule:evenodd;stroke:none;stroke-width:1px;stroke-linecap:butt;stroke-linejoin:miter;stroke-opacity:1" id="rect2044" d="M 10.000000,9.0000000 L 38.000000,9.0000000 C 38.592482,9.0000000 39.000000,9.4075181 39.000000,10.000000 L 39.000000,35.000000 C 39.000000,35.592482 38.592482,36.000000 38.000000,36.000000 L 10.000000,36.000000 C 9.4075182,36.000000 9.0000000,35.592482 9.0000000,35.000000 L 9.0000000,10.000000 C 9.0000000,9.4075181 9.4075182,9.0000000 10.000000,9.0000000 z"/><path style="fill:none;fill-opacity:.75;fill-rule:evenodd;stroke:#000;stroke-width:6;stroke-linecap:butt;stroke-linejoin:miter;stroke-opacity:1;stroke-miterlimit:4;stroke-dasharray:none" id="path2772" d="M 11.000000,14.000000 L 37.000000,14.000000"/><path style="fill:none;fill-opacity:.75;fill-rule:evenodd;stroke:#000;stroke-width:4;stroke-linecap:butt;stroke-linejoin:miter;stroke-miterlimit:4;stroke-dasharray:none;stroke-opacity:1" id="path1874" d="M 16,27 L 32,27"/><path id="path2762" d="M 24,19 L 24,35" style="fill:none;fill-opacity:.75;fill-rule:evenodd;stroke:#000;stroke-width:4;stroke-linecap:butt;stroke-linejoin:miter;stroke-miterlimit:4;stroke-dasharray:none;stroke-opacity:1"/></g></svg>