<svg xmlns="http://www.w3.org/2000/svg" xmlns:cc="http://web.resource.org/cc/" xmlns:svg="http://www.w3.org/2000/svg" id="svg249" width="48" height="48"><metadata id="metadata4"/><g id="layer5" style="display:inline"><rect style="fill:none;fill-opacity:.27027026;stroke:none;stroke-width:4;stroke-linecap:round;stroke-linejoin:round;stroke-miterlimit:4;stroke-dasharray:none;stroke-opacity:1" id="rect1493" width="48" height="48" x="0" y="0"/><path style="fill:#fff;fill-opacity:1;stroke:none;stroke-width:4;stroke-linecap:round;stroke-linejoin:round;stroke-miterlimit:4;stroke-dasharray:none;stroke-opacity:1" id="path3244" d="M 40 20 A 20 20 0 1 1 0,20 A 20 20 0 1 1 40 20 z"/><path id="path2682" d="M 29.5,29.5 L 31.5,36 L 38.5,43.5 C 38.982472,44.016934 41.232233,44.767767 43,43 C 44.5,41.5 44.033333,38.997777 43.5,38.5 L 36,31.5 L 29.5,29.5 z" style="color:#000;fill:#fff;fill-opacity:1;fill-rule:nonzero;stroke:#fff;stroke-width:8;stroke-linecap:round;stroke-linejoin:round;marker:none;marker-start:none;marker-mid:none;marker-end:none;stroke-miterlimit:4;stroke-dasharray:none;stroke-dashoffset:0;stroke-opacity:1;visibility:visible;display:inline;overflow:visible"/><path style="fill:#000;fill-opacity:1;stroke:none;stroke-width:4;stroke-linecap:round;stroke-linejoin:round;stroke-miterlimit:4;stroke-dasharray:none;stroke-opacity:1" id="path4119" d="M 36 20 A 16 16 0 1 1 4,20 A 16 16 0 1 1 36 20 z"/><path style="fill:#fff;fill-opacity:1;stroke:none;stroke-width:4;stroke-linecap:round;stroke-linejoin:round;stroke-miterlimit:4;stroke-dasharray:none;stroke-opacity:1" id="path4994" d="M 32 20 A 12 12 0 1 1 8,20 A 12 12 0 1 1 32 20 z"/><path style="color:#000;fill:#000;fill-opacity:1;fill-rule:nonzero;stroke:none;stroke-width:8;stroke-linecap:round;stroke-linejoin:round;marker:none;marker-start:none;marker-mid:none;marker-end:none;stroke-miterlimit:4;stroke-dasharray:none;stroke-dashoffset:0;stroke-opacity:1;visibility:visible;display:inline;overflow:visible" id="path15511" d="M 29.5,29.5 L 31.5,36 L 38.5,43.5 C 38.982472,44.016934 41.232233,44.767767 43,43 C 44.5,41.5 44.033333,38.997777 43.5,38.5 L 36,31.5 L 29.5,29.5 z"/><rect style="fill:none;fill-opacity:1;stroke:none;stroke-width:8;stroke-linecap:round;stroke-linejoin:round;stroke-miterlimit:4;stroke-dasharray:none;stroke-opacity:1" id="rect17259" width="17" height="17" x="11.5" y="11.5"/><path style="font-size:24px;font-style:normal;font-variant:normal;font-weight:700;font-stretch:normal;text-align:start;line-height:100%;writing-mode:lr-tb;text-anchor:start;fill:#000;fill-opacity:1;stroke:none;stroke-width:1px;stroke-linecap:butt;stroke-linejoin:miter;stroke-opacity:1;font-family:Bitstream Vera Sans" id="text23386" d="M 14.105469,24.882812 L 18.089844,24.882812 L 18.089844,13.574219 L 14,14.417969 L 14,11.347656 L 18.066406,10.503906 L 22.355469,10.503906 L 22.355469,24.882812 L 26.339844,24.882812 L 26.339844,28 L 14.105469,28 L 14.105469,24.882812"/></g></svg>