<svg xmlns="http://www.w3.org/2000/svg" xmlns:cc="http://web.resource.org/cc/" xmlns:svg="http://www.w3.org/2000/svg" id="svg1307" width="48" height="48"><metadata id="metadata1312"/><g id="layer1"><path style="fill:#fff;fill-opacity:1;fill-rule:evenodd;stroke:none;stroke-width:1px;stroke-linecap:butt;stroke-linejoin:miter;stroke-opacity:1" id="path1331" d="M 47 24 A 23 23 0 1 1 1,24 A 23 23 0 1 1 47 24 z"/><path style="fill:#000;fill-opacity:1;fill-rule:evenodd;stroke:none;stroke-width:1px;stroke-linecap:butt;stroke-linejoin:miter;stroke-opacity:1" id="path2206" d="M 43 24 A 19 19 0 1 1 5,24 A 19 19 0 1 1 43 24 z"/><path style="fill:#fff;fill-opacity:1;fill-rule:evenodd;stroke:none;stroke-width:1px;stroke-linecap:butt;stroke-linejoin:miter;stroke-opacity:1" id="path3089" d="M 24,9 A 15,15 0 0 1 39,24 L 24,24 z"/><path id="path3964" d="M 24,9 A 15,15 0 0 1 39,24 L 24,24 z" transform="matrix(-1,7.849624e-17,-7.849624e-17,-1,48,48)" style="fill:#fff;fill-opacity:1;fill-rule:evenodd;stroke:none;stroke-width:1px;stroke-linecap:butt;stroke-linejoin:miter;stroke-opacity:1"/></g></svg>