<svg xmlns="http://www.w3.org/2000/svg" xmlns:cc="http://web.resource.org/cc/" xmlns:svg="http://www.w3.org/2000/svg" id="svg2160" width="48" height="48"><metadata id="metadata2165"/><g id="layer1"><rect style="opacity:1;fill:none;fill-opacity:1;stroke:none;stroke-width:8;stroke-linecap:round;stroke-linejoin:round;stroke-miterlimit:4;stroke-dasharray:none;stroke-opacity:1" id="rect8007" width="48" height="48" x="0" y="0" ry="0"/><path id="path7036" d="M 20,23 L 28,23 C 34.651837,23 40,27.812153 40,34.46399 C 40,37 40,38 40,43 L 8,43 C 8,38 7.925209,38.457064 7.925209,34.46399 C 7.925209,27.812153 13.348163,23 20,23 z" style="fill:#fff;fill-opacity:1;stroke:#fff;stroke-opacity:1;stroke-width:8;stroke-miterlimit:4;stroke-dasharray:none;stroke-linejoin:round"/><path id="path6065" d="M 33.864266 14 A 10.864266 10.930748 0 1 1 12.135734,14 A 10.864266 10.930748 0 1 1 33.864266 14 z" transform="translate(1,2)" style="opacity:1;fill:#fff;fill-opacity:1;stroke:#fff;stroke-opacity:1;stroke-width:8;stroke-miterlimit:4;stroke-dasharray:none"/><path style="fill:#000;fill-opacity:1;stroke:none" id="rect2176" d="M 20,23 L 28,23 C 34.651837,23 40,27.812153 40,34.46399 C 40,37 40,38 40,43 L 8,43 C 8,38 7.925209,38.457064 7.925209,34.46399 C 7.925209,27.812153 13.348163,23 20,23 z"/><path style="fill:#fff;fill-rule:evenodd;stroke:#fff;stroke-width:3;stroke-linecap:round;stroke-linejoin:round;stroke-opacity:1;fill-opacity:1;stroke-miterlimit:4;stroke-dasharray:none" id="path3156" d="M 18,23 L 24,31 L 29.518006,23 C 25.678671,23 21.839335,23 18,23"/><path style="opacity:1;fill:#000;fill-opacity:1;stroke:none" id="path3154" d="M 33.864266 14 A 10.864266 10.930748 0 1 1 12.135734,14 A 10.864266 10.930748 0 1 1 33.864266 14 z" transform="translate(1,2)"/></g></svg>